<?xml version="1.0" encoding="utf-8"?>
<!-- Generator: Adobe Illustrator 23.0.1, SVG Export Plug-In . SVG Version: 6.00 Build 0)  -->
<svg version="1.1" id="Layer_1" xmlns="http://www.w3.org/2000/svg" xmlns:xlink="http://www.w3.org/1999/xlink" x="0px" y="0px"
	 viewBox="0 0 595.28 841.89" style="enable-background:new 0 0 595.28 841.89;" xml:space="preserve">
<style type="text/css">
	.st0{fill:#FFFFFF;}
</style>
<g id="IsvZVr.tif">
	<g>
		<path class="st0" d="M287.73,410.72c-5.01-0.01-9.4-0.02-13.79-0.02c-8.39,0-16.78-0.03-25.17,0.01
			c-5.7,0.02-10.16,4.18-10.49,9.66c-0.35,5.98,4.38,10.85,10.66,10.87c12.13,0.03,24.26,0.01,36.4,0.01c0.64,0,1.27,0.03,2.23,0.06
			c-0.07,1.23-0.19,2.28-0.19,3.34c-0.01,11.68,0,23.35-0.01,35.03c0,3.97,1.64,7.07,4.98,9.13c3.36,2.07,6.92,2.14,10.35,0.14
			c3.51-2.05,5.23-5.2,5.23-9.29c-0.01-12.13-0.01-24.26,0-36.4c0-0.64,0.04-1.27,0.08-2.35c0.82,0.13,1.47,0.32,2.12,0.32
			c11.78,0.02,23.56,0.01,35.33,0.01c0.66,0,1.32,0.01,1.97-0.04c5.94-0.42,10.26-5.71,9.5-11.61c-0.66-5.13-5.08-8.88-10.59-8.89
			c-12.13-0.02-24.26-0.01-36.4-0.01c-0.64,0-1.27-0.03-2.29-0.06c0.1-1.53,0.25-2.89,0.25-4.25c0.02-11.37,0.02-22.75,0-34.12
			c-0.01-4.92-2.87-8.9-7.28-10.22c-6.67-2-13.21,2.94-13.24,10.09c-0.04,11.93-0.02,23.86,0,35.79
			C287.37,408.77,287.58,409.62,287.73,410.72z"/>
		<path d="M287.73,410.72c-0.15-1.1-0.36-1.95-0.36-2.8c-0.02-11.93-0.04-23.86,0-35.79c0.03-7.15,6.57-12.09,13.24-10.09
			c4.41,1.33,7.28,5.3,7.28,10.22c0.02,11.37,0.02,22.75,0,34.12c0,1.36-0.16,2.72-0.25,4.25c1.02,0.03,1.65,0.06,2.29,0.06
			c12.13,0,24.26-0.01,36.4,0.01c5.5,0.01,9.93,3.76,10.59,8.89c0.76,5.9-3.56,11.19-9.5,11.61c-0.65,0.05-1.31,0.04-1.97,0.04
			c-11.78,0-23.56,0.01-35.33-0.01c-0.65,0-1.3-0.19-2.12-0.32c-0.04,1.08-0.08,1.72-0.08,2.35c0,12.13-0.01,24.26,0,36.4
			c0,4.09-1.72,7.24-5.23,9.29c-3.43,2-6.99,1.94-10.35-0.14c-3.34-2.06-4.98-5.17-4.98-9.13c0.01-11.68,0-23.35,0.01-35.03
			c0-1.05,0.12-2.11,0.19-3.34c-0.95-0.03-1.59-0.06-2.23-0.06c-12.13,0-24.26,0.02-36.4-0.01c-6.28-0.02-11.01-4.89-10.66-10.87
			c0.32-5.48,4.79-9.64,10.49-9.66c8.39-0.04,16.78-0.01,25.17-0.01C278.33,410.7,282.72,410.71,287.73,410.72z"/>
	</g>
</g>
<path d="M297.63,514.03c-51.29,0-93.02-41.73-93.02-93.02c0-51.29,41.73-93.02,93.02-93.02c51.29,0,93.02,41.73,93.02,93.02
	C390.65,472.3,348.92,514.03,297.63,514.03z M297.63,345.99c-41.37,0-75.02,33.65-75.02,75.02s33.65,75.02,75.02,75.02
	s75.02-33.65,75.02-75.02S339,345.99,297.63,345.99z"/>
</svg>
