<?xml version="1.0" encoding="utf-8"?>
<!-- Generator: Adobe Illustrator 23.0.1, SVG Export Plug-In . SVG Version: 6.00 Build 0)  -->
<svg version="1.1" id="Layer_1" xmlns="http://www.w3.org/2000/svg" xmlns:xlink="http://www.w3.org/1999/xlink" x="0px" y="0px"
	 viewBox="0 0 595.28 841.89" style="enable-background:new 0 0 595.28 841.89;" xml:space="preserve">
<style type="text/css">
	.st0{fill:#AAAAAA;}
</style>
<g id="IsvZVr.tif">
	<g>
		<path class="st0" d="M277.49,420.61c-5.02,5-9.42,9.38-13.82,13.77c-8.39,8.39-16.81,16.76-25.16,25.18
			c-5.67,5.72-5.98,14.34-0.82,20.15c5.63,6.34,15.23,6.48,21.53,0.21c12.16-12.1,24.27-24.25,36.41-36.38
			c0.64-0.64,1.31-1.24,2.29-2.16c1.15,1.3,2.09,2.47,3.15,3.52c11.66,11.69,23.35,23.35,35.02,35.05
			c3.96,3.97,8.71,5.43,14.11,4.15c5.44-1.29,9.06-4.79,10.49-10.22c1.46-5.56,0.03-10.43-4.06-14.52
			c-12.14-12.12-24.27-24.26-36.4-36.39c-0.64-0.64-1.23-1.31-2.27-2.43c0.95-0.69,1.79-1.14,2.44-1.79
			c11.8-11.76,23.57-23.54,35.34-35.32c0.66-0.66,1.32-1.31,1.93-2.01c5.52-6.36,4.55-15.98-2.11-21.12
			c-5.8-4.47-13.97-3.8-19.48,1.7c-12.15,12.11-24.27,24.26-36.41,36.38c-0.64,0.64-1.3,1.24-2.35,2.23c-1.44-1.63-2.64-3.14-4-4.5
			c-11.36-11.39-22.73-22.77-34.12-34.12c-4.93-4.91-11.77-6.02-17.5-2.94c-8.67,4.67-10.27,16.15-3.15,23.33
			c11.89,11.97,23.84,23.88,35.79,35.79C275.19,419.02,276.25,419.66,277.49,420.61z"/>
		<path class="st0" d="M277.49,420.61c-1.24-0.95-2.31-1.59-3.16-2.44c-11.95-11.91-23.9-23.82-35.79-35.79
			c-7.12-7.18-5.53-18.66,3.15-23.33c5.74-3.09,12.58-1.97,17.5,2.94c11.39,11.35,22.77,22.73,34.12,34.12
			c1.36,1.36,2.56,2.87,4,4.5c1.04-0.99,1.71-1.59,2.35-2.23c12.14-12.13,24.25-24.27,36.41-36.38c5.51-5.49,13.68-6.17,19.48-1.7
			c6.66,5.14,7.63,14.75,2.11,21.12c-0.61,0.7-1.27,1.35-1.93,2.01c-11.78,11.78-23.55,23.56-35.34,35.32
			c-0.65,0.65-1.49,1.11-2.44,1.79c1.04,1.12,1.64,1.8,2.27,2.43c12.13,12.13,24.26,24.27,36.4,36.39
			c4.09,4.08,5.53,8.96,4.06,14.52c-1.43,5.43-5.05,8.93-10.49,10.22c-5.4,1.28-10.15-0.18-14.11-4.15
			c-11.66-11.69-23.35-23.35-35.02-35.05c-1.05-1.06-1.99-2.23-3.15-3.52c-0.98,0.93-1.65,1.53-2.29,2.16
			c-12.14,12.13-24.25,24.28-36.41,36.38c-6.3,6.26-15.9,6.12-21.53-0.21c-5.16-5.81-4.85-14.43,0.82-20.15
			c8.36-8.43,16.77-16.8,25.16-25.18C268.07,429.99,272.47,425.61,277.49,420.61z"/>
	</g>
</g>
</svg>
