<?xml version="1.0" encoding="utf-8"?>
<!-- Generator: Adobe Illustrator 23.0.1, SVG Export Plug-In . SVG Version: 6.00 Build 0)  -->
<svg version="1.1" id="Layer_1" xmlns="http://www.w3.org/2000/svg" xmlns:xlink="http://www.w3.org/1999/xlink" x="0px" y="0px"
	 viewBox="0 0 595.28 841.89" style="enable-background:new 0 0 595.28 841.89;" xml:space="preserve">
<style type="text/css">
	.st0{fill:#666666;}
</style>
<g id="_x39_rtpMr_1_">
	<g>
		<path class="st0" d="M355.51,382.59c-0.1-0.17-0.12-0.25-0.18-0.31c-6.25-6.25-12.52-12.49-18.74-18.77
			c-0.68-0.68-0.99-0.39-1.5,0.13c-9.06,9.1-18.13,18.2-27.2,27.28c-10.03,10.05-20.07,20.09-30.12,30.12c-1,1-2.11,1.91-3.28,2.96
			c6.88,6.73,13.49,13.18,19.93,19.48C314.85,423.11,335.17,402.86,355.51,382.59z M288.3,449.78
			c-6.61-6.46-13.07-12.77-19.63-19.19c-4.73,11.22-9.35,22.19-14.07,33.39C265.91,459.22,276.95,454.57,288.3,449.78z"/>
		<path class="st0" d="M218.48,361.76c0.63,0.01,1.26,0.03,1.9,0.03c31.82,0,63.64,0,95.46,0c0.57,0,1.14,0,2.09,0
			c-1.25,1.33-2.2,2.37-3.17,3.4c-4.54,4.8-9.1,9.58-13.62,14.4c-0.61,0.65-1.23,0.84-2.09,0.84c-20.15-0.02-40.29-0.02-60.44-0.02
			c-0.5,0-1,0-1.59,0c0,33.43,0,66.75,0,100.23c0.41,0.03,0.85,0.1,1.29,0.1c32.66,0,65.33,0,97.99,0.03c1.17,0,1.47-0.34,1.47-1.49
			c-0.03-19.68-0.02-39.37-0.04-59.05c0-1.07,0.24-1.85,1.06-2.64c5.82-5.66,11.58-11.39,17.35-17.09c0.11-0.11,0.26-0.17,0.64-0.4
			c0,0.72,0,1.24,0,1.76c0,32.16,0,64.32,0,96.48c0,0.59,0.02,1.18,0.03,1.77c-46.11,0-92.23,0-138.34,0
			C218.48,453.99,218.48,407.88,218.48,361.76z"/>
		<path class="st0" d="M376.8,357.46c-0.78,4.56-3.55,7.86-6.81,10.9c-2.49,2.33-4.82,4.82-7.16,7.17
			c-6.59-6.61-13.11-13.16-19.8-19.87c1.31-1.26,2.8-2.68,4.26-4.12c1.71-1.68,3.44-3.35,5.08-5.1c2.4-2.55,5.4-3.92,8.75-4.67
			c1.1,0,2.19,0,3.29,0c0.2,0.07,0.39,0.16,0.59,0.2c4.77,0.93,8.33,3.5,10.42,7.91c0.61,1.27,0.93,2.68,1.38,4.03
			C376.8,355.1,376.8,356.28,376.8,357.46z"/>
		<path class="st0" d="M355.51,382.59c-20.35,20.28-40.66,40.52-61.1,60.89c-6.44-6.3-13.05-12.75-19.93-19.48
			c1.17-1.05,2.27-1.95,3.28-2.96c10.05-10.03,20.09-20.07,30.12-30.12c9.08-9.09,18.14-18.18,27.2-27.28
			c0.51-0.52,0.83-0.81,1.5-0.13c6.23,6.28,12.49,12.52,18.74,18.77C355.39,382.33,355.42,382.42,355.51,382.59z"/>
		<path class="st0" d="M288.3,449.78c-11.35,4.78-22.38,9.43-33.7,14.2c4.72-11.2,9.34-22.18,14.07-33.39
			C275.23,437.01,281.68,443.32,288.3,449.78z"/>
	</g>
</g>
</svg>
