<?xml version="1.0" encoding="utf-8"?>
<!-- Generator: Adobe Illustrator 23.0.1, SVG Export Plug-In . SVG Version: 6.00 Build 0)  -->
<svg version="1.1" id="Layer_1" xmlns="http://www.w3.org/2000/svg" xmlns:xlink="http://www.w3.org/1999/xlink" x="0px" y="0px"
	 viewBox="0 0 16.53 17.73" style="enable-background:new 0 0 16.53 17.73;" xml:space="preserve">
<style type="text/css">
	.st0{fill:#FFFFFF;}
</style>
<g id="ashR7T.tif">
	<g>
		<path class="st0" d="M0,5.18C0.01,5.08,0.02,4.99,0.02,4.9c0.03-0.51,0.14-1,0.3-1.49C0.54,2.8,0.85,2.25,1.26,1.75
			c0.26-0.32,0.56-0.59,0.88-0.84c0.17-0.13,0.33-0.28,0.49-0.43c0.2-0.18,0.41-0.34,0.66-0.42C3.61-0.05,3.91,0,4.19,0.16
			c0.31,0.17,0.55,0.43,0.77,0.7c0.32,0.41,0.58,0.86,0.87,1.3c0.18,0.28,0.35,0.58,0.49,0.88c0.13,0.29,0.22,0.58,0.26,0.89
			c0.05,0.49-0.08,0.92-0.42,1.28C5.96,5.42,5.73,5.6,5.52,5.79c-0.21,0.2-0.45,0.34-0.67,0.51c-0.24,0.19-0.42,0.42-0.5,0.72
			C4.28,7.26,4.29,7.49,4.33,7.72C4.4,8.13,4.58,8.5,4.78,8.87c0.31,0.55,0.69,1.06,1.09,1.55c0.41,0.5,0.85,0.99,1.32,1.43
			c0.41,0.39,0.85,0.76,1.35,1.02c0.31,0.17,0.64,0.28,1,0.27c0.29-0.01,0.54-0.11,0.75-0.29c0.13-0.11,0.25-0.24,0.37-0.36
			c0.14-0.14,0.29-0.28,0.44-0.41c0.18-0.16,0.36-0.31,0.55-0.46c0.24-0.18,0.51-0.29,0.81-0.31c0.29-0.03,0.58,0.03,0.85,0.14
			c0.36,0.14,0.69,0.34,0.99,0.59c0.35,0.29,0.7,0.58,1.04,0.88c0.21,0.18,0.41,0.38,0.6,0.58c0.21,0.22,0.39,0.48,0.5,0.77
			c0.15,0.4,0.08,0.78-0.19,1.1c-0.14,0.17-0.31,0.31-0.47,0.46c-0.18,0.16-0.36,0.32-0.54,0.49c-0.31,0.28-0.64,0.52-1,0.72
			c-0.48,0.27-0.99,0.46-1.53,0.57c-0.29,0.06-0.59,0.1-0.89,0.11c-0.03,0-0.06,0.01-0.1,0.01c-0.12,0-0.24,0-0.37,0
			c-0.03,0-0.05-0.01-0.08-0.01c-0.29-0.03-0.58-0.05-0.86-0.1c-0.59-0.1-1.15-0.29-1.7-0.53c-0.58-0.26-1.12-0.57-1.64-0.92
			c-0.58-0.39-1.12-0.82-1.63-1.3c-0.32-0.29-0.63-0.59-0.93-0.9c-0.31-0.32-0.62-0.66-0.92-1c-0.43-0.48-0.83-0.99-1.21-1.51
			c-0.47-0.65-0.9-1.32-1.28-2.03C0.7,8.6,0.36,7.75,0.17,6.85c-0.07-0.33-0.12-0.66-0.14-1C0.02,5.75,0.01,5.65,0,5.55
			C0,5.43,0,5.3,0,5.18z"/>
	</g>
</g>
</svg>
