<?xml version="1.0" encoding="utf-8"?>
<!-- Generator: Adobe Illustrator 23.0.1, SVG Export Plug-In . SVG Version: 6.00 Build 0)  -->
<svg version="1.1" id="Layer_1" xmlns="http://www.w3.org/2000/svg" xmlns:xlink="http://www.w3.org/1999/xlink" x="0px" y="0px"
	 viewBox="0 0 595.28 841.89" style="enable-background:new 0 0 595.28 841.89;" xml:space="preserve">
<style type="text/css">
	.st0{fill:#FFFFFF;}
</style>
<g id="_x39_Nz9cY.tif">
	<g>
		<path class="st0" d="M340.4,637c-15.31,0-30.62,0-45.93,0c-28.04-6.15-44.57-25.58-58.99-48.77
			c-19.52-31.38-40.67-61.74-61.12-92.54c0-3.53,0-7.07,0-10.6c0.5-0.73,1.07-1.41,1.47-2.18c10.48-19.71,28.96-20.85,41.16-2.51
			c6.67,10.02,13.26,20.1,20,30.08c1.3,1.93,3.12,3.51,6.48,7.21c0.58-5.84,1.13-8.91,1.15-11.97c0.09-15.28,0.04-30.57,0.04-45.85
			c0.02-31.45-0.13-62.9,0.15-94.35c0.11-12.05,8.84-20.94,20.07-21.62c11.23-0.68,20.73,7.11,22.75,18.93
			c0.59,3.45,0.7,7.01,0.71,10.52c0.06,21.46,0.03,42.91,0.03,64.37c0,3.02,0,6.03,0,9.6c18.6-7.37,23.67-5.97,34.98,6.97
			c8.77-1.2,16.47-4.24,22.98-2.58c6.54,1.67,11.88,8.01,16.13,11.12c8.09-0.69,16.39-3.56,22.94-1.32
			c5.99,2.05,10.1,9.62,15.04,14.76c0,34.15,0,68.3,0,102.45c-0.71,2.21-1.46,4.41-2.13,6.63c-7.15,23.56-22.34,39.51-45.48,47.84
			C348.76,634.65,344.55,635.73,340.4,637z"/>
	</g>
</g>
<path class="st0" d="M174.64,366.04c-0.07,12.68,8.92,22.41,20.67,22.38c11.74-0.03,21.09-9.79,21.22-22.16
	c0.13-12.23-9.28-22.31-20.93-22.42C183.86,343.73,174.72,353.42,174.64,366.04z"/>
<path class="st0" d="M316.38,366.04c-0.07,12.68,8.92,22.41,20.67,22.38c11.74-0.03,21.09-9.79,21.22-22.16
	c0.13-12.23-9.28-22.31-20.93-22.42C325.59,343.73,316.45,353.42,316.38,366.04z"/>
<path class="st0" d="M316.38,295.18c-0.07,12.68,8.92,22.41,20.67,22.38c11.74-0.03,21.09-9.79,21.22-22.16
	c0.13-12.23-9.28-22.31-20.93-22.42C325.59,272.87,316.45,282.55,316.38,295.18z"/>
<path class="st0" d="M245.51,295.18c-0.07,12.68,8.92,22.41,20.67,22.38c11.74-0.03,21.09-9.79,21.22-22.16
	c0.13-12.23-9.28-22.31-20.93-22.42C254.73,272.87,245.58,282.55,245.51,295.18z"/>
<path class="st0" d="M174.64,295.18c-0.07,12.68,8.92,22.41,20.67,22.38c11.74-0.03,21.09-9.79,21.22-22.16
	c0.13-12.23-9.28-22.31-20.93-22.42C183.86,272.87,174.72,282.55,174.64,295.18z"/>
<path class="st0" d="M174.64,224.31c-0.07,12.68,8.92,22.41,20.67,22.38c11.74-0.03,21.09-9.79,21.22-22.16
	c0.13-12.23-9.28-22.31-20.93-22.42C183.86,202,174.72,211.68,174.64,224.31z"/>
<path class="st0" d="M245.51,224.31c-0.07,12.68,8.92,22.41,20.67,22.38c11.74-0.03,21.09-9.79,21.22-22.16
	c0.13-12.23-9.28-22.31-20.93-22.42C254.73,202,245.58,211.68,245.51,224.31z"/>
<path class="st0" d="M316.38,224.31c-0.07,12.68,8.92,22.41,20.67,22.38c11.74-0.03,21.09-9.79,21.22-22.16
	c0.13-12.23-9.28-22.31-20.93-22.42C325.59,202,316.45,211.68,316.38,224.31z"/>
</svg>
