<?xml version="1.0" encoding="utf-8"?>
<!-- Generator: Adobe Illustrator 23.0.1, SVG Export Plug-In . SVG Version: 6.00 Build 0)  -->
<svg version="1.1" id="Layer_1" xmlns="http://www.w3.org/2000/svg" xmlns:xlink="http://www.w3.org/1999/xlink" x="0px" y="0px"
	 viewBox="0 0 427.12 552.4" style="enable-background:new 0 0 427.12 552.4;" xml:space="preserve">
<style type="text/css">
	.st0{fill:#EEFF00;}
</style>
<g>
	<path class="st0" d="M427.05,21.5C426.95,9.54,417.45,0.04,405.56,0L20.41,0.09c-2.87,0.03-5.96,1.02-8.54,2.35
		C3.67,6.69,0.03,13.86,0.03,22.91C0,71.91,0.01,120.9,0.01,169.9c0,104.57,0,209.15,0,313.72c0,15.75-0.05,31.5,0.06,47.25
		c0.09,12.58,11.04,21.43,21.71,21.48c13.15,0.06,26.3-0.23,39.45-0.3c10.32-0.06,20.65-0.05,30.97,0.01
		c5,0.03,9.99,0.37,14.98,0.35c13.4-0.06,26.8-0.27,40.2-0.35c10.49-0.06,20.98-0.05,31.47,0.01c4.83,0.03,9.66,0.36,14.48,0.34
		c13.07-0.06,26.14-0.27,39.2-0.35c10.41-0.06,20.81-0.05,31.22,0.01c5.08,0.03,10.16,0.37,15.23,0.35
		c12.07-0.05,24.14-0.29,36.2-0.35c12.74-0.06,25.48-0.04,38.22,0c4.74,0.02,9.49,0.27,14.23,0.27c5.41,0,10.82-0.21,16.24-0.25
		c7.82-0.06,15.65,0.1,23.47-0.15c2.42-0.08,5.01-0.78,7.17-1.89c8.31-4.25,12.53-11.22,12.53-20.57
		c0.02-84.41,0.01-168.82,0.01-253.23c0.01,0,0.02,0,0.04,0c0-72.83,0-145.65,0-218.48C427.11,45.66,427.16,33.58,427.05,21.5z
		 M58.01,121.78c-0.01-5.08,3.03-9.69,7.47-11.32c5.03-1.85,10.28-0.4,13.85,4.12c4.22,5.36,8.27,10.85,12.34,16.32
		c2.83,3.8,3.28,3.81,5.9,0.19c8.75-12.06,17.81-23.9,26.77-35.8c2.2-2.93,4.49-5.78,6.72-8.69c3.11-4.05,7.11-6.04,12.22-4.83
		c5.29,1.25,8.54,4.68,9.52,10.05c0.65,3.6-0.7,6.67-2.84,9.51c-7.64,10.09-15.26,20.19-22.85,30.32
		c-6.99,9.33-13.89,18.72-20.9,28.02c-2.97,3.94-6.26,7.33-11.92,6.92c-3.94-0.28-7.12-1.82-9.44-4.87
		c-8.2-10.81-16.37-21.64-24.37-32.6c-1.48-2.03-2.12-4.68-3.15-7.04C57.57,121.98,57.79,121.88,58.01,121.78z M150.6,406.91
		c-7.29,9.94-14.77,19.74-22.2,29.58c-7.83,10.37-15.61,20.78-23.59,31.04c-1.52,1.96-3.67,3.72-5.91,4.77
		c-4.93,2.31-9.79,1.05-13.22-3.22c-4.38-5.45-8.55-11.07-12.78-16.63c-4.14-5.43-8.39-10.79-12.3-16.38
		c-1.5-2.14-2.18-4.85-3.24-7.3c0.22-0.1,0.44-0.2,0.67-0.29c0.02-5.17,2.57-9.35,6.74-11.02c5.43-2.18,9.85-1.37,13.69,2.67
		c1.54,1.62,2.86,3.46,4.23,5.24c3.35,4.35,6.68,8.73,10.01,13.1c1.63,2.14,2.33,2.2,3.97,0.06c4.61-6.02,9.18-12.06,13.76-18.11
		c6.99-9.23,13.92-18.51,20.97-27.7c4.04-5.27,11.38-6.17,16.72-2.23C153.35,394.35,154.58,401.47,150.6,406.91z M150.75,305.13
		c-7.86,10.76-15.85,21.42-23.83,32.09c-6.83,9.14-13.61,18.31-20.65,27.29c-1.95,2.49-4.61,4.48-7.17,6.39
		c-1.1,0.83-2.78,0.9-4.2,1.31c-3.12-0.08-5.75-1.22-7.7-3.38c-3.22-3.58-6.28-7.32-9.2-11.15c-5.92-7.73-11.72-15.56-17.55-23.37
		c-3.12-4.18-3.42-10.25-0.76-14.01c3.32-4.7,8.41-6.75,13.75-4.83c2.29,0.82,4.51,2.6,6.08,4.5c3.92,4.74,7.45,9.8,11.14,14.73
		c0.35,0.47,0.68,0.95,1.04,1.41c2.71,3.51,2.93,3.56,5.6,0.03c11.17-14.72,22.38-29.42,33.4-44.26c3.56-4.79,8.3-5.79,13.5-4.71
		c4.59,0.95,7.3,4.37,8.42,8.96C153.47,299.44,152.66,302.52,150.75,305.13z M149.97,205.09c-15.11,20-30.25,39.98-45.43,59.92
		c-4.3,5.65-11.28,7.01-16.54,3.27c-1.6-1.14-2.97-2.68-4.17-4.25c-7.07-9.26-14.09-18.56-21.07-27.9
		c-2.49-3.33-4.7-6.65-4.83-11.22c-0.17-6.1,6.3-12.28,11.77-11.42c4.87-0.3,8.17,2.41,10.95,6.11c4.1,5.46,8.22,10.9,12.39,16.31
		c1.57,2.04,2.14,1.9,3.71-0.18c8.5-11.32,17.04-22.6,25.56-33.9c2.96-3.92,5.85-7.9,8.84-11.79c3.12-4.06,7.31-5.9,12.3-4.77
		c5.33,1.21,8.36,5,9.37,10.26C153.51,199.13,152.08,202.31,149.97,205.09z M173.94,131.54c0.66-8.48,5.69-14.03,13.67-16.72
		c1.75-0.59,3.79-0.4,5.7-0.41c26.5-0.02,53-0.02,79.5-0.02c26.42,0,52.83,0.26,79.24-0.15c9.28-0.14,17.9,7.1,19.36,16.67
		c1.15,7.51-4.77,17.21-12.4,19.7c-2.49,0.82-5.19,1.34-7.8,1.34c-52.08,0.08-104.16,0.05-156.24,0.06c-4.49,0-8.81-0.58-12.64-3.15
		C176.17,144.74,173.38,138.7,173.94,131.54z M185.73,219.21c2.3-0.8,4.85-1.25,7.28-1.26c26.66-0.09,53.31-0.05,79.97-0.05
		c0,0.02,0,0.03,0,0.05c26.66,0,53.32,0.11,79.97-0.05c11.26-0.07,18.9,10.75,18.57,19.56c-0.36,9.66-8.94,18.04-18.61,18.05
		c-49.82,0.02-99.63,0-149.45-0.01c-3.67,0-7.34-0.1-10.99,0.05c-7.94,0.33-17.34-6.43-18.6-16.91
		C172.96,231.07,177.78,221.96,185.73,219.21z M353.81,358.89c-17.24,0.27-34.5,0.1-51.75,0.12c-10,0.01-20,0-30,0
		c0,0,0,0.01,0,0.01c-26.25,0-52.5-0.18-78.74,0.09c-9.88,0.1-17.22-7.29-18.77-13.64c-2.32-9.53,1.39-17.78,10.08-22.22
		c1.81-0.92,3.95-1.62,5.95-1.67c9.15-0.22,18.31-0.14,27.46-0.22c4.24-0.04,8.49-0.3,12.73-0.32c12.82-0.04,25.64-0.02,38.47-0.02
		c7.82,0,15.64-0.05,23.47,0.01c13.82,0.1,27.63,0.31,41.45,0.37c5.58,0.02,11.16-0.44,16.73-0.31c8.05,0.18,14.48,3.43,18.44,10.78
		C375.56,343.41,366.96,358.68,353.81,358.89z M360.51,460.82c-4.24,1.62-9.01,1.86-13.54,2.72c-0.04-0.33-0.07-0.66-0.11-1
		c-12.06,0-24.13-0.04-36.19,0.02c-6.41,0.03-12.82,0.36-19.23,0.34c-12.73-0.04-25.46-0.28-38.19-0.33
		c-4.74-0.02-9.49,0.31-14.23,0.34c-9.57,0.06-19.14,0.07-28.71,0c-6.16-0.04-12.33-0.51-18.47-0.32
		c-8.24,0.25-15.24-6.53-17.36-13.97c-3.1-10.9,4.58-21.93,15.62-23.54c1.81-0.26,3.64-0.52,5.47-0.5
		c11.56,0.08,23.12,0.29,34.68,0.35c4.41,0.02,8.82-0.35,13.23-0.37c11.82-0.06,23.63-0.02,35.45-0.02c8.32,0,16.64,0,24.95,0
		c10.82,0,21.64-0.05,32.45,0.02c5.74,0.03,11.49,0.18,17.22,0.43c8.61,0.36,16.13,7.31,17.8,16.28
		C372.72,448.51,367.84,458.03,360.51,460.82z"/>
</g>
</svg>
