<?xml version="1.0" encoding="utf-8"?>
<!-- Generator: Adobe Illustrator 23.0.1, SVG Export Plug-In . SVG Version: 6.00 Build 0)  -->
<svg version="1.1" id="Layer_1" xmlns="http://www.w3.org/2000/svg" xmlns:xlink="http://www.w3.org/1999/xlink" x="0px" y="0px"
	 viewBox="0 0 380.36 100" style="enable-background:new 0 0 380.36 100;" xml:space="preserve">
<style type="text/css">
	.st0{fill:#EEFF00;}
</style>
<g>
	<path class="st0" d="M91.17,100H8.83C3.97,100,0,96.03,0,91.17V8.83C0,3.97,3.97,0,8.83,0h82.34C96.03,0,100,3.97,100,8.83v82.34
		C100,96.03,96.03,100,91.17,100z"/>
</g>
<g>
	<path d="M49.97,56.18c-3.68-0.02-6.64-2.99-6.64-6.66c0-3.67,2.98-6.64,6.66-6.64c3.71,0,6.7,3,6.68,6.7
		C56.64,53.24,53.64,56.2,49.97,56.18z"/>
	<g>
		<g>
			<path d="M76.98,78.6c-1.1-1.16-2.2-2.32-3.34-3.51c6.77-6.86,10.49-15.16,10.5-24.98c0.01-9.83-3.71-18.14-10.69-25.25
				c0.6-0.55,1.21-1.07,1.77-1.62c0.58-0.56,1.12-1.16,1.77-1.84c7.3,7.37,11.41,16.04,12.05,26.31
				C89.89,61.49,83.47,72.71,76.98,78.6z"/>
			<path d="M60.67,37.14c1-1.09,1.96-2.14,2.92-3.19c9.3,8.22,9.55,23.65,0.05,32.2c-0.95-1.05-1.9-2.11-2.9-3.21
				c3.5-3.44,5.54-7.72,5.53-12.87C66.27,44.92,64.25,40.63,60.67,37.14z"/>
			<path d="M69.43,71.63c-0.98-0.87-1.96-1.75-2.97-2.65c6.03-5.17,9.34-11.43,9.35-18.83c0.01-7.41-3.3-13.67-9.52-19.03
				c0.54-0.41,1.07-0.81,1.58-1.22c0.51-0.42,0.99-0.87,1.58-1.39c6.5,5.55,10.16,12.09,10.73,19.83
				C80.94,58.72,75.21,67.18,69.43,71.63z"/>
		</g>
		<g>
			<path d="M23.02,21.4c1.1,1.16,2.2,2.32,3.34,3.51c-6.77,6.86-10.49,15.16-10.5,24.98c-0.01,9.83,3.71,18.14,10.69,25.25
				c-0.6,0.55-1.21,1.07-1.77,1.62c-0.58,0.56-1.12,1.16-1.77,1.84c-7.3-7.37-11.41-16.04-12.05-26.31
				C10.11,38.51,16.53,27.29,23.02,21.4z"/>
			<path d="M39.33,62.86c-1,1.09-1.96,2.14-2.92,3.19c-9.3-8.22-9.55-23.65-0.05-32.2c0.95,1.05,1.9,2.11,2.9,3.21
				c-3.5,3.44-5.54,7.72-5.53,12.87C33.73,55.08,35.75,59.37,39.33,62.86z"/>
			<path d="M30.57,28.37c0.98,0.87,1.96,1.75,2.97,2.65c-6.03,5.17-9.34,11.43-9.35,18.83c-0.01,7.41,3.3,13.67,9.52,19.03
				c-0.54,0.41-1.07,0.81-1.58,1.22c-0.51,0.42-0.99,0.87-1.58,1.39c-6.5-5.55-10.16-12.09-10.73-19.83
				C19.06,41.28,24.79,32.82,30.57,28.37z"/>
		</g>
	</g>
</g>
<g>
	<path d="M148.33,71.37c0,2.55-0.14,4.65-0.42,6.31c-0.28,1.66-0.81,2.99-1.59,3.98c-0.78,0.99-1.82,1.68-3.13,2.07
		c-1.31,0.39-3.02,0.58-5.14,0.58c-2.48,0-4.44-0.37-5.89-1.11c-1.45-0.74-2.56-1.82-3.34-3.23V100h-10.82V20.25h10.07v4.67
		c0.92-1.84,2.16-3.16,3.71-3.98c1.55-0.81,3.61-1.22,6.15-1.22c2.12,0,3.85,0.21,5.2,0.64c1.34,0.42,2.4,1.13,3.18,2.12
		c0.78,0.99,1.31,2.32,1.59,3.98c0.28,1.66,0.42,3.73,0.42,6.2V71.37z M128.5,71.37c0.92,2.19,2.51,3.29,4.77,3.29
		c1.84,0,3.06-0.35,3.66-1.06c0.6-0.71,0.9-2.12,0.9-4.24V34.78c0-2.12-0.3-3.53-0.9-4.24c-0.6-0.71-1.82-1.06-3.66-1.06
		c-2.26,0-3.85,1.1-4.77,3.29V71.37z"/>
	<path d="M167.74,83.78h-10.82V20.25H167v4.24c0.78-1.41,1.96-2.56,3.55-3.45c1.59-0.88,3.69-1.33,6.31-1.33
		c3.68,0,6.24,0.92,7.69,2.76c1.45,1.84,2.17,5.23,2.17,10.18v15.8h-9.76V33.93c0-1.7-0.28-2.86-0.85-3.5
		c-0.57-0.64-1.77-0.95-3.61-0.95c-2.4,0-3.99,1.17-4.77,3.5V83.78z"/>
	<path d="M222.25,71.37c0,2.97-0.21,5.34-0.64,7.1c-0.42,1.77-1.19,3.13-2.28,4.08c-1.1,0.95-2.63,1.57-4.61,1.86
		c-1.98,0.28-4.53,0.42-7.64,0.42c-3.11,0-5.66-0.14-7.64-0.42c-1.98-0.28-3.54-0.9-4.67-1.86c-1.13-0.95-1.89-2.31-2.28-4.08
		c-0.39-1.77-0.58-4.14-0.58-7.1V32.66c0-2.97,0.19-5.34,0.58-7.11c0.39-1.77,1.15-3.13,2.28-4.08c1.13-0.95,2.69-1.57,4.67-1.86
		c1.98-0.28,4.52-0.42,7.64-0.42c3.11,0,5.65,0.14,7.64,0.42c1.98,0.28,3.52,0.9,4.61,1.86c1.1,0.95,1.86,2.32,2.28,4.08
		c0.42,1.77,0.64,4.14,0.64,7.11V71.37z M211.75,33.83c0-1.84-0.28-3.04-0.85-3.61c-0.57-0.56-1.84-0.85-3.82-0.85
		c-1.98,0-3.25,0.3-3.82,0.9c-0.57,0.6-0.85,1.79-0.85,3.55v36.48c0,1.84,0.28,3.06,0.85,3.66c0.56,0.6,1.84,0.9,3.82,0.9
		c2.05,0,3.34-0.33,3.87-1.01c0.53-0.67,0.79-1.86,0.79-3.55V33.83z"/>
	<path d="M249.29,29.06h-7.42v39.87c0,2.19,0.35,3.68,1.06,4.45c0.71,0.78,2.12,1.17,4.24,1.17h2.02v9.23h-2.76
		c-2.9,0-5.34-0.27-7.32-0.8c-1.98-0.53-3.57-1.34-4.77-2.44c-1.2-1.1-2.05-2.49-2.55-4.19c-0.5-1.7-0.74-3.71-0.74-6.04V29.06
		h-3.92v-8.8h3.92V0.95h10.82v19.3h7.42V29.06z"/>
	<path d="M285.87,71.37c0,2.97-0.21,5.34-0.64,7.1c-0.42,1.77-1.19,3.13-2.28,4.08c-1.1,0.95-2.63,1.57-4.61,1.86
		c-1.98,0.28-4.53,0.42-7.64,0.42c-3.11,0-5.66-0.14-7.64-0.42c-1.98-0.28-3.54-0.9-4.67-1.86c-1.13-0.95-1.89-2.31-2.28-4.08
		c-0.39-1.77-0.58-4.14-0.58-7.1V32.66c0-2.97,0.19-5.34,0.58-7.11c0.39-1.77,1.15-3.13,2.28-4.08c1.13-0.95,2.69-1.57,4.67-1.86
		c1.98-0.28,4.52-0.42,7.64-0.42c3.11,0,5.65,0.14,7.64,0.42c1.98,0.28,3.52,0.9,4.61,1.86c1.1,0.95,1.86,2.32,2.28,4.08
		c0.42,1.77,0.64,4.14,0.64,7.11V71.37z M275.37,33.83c0-1.84-0.28-3.04-0.85-3.61c-0.57-0.56-1.84-0.85-3.82-0.85
		c-1.98,0-3.25,0.3-3.82,0.9c-0.57,0.6-0.85,1.79-0.85,3.55v36.48c0,1.84,0.28,3.06,0.85,3.66c0.56,0.6,1.84,0.9,3.82,0.9
		c2.05,0,3.34-0.33,3.87-1.01c0.53-0.67,0.79-1.86,0.79-3.55V33.83z"/>
	<path d="M313.23,43.8v-9.97c0-1.84-0.28-3.04-0.85-3.61c-0.57-0.56-1.77-0.85-3.61-0.85c-2.05,0-3.34,0.28-3.87,0.85
		c-0.53,0.57-0.8,1.77-0.8,3.61v36.48c0,1.84,0.28,3.06,0.85,3.66c0.56,0.6,1.84,0.9,3.82,0.9c1.84,0,3.04-0.33,3.61-1.01
		c0.56-0.67,0.85-1.86,0.85-3.55V53.87h9.86v17.5c0,2.97-0.21,5.36-0.64,7.16c-0.42,1.8-1.19,3.16-2.28,4.08
		c-1.1,0.92-2.56,1.52-4.4,1.8c-1.84,0.28-4.17,0.42-7,0.42c-3.18,0-5.74-0.16-7.69-0.48c-1.95-0.32-3.48-0.95-4.61-1.91
		c-1.13-0.95-1.89-2.31-2.28-4.08c-0.39-1.77-0.58-4.1-0.58-7V32.66c0-2.97,0.21-5.34,0.64-7.11c0.42-1.77,1.18-3.13,2.28-4.08
		c1.1-0.95,2.63-1.57,4.61-1.86c1.98-0.28,4.52-0.42,7.64-0.42c2.97,0,5.39,0.18,7.26,0.53c1.87,0.35,3.34,1.01,4.4,1.96
		c1.06,0.95,1.77,2.32,2.12,4.08c0.35,1.77,0.53,4.07,0.53,6.89V43.8H313.23z"/>
	<path d="M360.95,71.37c0,2.97-0.21,5.34-0.64,7.1c-0.42,1.77-1.19,3.13-2.28,4.08c-1.1,0.95-2.63,1.57-4.61,1.86
		c-1.98,0.28-4.53,0.42-7.64,0.42c-3.11,0-5.66-0.14-7.64-0.42c-1.98-0.28-3.54-0.9-4.67-1.86c-1.13-0.95-1.89-2.31-2.28-4.08
		c-0.39-1.77-0.58-4.14-0.58-7.1V32.66c0-2.97,0.19-5.34,0.58-7.11c0.39-1.77,1.15-3.13,2.28-4.08c1.13-0.95,2.69-1.57,4.67-1.86
		c1.98-0.28,4.52-0.42,7.64-0.42c3.11,0,5.65,0.14,7.64,0.42c1.98,0.28,3.52,0.9,4.61,1.86c1.1,0.95,1.86,2.32,2.28,4.08
		c0.42,1.77,0.64,4.14,0.64,7.11V71.37z M350.45,33.83c0-1.84-0.28-3.04-0.85-3.61c-0.57-0.56-1.84-0.85-3.82-0.85
		c-1.98,0-3.25,0.3-3.82,0.9c-0.57,0.6-0.85,1.79-0.85,3.55v36.48c0,1.84,0.28,3.06,0.85,3.66c0.56,0.6,1.84,0.9,3.82,0.9
		c2.05,0,3.34-0.33,3.87-1.01c0.53-0.67,0.8-1.86,0.8-3.55V33.83z"/>
	<path d="M380.36,83.78h-10.82V0h10.82V83.78z"/>
</g>
</svg>
