<?xml version="1.0" encoding="utf-8"?>
<!-- Generator: Adobe Illustrator 23.0.1, SVG Export Plug-In . SVG Version: 6.00 Build 0)  -->
<svg version="1.1" id="Layer_1" xmlns="http://www.w3.org/2000/svg" xmlns:xlink="http://www.w3.org/1999/xlink" x="0px" y="0px"
	 viewBox="0 0 595.28 841.89" style="enable-background:new 0 0 595.28 841.89;" xml:space="preserve">
<style type="text/css">
	.st0{fill:#AAAAAA;}
</style>
<g>
	<path class="st0" d="M336.44,353.63c0.88,0,1.75,0,2.61,0c-0.86,0-1.73,0-2.62,0c0,12.91,0,25.66,0,38.38c0,0,0.01,0,0.01,0
		C336.44,379.29,336.44,366.54,336.44,353.63z"/>
	<path class="st0" d="M345.83,353.68c0.14,0.03,0.28,0.09,0.41,0.18C346.1,353.77,345.96,353.71,345.83,353.68z"/>
	<path class="st0" d="M241.07,488.39c-6.52,0-10.48-3.98-10.48-10.49c0-37.65,0.02-75.3-0.03-112.95c0-3.71,0.66-7.07,3.85-9.28
		c1.39-0.96,3.16-1.86,4.78-1.91c0.08,0,0.16,0,0.24-0.01c-0.08,0-0.16,0-0.25,0.01c-1.62,0.05-3.39,0.95-4.78,1.91
		c-3.19,2.21-3.85,5.57-3.85,9.28c0.05,37.65,0.03,75.3,0.03,112.95c0,6.51,3.96,10.49,10.48,10.49c16.04,0,32.08,0,48.13,0
		c22.06,0,44.12,0.01,66.17-0.01c0,0,0,0,0,0c-22.06,0.01-44.11,0.01-66.16,0.01C273.16,488.39,257.12,488.39,241.07,488.39z"/>
	<path class="st0" d="M259.46,353.67c-6.79,0-13.42-0.12-20.03,0.08C246.05,353.56,252.67,353.67,259.46,353.67z"/>
	<path class="st0" d="M345.72,353.66c0.04,0,0.07,0.02,0.11,0.02c-0.03-0.01-0.07-0.02-0.1-0.02c-2.2-0.04-4.41-0.04-6.68-0.03
		C341.31,353.62,343.52,353.62,345.72,353.66z"/>
	<path class="st0" d="M259.46,392.01c0-12.8,0-25.48,0-38.34c0,12.86,0,25.54-0.01,38.34C259.45,392.01,259.46,392.01,259.46,392.01
		z"/>
	<path class="st0" d="M365.33,374.23c0-0.67-0.22-1.54-0.67-1.99c-5.95-6.03-11.95-12.01-17.95-17.99c-0.14-0.13-0.3-0.28-0.47-0.39
		c0.17,0.11,0.33,0.26,0.46,0.39c6,5.98,12,11.96,17.95,17.99c0.45,0.45,0.67,1.32,0.67,1.99c0.03,33.34,0.02,66.68,0.02,100.02
		c0,1.4,0.01,2.81,0,4.21c-0.04,5.81-4.14,9.92-9.98,9.92c0,0,0.01,0,0.01,0c5.84,0,9.94-4.1,9.98-9.92c0.01-1.4,0-2.81,0-4.21
		C365.35,440.91,365.36,407.57,365.33,374.23z"/>
	<path class="st0" d="M365.34,478.46c0.01-1.4,0-2.81,0-4.21c0-33.34,0.01-66.68-0.02-100.02c0-0.67-0.22-1.54-0.67-1.99
		c-5.95-6.03-11.95-12.01-17.95-17.99c-0.13-0.13-0.29-0.28-0.46-0.39c-0.14-0.09-0.28-0.15-0.41-0.18
		c-0.04-0.01-0.07-0.02-0.11-0.02c-2.2-0.04-4.41-0.04-6.67-0.03c-0.86,0-1.73,0-2.61,0c0,12.91,0,25.66,0,38.38c0,0-0.01,0-0.01,0
		c-25.75,0-51.33,0-76.97,0c0,0-0.01,0-0.01,0c0.01-12.8,0.01-25.48,0.01-38.34c-6.79,0-13.41-0.11-20.03,0.08
		c-0.08,0-0.16,0-0.24,0.01c-1.62,0.05-3.39,0.95-4.78,1.91c-3.19,2.21-3.85,5.57-3.85,9.28c0.05,37.65,0.03,75.3,0.03,112.95
		c0,6.51,3.96,10.49,10.48,10.49c16.05,0,32.09,0,48.13,0c22.05,0,44.1,0,66.16-0.01C361.2,488.38,365.3,484.27,365.34,478.46z
		 M345.99,478.7c-32.07,0-64.03,0-96.07,0c0-22.4,0-44.74,0-67.2c31.97,0,63.96,0,96.07,0C345.99,433.83,345.99,456.2,345.99,478.7z
		"/>
	<path class="st0" d="M326.77,353.68c-6.38,0-12.68,0-19.07,0c0,9.67,0,19.2,0,28.7c6.44,0,12.77,0,19.07,0
		C326.77,372.75,326.77,363.25,326.77,353.68z"/>
	<path class="st0" d="M336.39,420.99c-25.65,0-51.23,0-76.88,0c0,6.46,0,12.76,0,19.25c25.71,0,51.29,0,76.88,0
		C336.39,433.72,336.39,427.43,336.39,420.99z"/>
	<path class="st0" d="M259.53,469.04c25.7,0,51.28,0,76.83,0c0-6.57,0-12.94,0-19.25c-25.67,0-51.21,0-76.83,0
		C259.53,456.24,259.53,462.52,259.53,469.04z"/>
</g>
</svg>
