<?xml version="1.0" encoding="utf-8"?>
<!-- Generator: Adobe Illustrator 23.0.1, SVG Export Plug-In . SVG Version: 6.00 Build 0)  -->
<svg version="1.1" id="Layer_1" xmlns="http://www.w3.org/2000/svg" xmlns:xlink="http://www.w3.org/1999/xlink" x="0px" y="0px"
	 viewBox="0 0 595.28 841.89" style="enable-background:new 0 0 595.28 841.89;" xml:space="preserve">
<style type="text/css">
	.st0{fill:#FFFFFF;}
</style>
<g id="c5nEzh.tif">
	<g>
		<path class="st0" d="M259.46,353.67c-6.87,0-13.58-0.12-20.28,0.09c-1.62,0.05-3.39,0.95-4.78,1.91
			c-3.19,2.21-3.85,5.57-3.85,9.28c0.05,37.65,0.03,75.3,0.03,112.95c0,6.51,3.96,10.49,10.48,10.49c16.04,0,32.08,0,48.13,0
			c22.06,0,44.12,0.01,66.17-0.01c5.84,0,9.94-4.11,9.98-9.92c0.01-1.4,0-2.81,0-4.21c0-33.34,0.01-66.68-0.02-100.02
			c0-0.67-0.22-1.54-0.67-1.99c-5.95-6.03-11.95-12.01-17.95-17.99c-0.27-0.27-0.65-0.59-0.98-0.59c-3.04-0.05-6.08-0.03-9.29-0.03
			c0,12.91,0,25.66,0,38.38c-25.75,0-51.34,0-76.98,0C259.46,379.21,259.46,366.53,259.46,353.67z M307.7,353.68
			c0,9.67,0,19.2,0,28.7c6.44,0,12.77,0,19.07,0c0-9.63,0-19.13,0-28.7C320.39,353.68,314.09,353.68,307.7,353.68z"/>
		<path d="M259.46,353.67c0,12.86,0,25.54,0,38.34c25.64,0,51.22,0,76.98,0c0-12.72,0-25.47,0-38.38c3.21,0,6.25-0.02,9.29,0.03
			c0.33,0.01,0.71,0.33,0.98,0.59c6,5.98,12,11.96,17.95,17.99c0.45,0.45,0.67,1.32,0.67,1.99c0.03,33.34,0.02,66.68,0.02,100.02
			c0,1.4,0.01,2.81,0,4.21c-0.04,5.82-4.14,9.92-9.98,9.92c-22.06,0.01-44.12,0.01-66.17,0.01c-16.04,0-32.08,0-48.13,0
			c-6.52,0-10.48-3.98-10.48-10.49c0-37.65,0.02-75.3-0.03-112.95c0-3.71,0.66-7.07,3.85-9.28c1.39-0.96,3.16-1.86,4.78-1.91
			C245.88,353.54,252.59,353.67,259.46,353.67z M345.99,478.7c0-22.5,0-44.87,0-67.2c-32.11,0-64.1,0-96.07,0c0,22.46,0,44.8,0,67.2
			C281.96,478.7,313.92,478.7,345.99,478.7z"/>
		<path d="M307.7,353.68c6.39,0,12.69,0,19.07,0c0,9.57,0,19.07,0,28.7c-6.3,0-12.63,0-19.07,0
			C307.7,372.89,307.7,363.35,307.7,353.68z"/>
		<path d="M259.51,440.24c0-6.49,0-12.79,0-19.25c25.65,0,51.23,0,76.88,0c0,6.44,0,12.73,0,19.25
			C310.8,440.24,285.22,440.24,259.51,440.24z"/>
		<path d="M259.53,469.04c0-6.52,0-12.8,0-19.25c25.62,0,51.16,0,76.83,0c0,6.31,0,12.68,0,19.25
			C310.81,469.04,285.23,469.04,259.53,469.04z"/>
	</g>
</g>
</svg>
