<?xml version="1.0" encoding="utf-8"?>
<!-- Generator: Adobe Illustrator 23.0.1, SVG Export Plug-In . SVG Version: 6.00 Build 0)  -->
<svg version="1.1" id="Layer_1" xmlns="http://www.w3.org/2000/svg" xmlns:xlink="http://www.w3.org/1999/xlink" x="0px" y="0px"
	 viewBox="0 0 475.65 153.18" style="enable-background:new 0 0 475.65 153.18;" xml:space="preserve">
<style type="text/css">
	.st0{fill:#CCCCCC;}
	.st1{fill:#231F20;}
	.st2{font-family:'Prompt-Regular';}
	.st3{font-size:28.1911px;}
	.st4{fill:#EEFF00;}
</style>
<rect x="55.75" y="103.7" width="196.58" height="5.86"/>
<rect x="252.32" y="103.98" class="st0" width="191.72" height="5.86"/>
<ellipse transform="matrix(0.9951 -0.0985 0.0985 0.9951 -10.2615 6.0763)" cx="56.38" cy="106.92" rx="21.83" ry="21.83"/>
<text transform="matrix(1 0 0 1 1.716614e-04 24.1591)" class="st1 st2 st3">Protocol</text>
<path class="st0" d="M66.76,94.53c-0.01-0.58-0.47-1.04-1.05-1.05H46.98c-0.14,0-0.29,0.05-0.42,0.11c-0.4,0.21-0.58,0.55-0.58,1
	c0,2.38,0,4.77,0,7.15c0,5.09,0,10.17,0,15.26c0,0.77,0,1.53,0,2.3c0,0.61,0.54,1.04,1.06,1.04c0.64,0,1.28-0.01,1.92-0.01
	c0.5,0,1,0,1.51,0c0.24,0,0.49,0.02,0.73,0.02c0.65,0,1.3-0.01,1.96-0.02c0.51,0,1.02,0,1.53,0c0.23,0,0.47,0.02,0.7,0.02
	c0.64,0,1.27-0.01,1.91-0.02c0.51,0,1.01,0,1.52,0c0.25,0,0.49,0.02,0.74,0.02c0.59,0,1.17-0.01,1.76-0.02c0.62,0,1.24,0,1.86,0
	c0.23,0,0.46,0.01,0.69,0.01c0.26,0,0.53-0.01,0.79-0.01c0.38,0,0.76,0,1.14-0.01c0.12,0,0.24-0.04,0.35-0.09
	c0.4-0.21,0.61-0.55,0.61-1c0-4.11,0-8.21,0-12.32l0,0c0-3.54,0-7.08,0-10.63C66.76,95.7,66.77,95.12,66.76,94.53 M48.81,99.41
	c0-0.25,0.15-0.47,0.36-0.55c0.24-0.09,0.5-0.02,0.67,0.2c0.21,0.26,0.4,0.53,0.6,0.79c0.14,0.18,0.16,0.19,0.29,0.01
	c0.43-0.59,0.87-1.16,1.3-1.74c0.11-0.14,0.22-0.28,0.33-0.42c0.15-0.2,0.35-0.29,0.59-0.23c0.26,0.06,0.42,0.23,0.46,0.49
	c0.03,0.17-0.03,0.32-0.14,0.46c-0.37,0.49-0.74,0.98-1.11,1.47c-0.34,0.45-0.68,0.91-1.02,1.36c-0.14,0.19-0.3,0.36-0.58,0.34
	c-0.19-0.01-0.35-0.09-0.46-0.24c-0.4-0.53-0.8-1.05-1.19-1.59c-0.07-0.1-0.1-0.23-0.15-0.34C48.79,99.42,48.8,99.41,48.81,99.41
	 M53.32,113.27c-0.35,0.48-0.72,0.96-1.08,1.44c-0.38,0.5-0.76,1.01-1.15,1.51c-0.07,0.1-0.18,0.18-0.29,0.23
	c-0.24,0.11-0.48,0.05-0.64-0.16c-0.21-0.27-0.42-0.54-0.62-0.81c-0.2-0.26-0.41-0.52-0.6-0.8c-0.07-0.1-0.11-0.24-0.16-0.36
	c0.01,0,0.02-0.01,0.03-0.01c0-0.25,0.13-0.45,0.33-0.54c0.26-0.11,0.48-0.07,0.67,0.13c0.07,0.08,0.14,0.17,0.21,0.25
	c0.16,0.21,0.32,0.42,0.49,0.64c0.08,0.1,0.11,0.11,0.19,0c0.22-0.29,0.45-0.59,0.67-0.88c0.34-0.45,0.68-0.9,1.02-1.35
	c0.2-0.26,0.55-0.3,0.81-0.11C53.45,112.66,53.51,113.01,53.32,113.27 M53.32,108.32c-0.38,0.52-0.77,1.04-1.16,1.56
	c-0.33,0.44-0.66,0.89-1,1.33c-0.09,0.12-0.22,0.22-0.35,0.31c-0.05,0.04-0.14,0.04-0.2,0.06c-0.15,0-0.28-0.06-0.37-0.16
	c-0.16-0.17-0.31-0.36-0.45-0.54c-0.29-0.38-0.57-0.76-0.85-1.14c-0.15-0.2-0.17-0.5-0.04-0.68c0.16-0.23,0.41-0.33,0.67-0.23
	c0.11,0.04,0.22,0.13,0.3,0.22c0.19,0.23,0.36,0.48,0.54,0.72c0.02,0.02,0.03,0.05,0.05,0.07c0.13,0.17,0.14,0.17,0.27,0
	c0.54-0.72,1.09-1.43,1.62-2.15c0.17-0.23,0.4-0.28,0.66-0.23c0.22,0.05,0.36,0.21,0.41,0.44C53.46,108.05,53.42,108.2,53.32,108.32
	 M53.29,103.46c-0.74,0.97-1.47,1.94-2.21,2.91c-0.21,0.27-0.55,0.34-0.8,0.16c-0.08-0.06-0.14-0.13-0.2-0.21
	c-0.34-0.45-0.69-0.9-1.02-1.36c-0.12-0.16-0.23-0.32-0.23-0.55c-0.01-0.3,0.31-0.6,0.57-0.56c0.24-0.01,0.4,0.12,0.53,0.3
	c0.2,0.27,0.4,0.53,0.6,0.79c0.08,0.1,0.1,0.09,0.18-0.01c0.41-0.55,0.83-1.1,1.24-1.65c0.14-0.19,0.28-0.38,0.43-0.57
	c0.15-0.2,0.36-0.29,0.6-0.23c0.26,0.06,0.41,0.24,0.46,0.5C53.46,103.17,53.39,103.32,53.29,103.46 M54.45,99.88
	c0.03-0.41,0.28-0.68,0.67-0.81c0.09-0.03,0.18-0.02,0.28-0.02c1.29,0,2.58,0,3.87,0c1.28,0,2.57,0.01,3.85-0.01
	c0.45-0.01,0.87,0.35,0.94,0.81c0.06,0.37-0.23,0.84-0.6,0.96c-0.12,0.04-0.25,0.07-0.38,0.07c-2.53,0-5.07,0-7.6,0
	c-0.22,0-0.43-0.03-0.61-0.15C54.56,100.52,54.42,100.23,54.45,99.88 M55.02,104.15c0.11-0.04,0.24-0.06,0.35-0.06
	c1.3,0,2.59,0,3.89,0l0,0c1.3,0,2.59,0.01,3.89,0c0.55,0,0.92,0.52,0.9,0.95c-0.02,0.47-0.43,0.88-0.91,0.88c-2.42,0-4.85,0-7.27,0
	c-0.18,0-0.36-0.01-0.53,0c-0.39,0.02-0.84-0.31-0.9-0.82C54.4,104.72,54.64,104.28,55.02,104.15 M63.2,110.94
	c-0.84,0.01-1.68,0.01-2.52,0.01c-0.49,0-0.97,0-1.46,0l0,0c-1.28,0-2.55-0.01-3.83,0c-0.48,0.01-0.84-0.35-0.91-0.66
	c-0.11-0.46,0.07-0.86,0.49-1.08c0.09-0.04,0.19-0.08,0.29-0.08c0.45-0.01,0.89-0.01,1.34-0.01c0.21,0,0.41-0.01,0.62-0.02
	c0.62,0,1.25,0,1.87,0c0.38,0,0.76,0,1.14,0c0.67,0,1.34,0.02,2.02,0.02c0.27,0,0.54-0.02,0.81-0.02c0.39,0.01,0.7,0.17,0.9,0.52
	C64.26,110.19,63.84,110.93,63.2,110.94 M63.53,115.9c-0.21,0.08-0.44,0.09-0.66,0.13c0-0.02,0-0.03-0.01-0.05
	c-0.59,0-1.17,0-1.76,0c-0.31,0-0.62,0.02-0.94,0.02c-0.62,0-1.24-0.01-1.86-0.02c-0.23,0-0.46,0.02-0.69,0.02c-0.47,0-0.93,0-1.4,0
	c-0.3,0-0.6-0.02-0.9-0.02c-0.4,0.01-0.74-0.32-0.84-0.68c-0.15-0.53,0.22-1.07,0.76-1.15c0.09-0.01,0.18-0.03,0.27-0.02
	c0.56,0,1.12,0.01,1.69,0.02c0.21,0,0.43-0.02,0.64-0.02c0.57,0,1.15,0,1.72,0h1.21c0.53,0,1.05,0,1.58,0
	c0.28,0,0.56,0.01,0.84,0.02c0.42,0.02,0.78,0.36,0.87,0.79C64.12,115.3,63.88,115.76,63.53,115.9"/>
<circle cx="250.42" cy="106.92" r="46.26"/>
<text transform="matrix(1 0 0 1 209.7265 24.1591)" class="st1 st2 st3">Status</text>
<g>
	<g>
		<polygon class="st4" points="221.11,102.06 229.95,110.56 247.64,93.39 252.32,98.25 230.13,120.44 216.43,106.92 		"/>
		<polygon class="st4" points="261.22,93.39 270.73,102.9 280.24,93.39 284.41,97.4 275.04,106.82 284.41,116.43 280.24,120.44 
			270.73,110.93 261.22,120.44 257.35,116.28 266.72,106.92 257.35,97.7 		"/>
	</g>
</g>
<ellipse transform="matrix(0.1602 -0.9871 0.9871 0.1602 267.7186 528.5098)" class="st0" cx="444.45" cy="106.92" rx="21.83" ry="21.83"/>
<text transform="matrix(1 0 0 1 413.2657 24.1591)" class="st1 st2 st3">Chat</text>
<g>
	<g>
		<g>
			<path d="M452.86,112.99H453c1.05,0,2.1,0,3.16,0c0.12,0,0.24-0.01,0.35-0.03c0.95-0.19,1.64-1.03,1.64-2c0-1.88,0-3.76,0-5.64
				c0-0.54-0.2-1.01-0.57-1.4c-0.41-0.44-0.91-0.63-1.51-0.63c-1.19,0-2.38,0-3.56,0c-2.43,0-4.85,0-7.28,0
				c-0.6,0-1.11,0.19-1.52,0.63c-0.38,0.4-0.57,0.88-0.58,1.43c-0.01,1.87,0,3.73,0,5.6c0,0.12,0.02,0.25,0.04,0.37
				c0.18,0.97,1.02,1.69,1.99,1.68c1.71-0.01,3.42,0,5.13,0c0.07,0,0.12,0.02,0.17,0.08c0.38,0.46,0.77,0.91,1.15,1.37
				c0.31,0.37,0.63,0.74,0.94,1.11c0.05,0.06,0.11,0.1,0.2,0.07c0.08-0.03,0.12-0.09,0.12-0.18c0-0.03,0-0.05,0-0.07v-1.58v-0.81
				H452.86z"/>
			<path d="M430.76,100.77c0.04-0.17,0.06-0.34,0.11-0.51c0.32-1.05,1-1.74,2.08-2c0.2-0.05,0.41-0.06,0.61-0.06
				c4.19,0,8.38-0.01,12.57,0c1.22,0,2.05,0.61,2.56,1.69c0.16,0.34,0.23,0.69,0.24,1.07c0,0.42,0,0.85,0,1.29h-0.13
				c-1.54,0-3.08,0.01-4.62,0c-1.15-0.01-1.98,0.77-2.21,1.7c-0.05,0.18-0.08,0.37-0.08,0.56c-0.01,1.68,0,3.36,0,5.04
				c0,0.17,0.03,0.34,0.04,0.52h-0.11c-0.91,0-1.82,0-2.73,0c-0.08,0-0.13,0.02-0.18,0.08c-0.95,1.13-1.9,2.26-2.86,3.38
				c-0.07,0.08-0.13,0.17-0.26,0.14s-0.19-0.12-0.19-0.28c0-1.06,0-2.13,0-3.19v-0.14h-0.13c-0.64,0-1.28-0.01-1.92,0
				c-1.33,0.02-2.44-0.94-2.72-2.23c-0.03-0.12-0.04-0.24-0.07-0.36L430.76,100.77L430.76,100.77z"/>
			<path d="M452.86,112.99v0.79v1.58c0,0.02,0,0.05,0,0.07c0,0.09-0.04,0.15-0.12,0.18s-0.14-0.01-0.2-0.07
				c-0.31-0.37-0.63-0.74-0.94-1.11c-0.38-0.45-0.77-0.91-1.15-1.37c-0.05-0.06-0.1-0.08-0.17-0.08c-1.71,0-3.42-0.01-5.13,0
				c-0.97,0.01-1.81-0.72-1.99-1.68c-0.02-0.12-0.04-0.25-0.04-0.37c0-1.87-0.01-3.73,0-5.6c0-0.55,0.2-1.03,0.58-1.43
				c0.41-0.44,0.93-0.63,1.52-0.63c2.43,0,4.85,0,7.28,0c1.19,0,2.38,0,3.56,0c0.6,0,1.1,0.2,1.51,0.63
				c0.37,0.39,0.57,0.87,0.57,1.4c0.01,1.88,0,3.76,0,5.64c0,0.97-0.7,1.81-1.64,2c-0.11,0.02-0.23,0.03-0.35,0.03
				c-1.05,0-2.1,0-3.16,0h-0.13V112.99z"/>
		</g>
	</g>
</g>
</svg>
