<?xml version="1.0" encoding="utf-8"?>
<!-- Generator: Adobe Illustrator 23.0.1, SVG Export Plug-In . SVG Version: 6.00 Build 0)  -->
<svg version="1.1" id="Layer_1" xmlns="http://www.w3.org/2000/svg" xmlns:xlink="http://www.w3.org/1999/xlink" x="0px" y="0px"
	 viewBox="0 0 595.28 841.89" style="enable-background:new 0 0 595.28 841.89;" xml:space="preserve">
<style type="text/css">
	.st0{fill:#CCCCCC;}
	.st1{fill:#231F20;}
	.st2{font-family:'Prompt-Regular';}
	.st3{font-size:28.1911px;}
	.st4{fill:#EEFF00;}
</style>
<rect x="111.74" y="337.09" width="196.58" height="5.86"/>
<rect x="308.31" y="337.37" class="st0" width="191.72" height="5.86"/>
<circle cx="112.37" cy="340.31" r="21.83"/>
<text transform="matrix(1 0 0 1 55.9865 257.5469)" class="st1 st2 st3">Protocol</text>
<path class="st0" d="M122.75,327.92c-0.01-0.58-0.47-1.04-1.05-1.05l-18.73,0c-0.14,0-0.29,0.05-0.42,0.11
	c-0.4,0.21-0.58,0.55-0.58,1c0,2.38,0,4.77,0,7.15c0,5.09,0,10.17,0,15.26c0,0.77,0,1.53,0,2.3c0,0.61,0.54,1.04,1.06,1.04
	c0.64,0,1.28-0.01,1.92-0.01c0.5,0,1,0,1.51,0c0.24,0,0.49,0.02,0.73,0.02c0.65,0,1.3-0.01,1.96-0.02c0.51,0,1.02,0,1.53,0
	c0.23,0,0.47,0.02,0.7,0.02c0.64,0,1.27-0.01,1.91-0.02c0.51,0,1.01,0,1.52,0c0.25,0,0.49,0.02,0.74,0.02
	c0.59,0,1.17-0.01,1.76-0.02c0.62,0,1.24,0,1.86,0c0.23,0,0.46,0.01,0.69,0.01c0.26,0,0.53-0.01,0.79-0.01c0.38,0,0.76,0,1.14-0.01
	c0.12,0,0.24-0.04,0.35-0.09c0.4-0.21,0.61-0.55,0.61-1c0-4.11,0-8.21,0-12.32h0c0-3.54,0-7.08,0-10.63
	C122.75,329.09,122.76,328.51,122.75,327.92 M104.8,332.8c0-0.25,0.15-0.47,0.36-0.55c0.24-0.09,0.5-0.02,0.67,0.2
	c0.21,0.26,0.4,0.53,0.6,0.79c0.14,0.18,0.16,0.19,0.29,0.01c0.43-0.59,0.87-1.16,1.3-1.74c0.11-0.14,0.22-0.28,0.33-0.42
	c0.15-0.2,0.35-0.29,0.59-0.23c0.26,0.06,0.42,0.23,0.46,0.49c0.03,0.17-0.03,0.32-0.14,0.46c-0.37,0.49-0.74,0.98-1.11,1.47
	c-0.34,0.45-0.68,0.91-1.02,1.36c-0.14,0.19-0.3,0.36-0.58,0.34c-0.19-0.01-0.35-0.09-0.46-0.24c-0.4-0.53-0.8-1.05-1.19-1.59
	c-0.07-0.1-0.1-0.23-0.15-0.34C104.78,332.81,104.79,332.8,104.8,332.8 M109.31,346.66c-0.35,0.48-0.72,0.96-1.08,1.44
	c-0.38,0.5-0.76,1.01-1.15,1.51c-0.07,0.1-0.18,0.18-0.29,0.23c-0.24,0.11-0.48,0.05-0.64-0.16c-0.21-0.27-0.42-0.54-0.62-0.81
	c-0.2-0.26-0.41-0.52-0.6-0.8c-0.07-0.1-0.11-0.24-0.16-0.36c0.01,0,0.02-0.01,0.03-0.01c0-0.25,0.13-0.45,0.33-0.54
	c0.26-0.11,0.48-0.07,0.67,0.13c0.07,0.08,0.14,0.17,0.21,0.25c0.16,0.21,0.32,0.42,0.49,0.64c0.08,0.1,0.11,0.11,0.19,0
	c0.22-0.29,0.45-0.59,0.67-0.88c0.34-0.45,0.68-0.9,1.02-1.35c0.2-0.26,0.55-0.3,0.81-0.11C109.44,346.05,109.5,346.4,109.31,346.66
	 M109.31,341.71c-0.38,0.52-0.77,1.04-1.16,1.56c-0.33,0.44-0.66,0.89-1,1.33c-0.09,0.12-0.22,0.22-0.35,0.31
	c-0.05,0.04-0.14,0.04-0.2,0.06c-0.15,0-0.28-0.06-0.37-0.16c-0.16-0.17-0.31-0.36-0.45-0.54c-0.29-0.38-0.57-0.76-0.85-1.14
	c-0.15-0.2-0.17-0.5-0.04-0.68c0.16-0.23,0.41-0.33,0.67-0.23c0.11,0.04,0.22,0.13,0.3,0.22c0.19,0.23,0.36,0.48,0.54,0.72
	c0.02,0.02,0.03,0.05,0.05,0.07c0.13,0.17,0.14,0.17,0.27,0c0.54-0.72,1.09-1.43,1.62-2.15c0.17-0.23,0.4-0.28,0.66-0.23
	c0.22,0.05,0.36,0.21,0.41,0.44C109.45,341.44,109.41,341.59,109.31,341.71 M109.28,336.85c-0.74,0.97-1.47,1.94-2.21,2.91
	c-0.21,0.27-0.55,0.34-0.8,0.16c-0.08-0.06-0.14-0.13-0.2-0.21c-0.34-0.45-0.69-0.9-1.02-1.36c-0.12-0.16-0.23-0.32-0.23-0.55
	c-0.01-0.3,0.31-0.6,0.57-0.56c0.24-0.01,0.4,0.12,0.53,0.3c0.2,0.27,0.4,0.53,0.6,0.79c0.08,0.1,0.1,0.09,0.18-0.01
	c0.41-0.55,0.83-1.1,1.24-1.65c0.14-0.19,0.28-0.38,0.43-0.57c0.15-0.2,0.36-0.29,0.6-0.23c0.26,0.06,0.41,0.24,0.46,0.5
	C109.45,336.56,109.38,336.71,109.28,336.85 M110.44,333.27c0.03-0.41,0.28-0.68,0.67-0.81c0.09-0.03,0.18-0.02,0.28-0.02
	c1.29,0,2.58,0,3.87,0c1.28,0,2.57,0.01,3.85-0.01c0.45-0.01,0.87,0.35,0.94,0.81c0.06,0.37-0.23,0.84-0.6,0.96
	c-0.12,0.04-0.25,0.07-0.38,0.07c-2.53,0-5.07,0-7.6,0c-0.22,0-0.43-0.03-0.61-0.15C110.55,333.91,110.41,333.62,110.44,333.27
	 M111.01,337.54c0.11-0.04,0.24-0.06,0.35-0.06c1.3,0,2.59,0,3.89,0v0c1.3,0,2.59,0.01,3.89,0c0.55,0,0.92,0.52,0.9,0.95
	c-0.02,0.47-0.43,0.88-0.91,0.88c-2.42,0-4.85,0-7.27,0c-0.18,0-0.36-0.01-0.53,0c-0.39,0.02-0.84-0.31-0.9-0.82
	C110.39,338.11,110.63,337.67,111.01,337.54 M119.19,344.33c-0.84,0.01-1.68,0.01-2.52,0.01c-0.49,0-0.97,0-1.46,0v0
	c-1.28,0-2.55-0.01-3.83,0c-0.48,0.01-0.84-0.35-0.91-0.66c-0.11-0.46,0.07-0.86,0.49-1.08c0.09-0.04,0.19-0.08,0.29-0.08
	c0.45-0.01,0.89-0.01,1.34-0.01c0.21,0,0.41-0.01,0.62-0.02c0.62,0,1.25,0,1.87,0c0.38,0,0.76,0,1.14,0c0.67,0,1.34,0.02,2.02,0.02
	c0.27,0,0.54-0.02,0.81-0.02c0.39,0.01,0.7,0.17,0.9,0.52C120.25,343.58,119.83,344.32,119.19,344.33 M119.52,349.29
	c-0.21,0.08-0.44,0.09-0.66,0.13c0-0.02,0-0.03-0.01-0.05c-0.59,0-1.17,0-1.76,0c-0.31,0-0.62,0.02-0.94,0.02
	c-0.62,0-1.24-0.01-1.86-0.02c-0.23,0-0.46,0.02-0.69,0.02c-0.47,0-0.93,0-1.4,0c-0.3,0-0.6-0.02-0.9-0.02
	c-0.4,0.01-0.74-0.32-0.84-0.68c-0.15-0.53,0.22-1.07,0.76-1.15c0.09-0.01,0.18-0.03,0.27-0.02c0.56,0,1.12,0.01,1.69,0.02
	c0.21,0,0.43-0.02,0.64-0.02c0.57,0,1.15,0,1.72,0h1.21c0.53,0,1.05,0,1.58,0c0.28,0,0.56,0.01,0.84,0.02
	c0.42,0.02,0.78,0.36,0.87,0.79C120.11,348.69,119.87,349.15,119.52,349.29"/>
<circle cx="306.41" cy="340.31" r="46.26"/>
<text transform="matrix(1 0 0 1 265.7128 257.5469)" class="st1 st2 st3">Status</text>
<g>
	<g>
		<polygon class="st4" points="277.1,335.45 285.94,343.95 303.63,326.78 308.31,331.64 286.12,353.83 272.42,340.31 		"/>
		<polygon class="st4" points="317.21,326.78 326.72,336.29 336.23,326.78 340.4,330.79 331.03,340.21 340.4,349.82 336.23,353.83 
			326.72,344.32 317.21,353.83 313.34,349.67 322.71,340.31 313.34,331.09 		"/>
	</g>
</g>
<circle class="st0" cx="500.44" cy="340.31" r="21.83"/>
<text transform="matrix(1 0 0 1 469.252 257.5469)" class="st1 st2 st3">Chat</text>
<g>
	<g>
		<g>
			<path d="M508.85,346.38h0.14c1.05,0,2.1,0,3.16,0c0.12,0,0.24-0.01,0.35-0.03c0.95-0.19,1.64-1.03,1.64-2c0-1.88,0-3.76,0-5.64
				c0-0.54-0.2-1.01-0.57-1.4c-0.41-0.44-0.91-0.63-1.51-0.63c-1.19,0-2.38,0-3.56,0c-2.43,0-4.85,0-7.28,0
				c-0.6,0-1.11,0.19-1.52,0.63c-0.38,0.4-0.57,0.88-0.58,1.43c-0.01,1.87,0,3.73,0,5.6c0,0.12,0.02,0.25,0.04,0.37
				c0.18,0.97,1.02,1.69,1.99,1.68c1.71-0.01,3.42,0,5.13,0c0.07,0,0.12,0.02,0.17,0.08c0.38,0.46,0.77,0.91,1.15,1.37
				c0.31,0.37,0.63,0.74,0.94,1.11c0.05,0.06,0.11,0.1,0.2,0.07c0.08-0.03,0.12-0.09,0.12-0.18c0-0.03,0-0.05,0-0.07v-1.58V346.38z"
				/>
			<path d="M486.75,334.16c0.04-0.17,0.06-0.34,0.11-0.51c0.32-1.05,1-1.74,2.08-2c0.2-0.05,0.41-0.06,0.61-0.06
				c4.19,0,8.38-0.01,12.57,0c1.22,0,2.05,0.61,2.56,1.69c0.16,0.34,0.23,0.69,0.24,1.07c0,0.42,0,0.85,0,1.29h-0.13
				c-1.54,0-3.08,0.01-4.62,0c-1.15-0.01-1.98,0.77-2.21,1.7c-0.05,0.18-0.08,0.37-0.08,0.56c-0.01,1.68,0,3.36,0,5.04
				c0,0.17,0.03,0.34,0.04,0.52h-0.11c-0.91,0-1.82,0-2.73,0c-0.08,0-0.13,0.02-0.18,0.08c-0.95,1.13-1.9,2.26-2.86,3.38
				c-0.07,0.08-0.13,0.17-0.26,0.14c-0.13-0.03-0.19-0.12-0.19-0.28c0-1.06,0-2.13,0-3.19v-0.14h-0.13c-0.64,0-1.28-0.01-1.92,0
				c-1.33,0.02-2.44-0.94-2.72-2.23c-0.03-0.12-0.04-0.24-0.07-0.36V334.16z"/>
			<path d="M508.85,346.38v0.79v1.58c0,0.02,0,0.05,0,0.07c0,0.09-0.04,0.15-0.12,0.18c-0.08,0.03-0.14-0.01-0.2-0.07
				c-0.31-0.37-0.63-0.74-0.94-1.11c-0.38-0.45-0.77-0.91-1.15-1.37c-0.05-0.06-0.1-0.08-0.17-0.08c-1.71,0-3.42-0.01-5.13,0
				c-0.97,0.01-1.81-0.72-1.99-1.68c-0.02-0.12-0.04-0.25-0.04-0.37c0-1.87-0.01-3.73,0-5.6c0-0.55,0.2-1.03,0.58-1.43
				c0.41-0.44,0.93-0.63,1.52-0.63c2.43,0,4.85,0,7.28,0c1.19,0,2.38,0,3.56,0c0.6,0,1.1,0.2,1.51,0.63
				c0.37,0.39,0.57,0.87,0.57,1.4c0.01,1.88,0,3.76,0,5.64c0,0.97-0.7,1.81-1.64,2c-0.11,0.02-0.23,0.03-0.35,0.03
				c-1.05,0-2.1,0-3.16,0H508.85z"/>
		</g>
	</g>
</g>
</svg>
