<?xml version="1.0" encoding="utf-8"?>
<!-- Generator: Adobe Illustrator 23.0.1, SVG Export Plug-In . SVG Version: 6.00 Build 0)  -->
<svg version="1.1" id="Layer_1" xmlns="http://www.w3.org/2000/svg" xmlns:xlink="http://www.w3.org/1999/xlink" x="0px" y="0px"
	 viewBox="0 0 475.65 153.18" style="enable-background:new 0 0 475.65 153.18;" xml:space="preserve">
<style type="text/css">
	.st0{fill:#CCCCCC;}
	.st1{enable-background:new    ;}
	.st2{fill:#231F20;}
	.st3{fill:#EEFF00;}
</style>
<rect x="55.75" y="103.7" width="196.58" height="5.86"/>
<rect x="252.32" y="103.98" class="st0" width="191.72" height="5.86"/>
<ellipse transform="matrix(0.9951 -0.0985 0.0985 0.9951 -10.2615 6.0763)" cx="56.38" cy="106.92" rx="21.83" ry="21.83"/>
<g class="st1">
	<path class="st2" d="M1.69,4.45h7.89c2.16,0,3.9,0.57,5.2,1.72c1.31,1.15,1.96,2.72,1.96,4.71c0,2.07-0.65,3.64-1.95,4.72
		s-3.04,1.62-5.24,1.62H5.27v6.93H1.69V4.45z M9.13,14.26c2.69,0,4.03-1.13,4.03-3.38c0-2.31-1.34-3.47-4.03-3.47H5.27v6.85H9.13z"
		/>
	<path class="st2" d="M19,10.63h3.44v2.17c0.54-0.73,1.32-1.28,2.33-1.63c1.01-0.36,2.16-0.54,3.45-0.54v2.71
		c-1.37,0-2.56,0.21-3.57,0.63s-1.71,1.09-2.1,1.99v8.2H19V10.63z"/>
	<path class="st2" d="M33.25,23.72c-1.19-0.57-2.12-1.4-2.78-2.48c-0.66-1.08-0.99-2.36-0.99-3.85c0-1.45,0.32-2.71,0.97-3.79
		c0.65-1.08,1.57-1.92,2.78-2.51s2.59-0.89,4.17-0.89s2.96,0.3,4.16,0.89c1.19,0.59,2.12,1.43,2.78,2.51
		c0.66,1.08,0.99,2.34,0.99,3.79c0,1.48-0.33,2.77-0.99,3.85c-0.66,1.08-1.58,1.91-2.78,2.48c-1.19,0.57-2.58,0.86-4.16,0.86
		S34.44,24.29,33.25,23.72z M40.51,20.56c0.77-0.82,1.16-1.87,1.16-3.17c0-1.37-0.38-2.45-1.14-3.23c-0.76-0.78-1.8-1.17-3.12-1.17
		c-1.32,0-2.35,0.39-3.12,1.17c-0.76,0.78-1.14,1.86-1.14,3.23c0,1.3,0.38,2.35,1.16,3.17c0.77,0.82,1.8,1.23,3.1,1.23
		S39.74,21.38,40.51,20.56z"/>
	<path class="st2" d="M49.79,23.34c-0.77-0.83-1.16-1.99-1.16-3.5v-6.51H46.6v-2.71h2.03V6.57h3.55v4.06h3.24v2.71h-3.24v6.06
		c0,0.87,0.16,1.48,0.48,1.85c0.32,0.37,0.9,0.55,1.75,0.55c0.58,0,1.16-0.13,1.72-0.39v2.71c-0.81,0.32-1.79,0.48-2.96,0.48
		C51.68,24.58,50.56,24.17,49.79,23.34z"/>
	<path class="st2" d="M61.72,23.72c-1.19-0.57-2.12-1.4-2.78-2.48c-0.66-1.08-0.99-2.36-0.99-3.85c0-1.45,0.32-2.71,0.97-3.79
		c0.65-1.08,1.57-1.92,2.78-2.51s2.59-0.89,4.17-0.89s2.96,0.3,4.16,0.89c1.19,0.59,2.12,1.43,2.78,2.51
		c0.66,1.08,0.99,2.34,0.99,3.79c0,1.48-0.33,2.77-0.99,3.85c-0.66,1.08-1.58,1.91-2.78,2.48c-1.19,0.57-2.58,0.86-4.16,0.86
		S62.92,24.29,61.72,23.72z M68.98,20.56c0.77-0.82,1.16-1.87,1.16-3.17c0-1.37-0.38-2.45-1.14-3.23C68.24,13.39,67.2,13,65.88,13
		c-1.32,0-2.35,0.39-3.12,1.17c-0.76,0.78-1.14,1.86-1.14,3.23c0,1.3,0.38,2.35,1.16,3.17c0.77,0.82,1.8,1.23,3.1,1.23
		S68.21,21.38,68.98,20.56z"/>
	<path class="st2" d="M79.4,23.74c-1.19-0.56-2.12-1.38-2.78-2.45c-0.66-1.07-0.99-2.36-0.99-3.86s0.33-2.8,1-3.88
		c0.67-1.08,1.6-1.91,2.79-2.48c1.19-0.57,2.59-0.86,4.19-0.86c2.1,0,3.79,0.41,5.05,1.24v2.85c-1.22-0.86-2.78-1.3-4.68-1.3
		c-1.45,0-2.6,0.36-3.45,1.09c-0.86,0.72-1.28,1.84-1.28,3.34c0,1.48,0.43,2.58,1.28,3.3c0.85,0.71,1.99,1.07,3.4,1.07
		c1.9,0,3.53-0.45,4.91-1.35v2.82c-0.68,0.45-1.44,0.79-2.3,1c-0.86,0.22-1.85,0.32-2.97,0.32C81.98,24.58,80.59,24.3,79.4,23.74z"
		/>
	<path class="st2" d="M94.43,23.72c-1.19-0.57-2.12-1.4-2.78-2.48c-0.66-1.08-0.99-2.36-0.99-3.85c0-1.45,0.32-2.71,0.97-3.79
		c0.65-1.08,1.57-1.92,2.78-2.51S97,10.2,98.58,10.2s2.96,0.3,4.16,0.89c1.19,0.59,2.12,1.43,2.78,2.51
		c0.66,1.08,0.99,2.34,0.99,3.79c0,1.48-0.33,2.77-0.99,3.85c-0.66,1.08-1.58,1.91-2.78,2.48c-1.19,0.57-2.58,0.86-4.16,0.86
		S95.62,24.29,94.43,23.72z M101.68,20.56c0.77-0.82,1.16-1.87,1.16-3.17c0-1.37-0.38-2.45-1.14-3.23c-0.76-0.78-1.8-1.17-3.12-1.17
		c-1.32,0-2.35,0.39-3.12,1.17c-0.76,0.78-1.14,1.86-1.14,3.23c0,1.3,0.38,2.35,1.16,3.17c0.77,0.82,1.8,1.23,3.1,1.23
		S100.91,21.38,101.68,20.56z"/>
	<path class="st2" d="M109.32,3.33h3.55v20.83h-3.55V3.33z"/>
</g>
<path class="st0" d="M66.76,94.53c-0.01-0.58-0.47-1.04-1.05-1.05H46.98c-0.14,0-0.29,0.05-0.42,0.11c-0.4,0.21-0.58,0.55-0.58,1
	c0,2.38,0,4.77,0,7.15c0,5.09,0,10.17,0,15.26c0,0.77,0,1.53,0,2.3c0,0.61,0.54,1.04,1.06,1.04c0.64,0,1.28-0.01,1.92-0.01
	c0.5,0,1,0,1.51,0c0.24,0,0.49,0.02,0.73,0.02c0.65,0,1.3-0.01,1.96-0.02c0.51,0,1.02,0,1.53,0c0.23,0,0.47,0.02,0.7,0.02
	c0.64,0,1.27-0.01,1.91-0.02c0.51,0,1.01,0,1.52,0c0.25,0,0.49,0.02,0.74,0.02c0.59,0,1.17-0.01,1.76-0.02c0.62,0,1.24,0,1.86,0
	c0.23,0,0.46,0.01,0.69,0.01c0.26,0,0.53-0.01,0.79-0.01c0.38,0,0.76,0,1.14-0.01c0.12,0,0.24-0.04,0.35-0.09
	c0.4-0.21,0.61-0.55,0.61-1c0-4.11,0-8.21,0-12.32l0,0c0-3.54,0-7.08,0-10.63C66.76,95.7,66.77,95.12,66.76,94.53 M48.81,99.41
	c0-0.25,0.15-0.47,0.36-0.55c0.24-0.09,0.5-0.02,0.67,0.2c0.21,0.26,0.4,0.53,0.6,0.79c0.14,0.18,0.16,0.19,0.29,0.01
	c0.43-0.59,0.87-1.16,1.3-1.74c0.11-0.14,0.22-0.28,0.33-0.42c0.15-0.2,0.35-0.29,0.59-0.23c0.26,0.06,0.42,0.23,0.46,0.49
	c0.03,0.17-0.03,0.32-0.14,0.46c-0.37,0.49-0.74,0.98-1.11,1.47c-0.34,0.45-0.68,0.91-1.02,1.36c-0.14,0.19-0.3,0.36-0.58,0.34
	c-0.19-0.01-0.35-0.09-0.46-0.24c-0.4-0.53-0.8-1.05-1.19-1.59c-0.07-0.1-0.1-0.23-0.15-0.34C48.79,99.42,48.8,99.41,48.81,99.41
	 M53.32,113.27c-0.35,0.48-0.72,0.96-1.08,1.44c-0.38,0.5-0.76,1.01-1.15,1.51c-0.07,0.1-0.18,0.18-0.29,0.23
	c-0.24,0.11-0.48,0.05-0.64-0.16c-0.21-0.27-0.42-0.54-0.62-0.81c-0.2-0.26-0.41-0.52-0.6-0.8c-0.07-0.1-0.11-0.24-0.16-0.36
	c0.01,0,0.02-0.01,0.03-0.01c0-0.25,0.13-0.45,0.33-0.54c0.26-0.11,0.48-0.07,0.67,0.13c0.07,0.08,0.14,0.17,0.21,0.25
	c0.16,0.21,0.32,0.42,0.49,0.64c0.08,0.1,0.11,0.11,0.19,0c0.22-0.29,0.45-0.59,0.67-0.88c0.34-0.45,0.68-0.9,1.02-1.35
	c0.2-0.26,0.55-0.3,0.81-0.11C53.45,112.66,53.51,113.01,53.32,113.27 M53.32,108.32c-0.38,0.52-0.77,1.04-1.16,1.56
	c-0.33,0.44-0.66,0.89-1,1.33c-0.09,0.12-0.22,0.22-0.35,0.31c-0.05,0.04-0.14,0.04-0.2,0.06c-0.15,0-0.28-0.06-0.37-0.16
	c-0.16-0.17-0.31-0.36-0.45-0.54c-0.29-0.38-0.57-0.76-0.85-1.14c-0.15-0.2-0.17-0.5-0.04-0.68c0.16-0.23,0.41-0.33,0.67-0.23
	c0.11,0.04,0.22,0.13,0.3,0.22c0.19,0.23,0.36,0.48,0.54,0.72c0.02,0.02,0.03,0.05,0.05,0.07c0.13,0.17,0.14,0.17,0.27,0
	c0.54-0.72,1.09-1.43,1.62-2.15c0.17-0.23,0.4-0.28,0.66-0.23c0.22,0.05,0.36,0.21,0.41,0.44C53.46,108.05,53.42,108.2,53.32,108.32
	 M53.29,103.46c-0.74,0.97-1.47,1.94-2.21,2.91c-0.21,0.27-0.55,0.34-0.8,0.16c-0.08-0.06-0.14-0.13-0.2-0.21
	c-0.34-0.45-0.69-0.9-1.02-1.36c-0.12-0.16-0.23-0.32-0.23-0.55c-0.01-0.3,0.31-0.6,0.57-0.56c0.24-0.01,0.4,0.12,0.53,0.3
	c0.2,0.27,0.4,0.53,0.6,0.79c0.08,0.1,0.1,0.09,0.18-0.01c0.41-0.55,0.83-1.1,1.24-1.65c0.14-0.19,0.28-0.38,0.43-0.57
	c0.15-0.2,0.36-0.29,0.6-0.23c0.26,0.06,0.41,0.24,0.46,0.5C53.46,103.17,53.39,103.32,53.29,103.46 M54.45,99.88
	c0.03-0.41,0.28-0.68,0.67-0.81c0.09-0.03,0.18-0.02,0.28-0.02c1.29,0,2.58,0,3.87,0c1.28,0,2.57,0.01,3.85-0.01
	c0.45-0.01,0.87,0.35,0.94,0.81c0.06,0.37-0.23,0.84-0.6,0.96c-0.12,0.04-0.25,0.07-0.38,0.07c-2.53,0-5.07,0-7.6,0
	c-0.22,0-0.43-0.03-0.61-0.15C54.56,100.52,54.42,100.23,54.45,99.88 M55.02,104.15c0.11-0.04,0.24-0.06,0.35-0.06
	c1.3,0,2.59,0,3.89,0l0,0c1.3,0,2.59,0.01,3.89,0c0.55,0,0.92,0.52,0.9,0.95c-0.02,0.47-0.43,0.88-0.91,0.88c-2.42,0-4.85,0-7.27,0
	c-0.18,0-0.36-0.01-0.53,0c-0.39,0.02-0.84-0.31-0.9-0.82C54.4,104.72,54.64,104.28,55.02,104.15 M63.2,110.94
	c-0.84,0.01-1.68,0.01-2.52,0.01c-0.49,0-0.97,0-1.46,0l0,0c-1.28,0-2.55-0.01-3.83,0c-0.48,0.01-0.84-0.35-0.91-0.66
	c-0.11-0.46,0.07-0.86,0.49-1.08c0.09-0.04,0.19-0.08,0.29-0.08c0.45-0.01,0.89-0.01,1.34-0.01c0.21,0,0.41-0.01,0.62-0.02
	c0.62,0,1.25,0,1.87,0c0.38,0,0.76,0,1.14,0c0.67,0,1.34,0.02,2.02,0.02c0.27,0,0.54-0.02,0.81-0.02c0.39,0.01,0.7,0.17,0.9,0.52
	C64.26,110.19,63.84,110.93,63.2,110.94 M63.53,115.9c-0.21,0.08-0.44,0.09-0.66,0.13c0-0.02,0-0.03-0.01-0.05
	c-0.59,0-1.17,0-1.76,0c-0.31,0-0.62,0.02-0.94,0.02c-0.62,0-1.24-0.01-1.86-0.02c-0.23,0-0.46,0.02-0.69,0.02c-0.47,0-0.93,0-1.4,0
	c-0.3,0-0.6-0.02-0.9-0.02c-0.4,0.01-0.74-0.32-0.84-0.68c-0.15-0.53,0.22-1.07,0.76-1.15c0.09-0.01,0.18-0.03,0.27-0.02
	c0.56,0,1.12,0.01,1.69,0.02c0.21,0,0.43-0.02,0.64-0.02c0.57,0,1.15,0,1.72,0h1.21c0.53,0,1.05,0,1.58,0
	c0.28,0,0.56,0.01,0.84,0.02c0.42,0.02,0.78,0.36,0.87,0.79C64.12,115.3,63.88,115.76,63.53,115.9"/>
<circle cx="250.42" cy="106.92" r="46.26"/>
<g class="st1">
	<path class="st2" d="M213.66,24.26c-1.14-0.22-2.07-0.5-2.81-0.86v-3.07c0.94,0.45,1.93,0.79,2.96,1.01
		c1.03,0.23,2.05,0.34,3.04,0.34c1.26,0,2.22-0.24,2.88-0.71c0.66-0.47,0.99-1.12,0.99-1.95c0-0.58-0.15-1.07-0.45-1.45
		c-0.3-0.38-0.74-0.72-1.33-1.01c-0.58-0.29-1.48-0.67-2.68-1.14c-1.84-0.75-3.18-1.59-4-2.51c-0.83-0.92-1.24-2.07-1.24-3.44
		c0-1.07,0.29-2.02,0.87-2.85c0.58-0.83,1.4-1.47,2.45-1.92c1.05-0.45,2.26-0.68,3.64-0.68c1.13,0,2.13,0.09,3,0.27
		s1.73,0.46,2.58,0.83v2.99c-1.64-0.79-3.29-1.18-4.96-1.18c-1.2,0-2.13,0.22-2.79,0.66c-0.66,0.44-0.99,1.07-0.99,1.88
		c0,0.58,0.15,1.06,0.45,1.42c0.3,0.37,0.7,0.68,1.2,0.93c0.5,0.25,1.4,0.65,2.69,1.2c1.32,0.55,2.35,1.08,3.12,1.61
		s1.33,1.14,1.72,1.85c0.38,0.7,0.58,1.56,0.58,2.58c0,1.75-0.63,3.11-1.89,4.07c-1.26,0.97-3.12,1.45-5.58,1.45
		C215.95,24.58,214.8,24.47,213.66,24.26z"/>
	<path class="st2" d="M228.47,23.34c-0.77-0.83-1.16-1.99-1.16-3.5v-6.51h-2.03v-2.71h2.03V6.57h3.55v4.06h3.24v2.71h-3.24v6.06
		c0,0.87,0.16,1.48,0.48,1.85c0.32,0.37,0.9,0.55,1.75,0.55c0.58,0,1.16-0.13,1.72-0.39v2.71c-0.81,0.32-1.79,0.48-2.96,0.48
		C230.37,24.58,229.24,24.17,228.47,23.34z"/>
	<path class="st2" d="M237.92,23.3c-1.03-0.86-1.55-2.01-1.55-3.45c0-1.5,0.49-2.68,1.47-3.52c0.98-0.85,2.35-1.27,4.12-1.27
		c1.71,0,3.19,0.35,4.43,1.04v-0.37c0-0.96-0.3-1.65-0.89-2.09c-0.59-0.43-1.55-0.65-2.86-0.65c-0.83,0-1.64,0.08-2.45,0.24
		c-0.81,0.16-1.52,0.38-2.14,0.66v-2.79c0.56-0.26,1.32-0.48,2.27-0.65c0.95-0.17,1.86-0.25,2.75-0.25c2.35,0,4.09,0.5,5.22,1.51
		c1.13,1.01,1.69,2.4,1.69,4.19v8.26h-3.36v-1.33c-0.58,0.56-1.25,1-1.99,1.3c-0.74,0.3-1.65,0.45-2.72,0.45
		C240.28,24.58,238.95,24.15,237.92,23.3z M244.91,21.52c0.64-0.31,1.13-0.74,1.47-1.28v-1.49c-1.03-0.73-2.22-1.1-3.55-1.1
		c-1.9,0-2.85,0.73-2.85,2.2c0,0.71,0.24,1.25,0.72,1.61c0.48,0.36,1.17,0.54,2.07,0.54C243.56,21.99,244.27,21.83,244.91,21.52z"/>
	<path class="st2" d="M254.55,23.34c-0.77-0.83-1.16-1.99-1.16-3.5v-6.51h-2.03v-2.71h2.03V6.57h3.55v4.06h3.24v2.71h-3.24v6.06
		c0,0.87,0.16,1.48,0.48,1.85c0.32,0.37,0.9,0.55,1.75,0.55c0.58,0,1.16-0.13,1.72-0.39v2.71c-0.81,0.32-1.79,0.48-2.96,0.48
		C256.45,24.58,255.32,24.17,254.55,23.34z"/>
	<path class="st2" d="M264.5,23.1c-0.9-0.99-1.35-2.3-1.35-3.93v-8.54h3.55v8.2c0,1.97,0.92,2.96,2.76,2.96
		c0.81,0,1.57-0.19,2.28-0.58c0.71-0.38,1.32-0.96,1.8-1.73v-8.85h3.55v13.53h-3.44v-1.83c-0.64,0.77-1.4,1.34-2.28,1.71
		c-0.88,0.37-1.81,0.55-2.79,0.55C266.77,24.58,265.4,24.09,264.5,23.1z"/>
	<path class="st2" d="M282.63,24.24c-1.11-0.23-1.97-0.54-2.59-0.93V20.3c0.73,0.45,1.61,0.81,2.62,1.09
		c1.01,0.27,1.97,0.41,2.88,0.41s1.56-0.08,1.97-0.24c0.41-0.16,0.62-0.46,0.62-0.89c0-0.34-0.11-0.62-0.32-0.83
		s-0.56-0.41-1.04-0.59s-1.22-0.4-2.21-0.66c-1.13-0.32-2.02-0.65-2.66-0.99c-0.65-0.34-1.14-0.77-1.47-1.28
		c-0.33-0.52-0.49-1.19-0.49-2.02c0-1.35,0.54-2.37,1.61-3.06c1.07-0.69,2.52-1.03,4.34-1.03c0.94,0,1.87,0.09,2.8,0.27
		s1.66,0.43,2.18,0.75v2.9c-0.56-0.34-1.25-0.61-2.06-0.82c-0.81-0.21-1.64-0.31-2.48-0.31c-0.92,0-1.62,0.09-2.09,0.27
		s-0.7,0.52-0.7,1.03c0,0.34,0.13,0.61,0.38,0.8s0.59,0.37,1,0.51c0.41,0.14,1.17,0.35,2.25,0.63c1.17,0.32,2.08,0.67,2.74,1.04
		c0.66,0.38,1.13,0.83,1.41,1.35s0.42,1.18,0.42,1.97c0,1.2-0.51,2.17-1.54,2.89c-1.02,0.72-2.5,1.08-4.44,1.08
		C284.78,24.58,283.74,24.47,282.63,24.24z"/>
</g>
<g>
	<g>
		<polygon class="st3" points="221.11,102.06 229.95,110.56 247.64,93.39 252.32,98.25 230.13,120.44 216.43,106.92 		"/>
		<polygon class="st3" points="261.22,93.39 270.73,102.9 280.24,93.39 284.41,97.4 275.04,106.82 284.41,116.43 280.24,120.44 
			270.73,110.93 261.22,120.44 257.35,116.28 266.72,106.92 257.35,97.7 		"/>
	</g>
</g>
<ellipse transform="matrix(0.1602 -0.9871 0.9871 0.1602 267.7186 528.5098)" class="st0" cx="444.45" cy="106.92" rx="21.83" ry="21.83"/>
<g class="st1">
	<path class="st2" d="M419.44,23.33c-1.6-0.84-2.84-2.03-3.72-3.58c-0.88-1.55-1.33-3.36-1.33-5.43s0.44-3.88,1.33-5.43
		c0.88-1.55,2.12-2.75,3.72-3.59c1.6-0.85,3.43-1.27,5.5-1.27c2.73,0,5,0.65,6.82,1.95v3.41c-1.63-1.39-3.81-2.09-6.51-2.09
		c-1.45,0-2.72,0.29-3.81,0.86s-1.94,1.39-2.54,2.44c-0.6,1.05-0.9,2.29-0.9,3.72c0,1.43,0.31,2.67,0.92,3.72s1.46,1.87,2.55,2.44
		c1.09,0.57,2.35,0.86,3.78,0.86c1.39,0,2.63-0.17,3.72-0.52c1.09-0.35,2.09-0.91,3.02-1.68v3.41c-1.73,1.35-4.08,2.03-7.05,2.03
		C422.87,24.58,421.04,24.16,419.44,23.33z"/>
	<path class="st2" d="M434.8,3.33h3.55v9.02c1.28-1.43,2.93-2.14,4.96-2.14c1.82,0,3.19,0.49,4.09,1.48c0.9,0.99,1.35,2.3,1.35,3.93
		v8.54h-3.55v-8.2c0-1.97-0.92-2.96-2.76-2.96c-0.81,0-1.57,0.19-2.28,0.58c-0.71,0.39-1.32,0.96-1.8,1.73v8.85h-3.55V3.33z"/>
	<path class="st2" d="M452.56,23.3c-1.03-0.86-1.55-2.01-1.55-3.45c0-1.5,0.49-2.68,1.47-3.52c0.98-0.85,2.35-1.27,4.12-1.27
		c1.71,0,3.19,0.35,4.43,1.04v-0.37c0-0.96-0.3-1.65-0.89-2.09c-0.59-0.43-1.55-0.65-2.86-0.65c-0.83,0-1.64,0.08-2.45,0.24
		c-0.81,0.16-1.52,0.38-2.14,0.66v-2.79c0.56-0.26,1.32-0.48,2.27-0.65c0.95-0.17,1.87-0.25,2.75-0.25c2.35,0,4.09,0.5,5.22,1.51
		c1.13,1.01,1.69,2.4,1.69,4.19v8.26h-3.36v-1.33c-0.58,0.56-1.25,1-1.99,1.3c-0.74,0.3-1.65,0.45-2.72,0.45
		C454.92,24.58,453.6,24.15,452.56,23.3z M459.55,21.52c0.64-0.31,1.13-0.74,1.47-1.28v-1.49c-1.03-0.73-2.22-1.1-3.55-1.1
		c-1.9,0-2.85,0.73-2.85,2.2c0,0.71,0.24,1.25,0.72,1.61c0.48,0.36,1.17,0.54,2.07,0.54C458.2,21.99,458.92,21.83,459.55,21.52z"/>
	<path class="st2" d="M469.2,23.34c-0.77-0.83-1.16-1.99-1.16-3.5v-6.51h-2.03v-2.71h2.03V6.57h3.55v4.06h3.24v2.71h-3.24v6.06
		c0,0.87,0.16,1.48,0.48,1.85c0.32,0.37,0.9,0.55,1.75,0.55c0.58,0,1.16-0.13,1.72-0.39v2.71c-0.81,0.32-1.79,0.48-2.96,0.48
		C471.09,24.58,469.97,24.17,469.2,23.34z"/>
</g>
<g>
	<g>
		<g>
			<path d="M452.86,112.99H453c1.05,0,2.1,0,3.16,0c0.12,0,0.24-0.01,0.35-0.03c0.95-0.19,1.64-1.03,1.64-2c0-1.88,0-3.76,0-5.64
				c0-0.54-0.2-1.01-0.57-1.4c-0.41-0.44-0.91-0.63-1.51-0.63c-1.19,0-2.38,0-3.56,0c-2.43,0-4.85,0-7.28,0
				c-0.6,0-1.11,0.19-1.52,0.63c-0.38,0.4-0.57,0.88-0.58,1.43c-0.01,1.87,0,3.73,0,5.6c0,0.12,0.02,0.25,0.04,0.37
				c0.18,0.97,1.02,1.69,1.99,1.68c1.71-0.01,3.42,0,5.13,0c0.07,0,0.12,0.02,0.17,0.08c0.38,0.46,0.77,0.91,1.15,1.37
				c0.31,0.37,0.63,0.74,0.94,1.11c0.05,0.06,0.11,0.1,0.2,0.07c0.08-0.03,0.12-0.09,0.12-0.18c0-0.03,0-0.05,0-0.07v-1.58v-0.81
				H452.86z"/>
			<path d="M430.76,100.77c0.04-0.17,0.06-0.34,0.11-0.51c0.32-1.05,1-1.74,2.08-2c0.2-0.05,0.41-0.06,0.61-0.06
				c4.19,0,8.38-0.01,12.57,0c1.22,0,2.05,0.61,2.56,1.69c0.16,0.34,0.23,0.69,0.24,1.07c0,0.42,0,0.85,0,1.29h-0.13
				c-1.54,0-3.08,0.01-4.62,0c-1.15-0.01-1.98,0.77-2.21,1.7c-0.05,0.18-0.08,0.37-0.08,0.56c-0.01,1.68,0,3.36,0,5.04
				c0,0.17,0.03,0.34,0.04,0.52h-0.11c-0.91,0-1.82,0-2.73,0c-0.08,0-0.13,0.02-0.18,0.08c-0.95,1.13-1.9,2.26-2.86,3.38
				c-0.07,0.08-0.13,0.17-0.26,0.14s-0.19-0.12-0.19-0.28c0-1.06,0-2.13,0-3.19v-0.14h-0.13c-0.64,0-1.28-0.01-1.92,0
				c-1.33,0.02-2.44-0.94-2.72-2.23c-0.03-0.12-0.04-0.24-0.07-0.36L430.76,100.77L430.76,100.77z"/>
			<path d="M452.86,112.99v0.79v1.58c0,0.02,0,0.05,0,0.07c0,0.09-0.04,0.15-0.12,0.18s-0.14-0.01-0.2-0.07
				c-0.31-0.37-0.63-0.74-0.94-1.11c-0.38-0.45-0.77-0.91-1.15-1.37c-0.05-0.06-0.1-0.08-0.17-0.08c-1.71,0-3.42-0.01-5.13,0
				c-0.97,0.01-1.81-0.72-1.99-1.68c-0.02-0.12-0.04-0.25-0.04-0.37c0-1.87-0.01-3.73,0-5.6c0-0.55,0.2-1.03,0.58-1.43
				c0.41-0.44,0.93-0.63,1.52-0.63c2.43,0,4.85,0,7.28,0c1.19,0,2.38,0,3.56,0c0.6,0,1.1,0.2,1.51,0.63
				c0.37,0.39,0.57,0.87,0.57,1.4c0.01,1.88,0,3.76,0,5.64c0,0.97-0.7,1.81-1.64,2c-0.11,0.02-0.23,0.03-0.35,0.03
				c-1.05,0-2.1,0-3.16,0h-0.13V112.99z"/>
		</g>
	</g>
</g>
</svg>
