<?xml version="1.0" encoding="utf-8"?>
<!-- Generator: Adobe Illustrator 23.0.1, SVG Export Plug-In . SVG Version: 6.00 Build 0)  -->
<svg version="1.1" id="Layer_1" xmlns="http://www.w3.org/2000/svg" xmlns:xlink="http://www.w3.org/1999/xlink" x="0px" y="0px"
	 viewBox="0 0 475.65 153.18" style="enable-background:new 0 0 475.65 153.18;" xml:space="preserve">
<style type="text/css">
	.st0{fill:#CCCCCC;}
	.st1{fill:#231F20;}
	.st2{font-family:'Prompt-Regular';}
	.st3{font-size:28.1911px;}
	.st4{fill:#EEFF00;}
</style>
<rect x="53.75" y="103.98" class="st0" width="390.3" height="5.86"/>
<circle cx="56.38" cy="106.92" r="46.26"/>
<text transform="matrix(1 0 0 1 1.716614e-04 24.1591)" class="st1 st2 st3">Protocol</text>
<path class="st4" d="M78.39,80.66c-0.01-1.23-0.99-2.21-2.22-2.22l-39.7,0.01c-0.3,0-0.61,0.11-0.88,0.24
	c-0.84,0.44-1.22,1.18-1.22,2.11c0,5.05,0,10.1,0,15.15c0,10.78,0,21.56,0,32.34c0,1.62-0.01,3.25,0.01,4.87
	c0.01,1.3,1.14,2.21,2.24,2.21c1.36,0.01,2.71-0.02,4.07-0.03c1.06-0.01,2.13-0.01,3.19,0c0.51,0,1.03,0.04,1.54,0.04
	c1.38-0.01,2.76-0.03,4.14-0.04c1.08-0.01,2.16-0.01,3.24,0c0.5,0,1,0.04,1.49,0.04c1.35-0.01,2.69-0.03,4.04-0.04
	c1.07-0.01,2.15-0.01,3.22,0c0.52,0,1.05,0.04,1.57,0.04c1.24-0.01,2.49-0.03,3.73-0.04c1.31-0.01,2.63,0,3.94,0
	c0.49,0,0.98,0.03,1.47,0.03c0.56,0,1.12-0.02,1.67-0.03c0.81-0.01,1.61,0.01,2.42-0.02c0.25-0.01,0.52-0.08,0.74-0.19
	c0.86-0.44,1.29-1.16,1.29-2.12c0-8.7,0-17.4,0-26.1l0,0c0-7.51,0-15.01,0-22.52C78.39,83.15,78.4,81.91,78.39,80.66 M40.34,91
	c0-0.52,0.31-1,0.77-1.17c0.52-0.19,1.06-0.04,1.43,0.42c0.43,0.55,0.85,1.12,1.27,1.68c0.29,0.39,0.34,0.39,0.61,0.02
	c0.9-1.24,1.84-2.46,2.76-3.69c0.23-0.3,0.46-0.6,0.69-0.9c0.32-0.42,0.73-0.62,1.26-0.5c0.55,0.13,0.88,0.48,0.98,1.04
	c0.07,0.37-0.07,0.69-0.29,0.98c-0.79,1.04-1.57,2.08-2.36,3.13c-0.72,0.96-1.43,1.93-2.15,2.89c-0.31,0.41-0.65,0.76-1.23,0.71
	c-0.41-0.03-0.73-0.19-0.97-0.5c-0.85-1.11-1.69-2.23-2.51-3.36c-0.15-0.21-0.22-0.48-0.32-0.73C40.3,91.02,40.32,91.01,40.34,91
	 M49.89,120.39c-0.75,1.02-1.52,2.03-2.29,3.05c-0.81,1.07-1.61,2.14-2.43,3.2c-0.16,0.2-0.38,0.38-0.61,0.49
	c-0.51,0.24-1.01,0.11-1.36-0.33c-0.45-0.56-0.88-1.14-1.32-1.71c-0.43-0.56-0.86-1.11-1.27-1.69c-0.15-0.22-0.22-0.5-0.33-0.75
	c0.02-0.01,0.05-0.02,0.07-0.03c0-0.53,0.27-0.96,0.69-1.14c0.56-0.22,1.02-0.14,1.41,0.28c0.16,0.17,0.3,0.36,0.44,0.54
	c0.35,0.45,0.69,0.9,1.03,1.35c0.17,0.22,0.24,0.23,0.41,0.01c0.48-0.62,0.95-1.24,1.42-1.87c0.72-0.95,1.44-1.91,2.16-2.85
	c0.42-0.54,1.17-0.64,1.72-0.23C50.17,119.1,50.3,119.83,49.89,120.39 M49.9,109.9c-0.81,1.11-1.63,2.21-2.46,3.31
	c-0.7,0.94-1.4,1.89-2.13,2.81c-0.2,0.26-0.47,0.46-0.74,0.66c-0.11,0.09-0.29,0.09-0.43,0.13c-0.32-0.01-0.59-0.13-0.79-0.35
	c-0.33-0.37-0.65-0.75-0.95-1.15c-0.61-0.8-1.21-1.6-1.81-2.41c-0.32-0.43-0.35-1.06-0.08-1.44c0.34-0.48,0.87-0.7,1.42-0.5
	c0.24,0.08,0.46,0.27,0.63,0.46c0.4,0.49,0.77,1.01,1.15,1.52c0.04,0.05,0.07,0.1,0.11,0.15c0.28,0.36,0.3,0.37,0.58,0
	c1.15-1.52,2.31-3.03,3.44-4.56c0.37-0.49,0.86-0.6,1.39-0.49c0.47,0.1,0.75,0.45,0.87,0.92C50.18,109.31,50.1,109.63,49.9,109.9
	 M49.82,99.59c-1.56,2.06-3.12,4.12-4.68,6.18c-0.44,0.58-1.16,0.72-1.7,0.34c-0.16-0.12-0.31-0.28-0.43-0.44
	c-0.73-0.95-1.45-1.91-2.17-2.88c-0.26-0.34-0.48-0.69-0.5-1.16c-0.02-0.63,0.65-1.27,1.21-1.18c0.5-0.03,0.84,0.25,1.13,0.63
	c0.42,0.56,0.85,1.12,1.28,1.68c0.16,0.21,0.22,0.2,0.38-0.02c0.88-1.17,1.76-2.33,2.64-3.49c0.3-0.4,0.6-0.81,0.91-1.22
	c0.32-0.42,0.75-0.61,1.27-0.49c0.55,0.13,0.86,0.52,0.97,1.06C50.19,98.97,50.04,99.3,49.82,99.59 M52.29,92.01
	c0.07-0.87,0.59-1.45,1.41-1.72c0.18-0.06,0.39-0.04,0.59-0.04c2.73,0,5.46,0,8.19,0c2.72,0,5.45,0.03,8.17-0.02
	c0.96-0.01,1.84,0.73,2,1.72c0.12,0.77-0.49,1.77-1.28,2.03c-0.26,0.08-0.54,0.14-0.8,0.14c-5.37,0.01-10.74,0.01-16.11,0.01
	c-0.46,0-0.91-0.06-1.3-0.32C52.52,93.37,52.24,92.74,52.29,92.01 M53.51,101.04c0.24-0.08,0.5-0.13,0.75-0.13
	c2.75-0.01,5.5-0.01,8.24-0.01v0.01c2.75,0,5.5,0.01,8.24-0.01c1.16-0.01,1.95,1.11,1.91,2.02c-0.04,1-0.92,1.86-1.92,1.86
	c-5.13,0-10.27,0-15.41,0c-0.38,0-0.76-0.01-1.13,0.01c-0.82,0.03-1.79-0.66-1.92-1.74C52.19,102.26,52.69,101.33,53.51,101.04
	 M70.83,115.44c-1.78,0.03-3.56,0.01-5.33,0.01c-1.03,0-2.06,0-3.09,0l0,0c-2.71,0-5.41-0.02-8.12,0.01
	c-1.02,0.01-1.78-0.75-1.93-1.41c-0.24-0.98,0.14-1.83,1.04-2.29c0.19-0.1,0.41-0.17,0.61-0.17c0.94-0.02,1.89-0.01,2.83-0.02
	c0.44,0,0.87-0.03,1.31-0.03c1.32,0,2.64,0,3.97,0c0.81,0,1.61,0,2.42,0c1.42,0.01,2.85,0.03,4.27,0.04c0.57,0,1.15-0.05,1.72-0.03
	c0.83,0.02,1.49,0.35,1.9,1.11C73.08,113.85,72.19,115.42,70.83,115.44 M71.53,125.95c-0.44,0.17-0.93,0.19-1.4,0.28
	c0-0.03-0.01-0.07-0.01-0.1c-1.24,0-2.49,0-3.73,0c-0.66,0-1.32,0.04-1.98,0.04c-1.31,0-2.62-0.03-3.94-0.03
	c-0.49,0-0.98,0.03-1.47,0.04c-0.99,0.01-1.97,0.01-2.96,0c-0.63,0-1.27-0.05-1.9-0.03c-0.85,0.03-1.57-0.67-1.79-1.44
	c-0.32-1.12,0.47-2.26,1.61-2.43c0.19-0.03,0.38-0.05,0.56-0.05c1.19,0.01,2.38,0.03,3.58,0.04c0.45,0,0.91-0.04,1.36-0.04
	c1.22-0.01,2.44,0,3.65,0h2.57c1.12,0,2.23,0,3.35,0c0.59,0,1.18,0.02,1.78,0.04c0.89,0.04,1.66,0.75,1.83,1.68
	C72.78,124.68,72.28,125.66,71.53,125.95"/>
<circle class="st0" cx="250.42" cy="106.92" r="21.83"/>
<text transform="matrix(1 0 0 1 209.7265 24.1591)" class="st1 st2 st3">Status</text>
<g>
	<g>
		<polygon points="236.8,104.66 240.91,108.61 249.13,100.63 251.3,102.89 240.99,113.2 234.62,106.92 		"/>
		<polygon points="255.43,100.63 259.85,105.05 264.27,100.63 266.21,102.5 261.86,106.87 266.21,111.34 264.27,113.2 
			259.85,108.78 255.43,113.2 253.64,111.27 257.99,106.92 253.64,102.64 		"/>
	</g>
</g>
<ellipse transform="matrix(0.1602 -0.9871 0.9871 0.1602 267.7186 528.5098)" class="st0" cx="444.45" cy="106.92" rx="21.83" ry="21.83"/>
<text transform="matrix(1 0 0 1 413.2657 24.1591)" class="st1 st2 st3">Chat</text>
<g>
	<g>
		<g>
			<path d="M452.86,112.99H453c1.05,0,2.1,0,3.16,0c0.12,0,0.24-0.01,0.35-0.03c0.95-0.19,1.64-1.03,1.64-2c0-1.88,0-3.76,0-5.64
				c0-0.54-0.2-1.01-0.57-1.4c-0.41-0.44-0.91-0.63-1.51-0.63c-1.19,0-2.38,0-3.56,0c-2.43,0-4.85,0-7.28,0
				c-0.6,0-1.11,0.19-1.52,0.63c-0.38,0.4-0.57,0.88-0.58,1.43c-0.01,1.87,0,3.73,0,5.6c0,0.12,0.02,0.25,0.04,0.37
				c0.18,0.97,1.02,1.69,1.99,1.68c1.71-0.01,3.42,0,5.13,0c0.07,0,0.12,0.02,0.17,0.08c0.38,0.46,0.77,0.91,1.15,1.37
				c0.31,0.37,0.63,0.74,0.94,1.11c0.05,0.06,0.11,0.1,0.2,0.07c0.08-0.03,0.12-0.09,0.12-0.18c0-0.03,0-0.05,0-0.07v-1.58v-0.81
				H452.86z"/>
			<path d="M430.76,100.77c0.04-0.17,0.06-0.34,0.11-0.51c0.32-1.05,1-1.74,2.08-2c0.2-0.05,0.41-0.06,0.61-0.06
				c4.19,0,8.38-0.01,12.57,0c1.22,0,2.05,0.61,2.56,1.69c0.16,0.34,0.23,0.69,0.24,1.07c0,0.42,0,0.85,0,1.29h-0.13
				c-1.54,0-3.08,0.01-4.62,0c-1.15-0.01-1.98,0.77-2.21,1.7c-0.05,0.18-0.08,0.37-0.08,0.56c-0.01,1.68,0,3.36,0,5.04
				c0,0.17,0.03,0.34,0.04,0.52h-0.11c-0.91,0-1.82,0-2.73,0c-0.08,0-0.13,0.02-0.18,0.08c-0.95,1.13-1.9,2.26-2.86,3.38
				c-0.07,0.08-0.13,0.17-0.26,0.14s-0.19-0.12-0.19-0.28c0-1.06,0-2.13,0-3.19v-0.14h-0.13c-0.64,0-1.28-0.01-1.92,0
				c-1.33,0.02-2.44-0.94-2.72-2.23c-0.03-0.12-0.04-0.24-0.07-0.36L430.76,100.77L430.76,100.77z"/>
			<path d="M452.86,112.99v0.79v1.58c0,0.02,0,0.05,0,0.07c0,0.09-0.04,0.15-0.12,0.18s-0.14-0.01-0.2-0.07
				c-0.31-0.37-0.63-0.74-0.94-1.11c-0.38-0.45-0.77-0.91-1.15-1.37c-0.05-0.06-0.1-0.08-0.17-0.08c-1.71,0-3.42-0.01-5.13,0
				c-0.97,0.01-1.81-0.72-1.99-1.68c-0.02-0.12-0.04-0.25-0.04-0.37c0-1.87-0.01-3.73,0-5.6c0-0.55,0.2-1.03,0.58-1.43
				c0.41-0.44,0.93-0.63,1.52-0.63c2.43,0,4.85,0,7.28,0c1.19,0,2.38,0,3.56,0c0.6,0,1.1,0.2,1.51,0.63
				c0.37,0.39,0.57,0.87,0.57,1.4c0.01,1.88,0,3.76,0,5.64c0,0.97-0.7,1.81-1.64,2c-0.11,0.02-0.23,0.03-0.35,0.03
				c-1.05,0-2.1,0-3.16,0h-0.13V112.99z"/>
		</g>
	</g>
</g>
</svg>
