<?xml version="1.0" encoding="utf-8"?>
<!-- Generator: Adobe Illustrator 23.0.1, SVG Export Plug-In . SVG Version: 6.00 Build 0)  -->
<svg version="1.1" id="Layer_1" xmlns="http://www.w3.org/2000/svg" xmlns:xlink="http://www.w3.org/1999/xlink" x="0px" y="0px"
	 viewBox="0 0 595.28 841.89" style="enable-background:new 0 0 595.28 841.89;" xml:space="preserve">
<style type="text/css">
	.st0{fill:#CCCCCC;}
	.st1{fill:#231F20;}
	.st2{font-family:'Prompt-Regular';}
	.st3{font-size:28.1911px;}
	.st4{fill:#EEFF00;}
</style>
<rect x="109.74" y="337.37" class="st0" width="390.3" height="5.86"/>
<circle cx="112.37" cy="340.31" r="46.26"/>
<text transform="matrix(1 0 0 1 55.9865 257.5469)" class="st1 st2 st3">Protocol</text>
<path class="st4" d="M134.38,314.05c-0.01-1.23-0.99-2.21-2.22-2.22l-39.7,0.01c-0.3,0-0.61,0.11-0.88,0.24
	c-0.84,0.44-1.22,1.18-1.22,2.11c0,5.05,0,10.1,0,15.15c0,10.78,0,21.56,0,32.34c0,1.62-0.01,3.25,0.01,4.87
	c0.01,1.3,1.14,2.21,2.24,2.21c1.36,0.01,2.71-0.02,4.07-0.03c1.06-0.01,2.13-0.01,3.19,0c0.51,0,1.03,0.04,1.54,0.04
	c1.38-0.01,2.76-0.03,4.14-0.04c1.08-0.01,2.16-0.01,3.24,0c0.5,0,1,0.04,1.49,0.04c1.35-0.01,2.69-0.03,4.04-0.04
	c1.07-0.01,2.15-0.01,3.22,0c0.52,0,1.05,0.04,1.57,0.04c1.24-0.01,2.49-0.03,3.73-0.04c1.31-0.01,2.63,0,3.94,0
	c0.49,0,0.98,0.03,1.47,0.03c0.56,0,1.12-0.02,1.67-0.03c0.81-0.01,1.61,0.01,2.42-0.02c0.25-0.01,0.52-0.08,0.74-0.19
	c0.86-0.44,1.29-1.16,1.29-2.12c0-8.7,0-17.4,0-26.1h0c0-7.51,0-15.01,0-22.52C134.38,316.54,134.39,315.3,134.38,314.05
	 M96.33,324.39c0-0.52,0.31-1,0.77-1.17c0.52-0.19,1.06-0.04,1.43,0.42c0.43,0.55,0.85,1.12,1.27,1.68
	c0.29,0.39,0.34,0.39,0.61,0.02c0.9-1.24,1.84-2.46,2.76-3.69c0.23-0.3,0.46-0.6,0.69-0.9c0.32-0.42,0.73-0.62,1.26-0.5
	c0.55,0.13,0.88,0.48,0.98,1.04c0.07,0.37-0.07,0.69-0.29,0.98c-0.79,1.04-1.57,2.08-2.36,3.13c-0.72,0.96-1.43,1.93-2.15,2.89
	c-0.31,0.41-0.65,0.76-1.23,0.71c-0.41-0.03-0.73-0.19-0.97-0.5c-0.85-1.11-1.69-2.23-2.51-3.36c-0.15-0.21-0.22-0.48-0.32-0.73
	C96.29,324.41,96.31,324.4,96.33,324.39 M105.88,353.78c-0.75,1.02-1.52,2.03-2.29,3.05c-0.81,1.07-1.61,2.14-2.43,3.2
	c-0.16,0.2-0.38,0.38-0.61,0.49c-0.51,0.24-1.01,0.11-1.36-0.33c-0.45-0.56-0.88-1.14-1.32-1.71c-0.43-0.56-0.86-1.11-1.27-1.69
	c-0.15-0.22-0.22-0.5-0.33-0.75c0.02-0.01,0.05-0.02,0.07-0.03c0-0.53,0.27-0.96,0.69-1.14c0.56-0.22,1.02-0.14,1.41,0.28
	c0.16,0.17,0.3,0.36,0.44,0.54c0.35,0.45,0.69,0.9,1.03,1.35c0.17,0.22,0.24,0.23,0.41,0.01c0.48-0.62,0.95-1.24,1.42-1.87
	c0.72-0.95,1.44-1.91,2.16-2.85c0.42-0.54,1.17-0.64,1.72-0.23C106.16,352.49,106.29,353.22,105.88,353.78 M105.89,343.29
	c-0.81,1.11-1.63,2.21-2.46,3.31c-0.7,0.94-1.4,1.89-2.13,2.81c-0.2,0.26-0.47,0.46-0.74,0.66c-0.11,0.09-0.29,0.09-0.43,0.13
	c-0.32-0.01-0.59-0.13-0.79-0.35c-0.33-0.37-0.65-0.75-0.95-1.15c-0.61-0.8-1.21-1.6-1.81-2.41c-0.32-0.43-0.35-1.06-0.08-1.44
	c0.34-0.48,0.87-0.7,1.42-0.5c0.24,0.08,0.46,0.27,0.63,0.46c0.4,0.49,0.77,1.01,1.15,1.52c0.04,0.05,0.07,0.1,0.11,0.15
	c0.28,0.36,0.3,0.37,0.58,0c1.15-1.52,2.31-3.03,3.44-4.56c0.37-0.49,0.86-0.6,1.39-0.49c0.47,0.1,0.75,0.45,0.87,0.92
	C106.17,342.7,106.09,343.02,105.89,343.29 M105.81,332.98c-1.56,2.06-3.12,4.12-4.68,6.18c-0.44,0.58-1.16,0.72-1.7,0.34
	c-0.16-0.12-0.31-0.28-0.43-0.44c-0.73-0.95-1.45-1.91-2.17-2.88c-0.26-0.34-0.48-0.69-0.5-1.16c-0.02-0.63,0.65-1.27,1.21-1.18
	c0.5-0.03,0.84,0.25,1.13,0.63c0.42,0.56,0.85,1.12,1.28,1.68c0.16,0.21,0.22,0.2,0.38-0.02c0.88-1.17,1.76-2.33,2.64-3.49
	c0.3-0.4,0.6-0.81,0.91-1.22c0.32-0.42,0.75-0.61,1.27-0.49c0.55,0.13,0.86,0.52,0.97,1.06
	C106.18,332.36,106.03,332.69,105.81,332.98 M108.28,325.4c0.07-0.87,0.59-1.45,1.41-1.72c0.18-0.06,0.39-0.04,0.59-0.04
	c2.73,0,5.46,0,8.19,0c2.72,0,5.45,0.03,8.17-0.02c0.96-0.01,1.84,0.73,2,1.72c0.12,0.77-0.49,1.77-1.28,2.03
	c-0.26,0.08-0.54,0.14-0.8,0.14c-5.37,0.01-10.74,0.01-16.11,0.01c-0.46,0-0.91-0.06-1.3-0.32
	C108.51,326.76,108.23,326.13,108.28,325.4 M109.5,334.43c0.24-0.08,0.5-0.13,0.75-0.13c2.75-0.01,5.5-0.01,8.24-0.01v0.01
	c2.75,0,5.5,0.01,8.24-0.01c1.16-0.01,1.95,1.11,1.91,2.02c-0.04,1-0.92,1.86-1.92,1.86c-5.13,0-10.27,0-15.41,0
	c-0.38,0-0.76-0.01-1.13,0.01c-0.82,0.03-1.79-0.66-1.92-1.74C108.18,335.65,108.68,334.72,109.5,334.43 M126.82,348.83
	c-1.78,0.03-3.56,0.01-5.33,0.01c-1.03,0-2.06,0-3.09,0v0c-2.71,0-5.41-0.02-8.12,0.01c-1.02,0.01-1.78-0.75-1.93-1.41
	c-0.24-0.98,0.14-1.83,1.04-2.29c0.19-0.1,0.41-0.17,0.61-0.17c0.94-0.02,1.89-0.01,2.83-0.02c0.44,0,0.87-0.03,1.31-0.03
	c1.32,0,2.64,0,3.97,0c0.81,0,1.61,0,2.42,0c1.42,0.01,2.85,0.03,4.27,0.04c0.57,0,1.15-0.05,1.72-0.03
	c0.83,0.02,1.49,0.35,1.9,1.11C129.07,347.24,128.18,348.81,126.82,348.83 M127.52,359.34c-0.44,0.17-0.93,0.19-1.4,0.28
	c0-0.03-0.01-0.07-0.01-0.1c-1.24,0-2.49,0-3.73,0c-0.66,0-1.32,0.04-1.98,0.04c-1.31,0-2.62-0.03-3.94-0.03
	c-0.49,0-0.98,0.03-1.47,0.04c-0.99,0.01-1.97,0.01-2.96,0c-0.63,0-1.27-0.05-1.9-0.03c-0.85,0.03-1.57-0.67-1.79-1.44
	c-0.32-1.12,0.47-2.26,1.61-2.43c0.19-0.03,0.38-0.05,0.56-0.05c1.19,0.01,2.38,0.03,3.58,0.04c0.45,0,0.91-0.04,1.36-0.04
	c1.22-0.01,2.44,0,3.65,0h2.57c1.12,0,2.23,0,3.35,0c0.59,0,1.18,0.02,1.78,0.04c0.89,0.04,1.66,0.75,1.83,1.68
	C128.77,358.07,128.27,359.05,127.52,359.34"/>
<circle class="st0" cx="306.41" cy="340.31" r="21.83"/>
<text transform="matrix(1 0 0 1 265.7128 257.5469)" class="st1 st2 st3">Status</text>
<g>
	<g>
		<polygon points="292.79,338.05 296.9,342 305.12,334.02 307.29,336.28 296.98,346.59 290.61,340.31 		"/>
		<polygon points="311.42,334.02 315.84,338.44 320.26,334.02 322.2,335.89 317.85,340.26 322.2,344.73 320.26,346.59 
			315.84,342.17 311.42,346.59 309.63,344.66 313.98,340.31 309.63,336.03 		"/>
	</g>
</g>
<circle class="st0" cx="500.44" cy="340.31" r="21.83"/>
<text transform="matrix(1 0 0 1 469.252 257.5469)" class="st1 st2 st3">Chat</text>
<g>
	<g>
		<g>
			<path d="M508.85,346.38h0.14c1.05,0,2.1,0,3.16,0c0.12,0,0.24-0.01,0.35-0.03c0.95-0.19,1.64-1.03,1.64-2c0-1.88,0-3.76,0-5.64
				c0-0.54-0.2-1.01-0.57-1.4c-0.41-0.44-0.91-0.63-1.51-0.63c-1.19,0-2.38,0-3.56,0c-2.43,0-4.85,0-7.28,0
				c-0.6,0-1.11,0.19-1.52,0.63c-0.38,0.4-0.57,0.88-0.58,1.43c-0.01,1.87,0,3.73,0,5.6c0,0.12,0.02,0.25,0.04,0.37
				c0.18,0.97,1.02,1.69,1.99,1.68c1.71-0.01,3.42,0,5.13,0c0.07,0,0.12,0.02,0.17,0.08c0.38,0.46,0.77,0.91,1.15,1.37
				c0.31,0.37,0.63,0.74,0.94,1.11c0.05,0.06,0.11,0.1,0.2,0.07c0.08-0.03,0.12-0.09,0.12-0.18c0-0.03,0-0.05,0-0.07v-1.58V346.38z"
				/>
			<path d="M486.75,334.16c0.04-0.17,0.06-0.34,0.11-0.51c0.32-1.05,1-1.74,2.08-2c0.2-0.05,0.41-0.06,0.61-0.06
				c4.19,0,8.38-0.01,12.57,0c1.22,0,2.05,0.61,2.56,1.69c0.16,0.34,0.23,0.69,0.24,1.07c0,0.42,0,0.85,0,1.29h-0.13
				c-1.54,0-3.08,0.01-4.62,0c-1.15-0.01-1.98,0.77-2.21,1.7c-0.05,0.18-0.08,0.37-0.08,0.56c-0.01,1.68,0,3.36,0,5.04
				c0,0.17,0.03,0.34,0.04,0.52h-0.11c-0.91,0-1.82,0-2.73,0c-0.08,0-0.13,0.02-0.18,0.08c-0.95,1.13-1.9,2.26-2.86,3.38
				c-0.07,0.08-0.13,0.17-0.26,0.14c-0.13-0.03-0.19-0.12-0.19-0.28c0-1.06,0-2.13,0-3.19v-0.14h-0.13c-0.64,0-1.28-0.01-1.92,0
				c-1.33,0.02-2.44-0.94-2.72-2.23c-0.03-0.12-0.04-0.24-0.07-0.36V334.16z"/>
			<path d="M508.85,346.38v0.79v1.58c0,0.02,0,0.05,0,0.07c0,0.09-0.04,0.15-0.12,0.18c-0.08,0.03-0.14-0.01-0.2-0.07
				c-0.31-0.37-0.63-0.74-0.94-1.11c-0.38-0.45-0.77-0.91-1.15-1.37c-0.05-0.06-0.1-0.08-0.17-0.08c-1.71,0-3.42-0.01-5.13,0
				c-0.97,0.01-1.81-0.72-1.99-1.68c-0.02-0.12-0.04-0.25-0.04-0.37c0-1.87-0.01-3.73,0-5.6c0-0.55,0.2-1.03,0.58-1.43
				c0.41-0.44,0.93-0.63,1.52-0.63c2.43,0,4.85,0,7.28,0c1.19,0,2.38,0,3.56,0c0.6,0,1.1,0.2,1.51,0.63
				c0.37,0.39,0.57,0.87,0.57,1.4c0.01,1.88,0,3.76,0,5.64c0,0.97-0.7,1.81-1.64,2c-0.11,0.02-0.23,0.03-0.35,0.03
				c-1.05,0-2.1,0-3.16,0H508.85z"/>
		</g>
	</g>
</g>
</svg>
