<?xml version="1.0" encoding="utf-8"?>
<!-- Generator: Adobe Illustrator 23.0.1, SVG Export Plug-In . SVG Version: 6.00 Build 0)  -->
<svg version="1.1" id="Layer_1" xmlns="http://www.w3.org/2000/svg" xmlns:xlink="http://www.w3.org/1999/xlink" x="0px" y="0px"
	 viewBox="0 0 475.65 153.18" style="enable-background:new 0 0 475.65 153.18;" xml:space="preserve">
<style type="text/css">
	.st0{fill:#CCCCCC;}
	.st1{enable-background:new    ;}
	.st2{fill:#231F20;}
	.st3{fill:#EEFF00;}
</style>
<rect x="53.75" y="103.98" class="st0" width="390.3" height="5.86"/>
<circle cx="56.38" cy="106.92" r="46.26"/>
<g class="st1">
	<path class="st2" d="M1.69,4.45h7.89c2.16,0,3.9,0.57,5.2,1.72c1.31,1.15,1.96,2.72,1.96,4.71c0,2.07-0.65,3.64-1.95,4.72
		s-3.04,1.62-5.24,1.62H5.27v6.93H1.69V4.45z M9.13,14.26c2.69,0,4.03-1.13,4.03-3.38c0-2.31-1.34-3.47-4.03-3.47H5.27v6.85H9.13z"
		/>
	<path class="st2" d="M19,10.63h3.44v2.17c0.54-0.73,1.32-1.28,2.33-1.63c1.01-0.36,2.16-0.54,3.45-0.54v2.71
		c-1.37,0-2.56,0.21-3.57,0.63s-1.71,1.09-2.1,1.99v8.2H19V10.63z"/>
	<path class="st2" d="M33.25,23.72c-1.19-0.57-2.12-1.4-2.78-2.48c-0.66-1.08-0.99-2.36-0.99-3.85c0-1.45,0.32-2.71,0.97-3.79
		c0.65-1.08,1.57-1.92,2.78-2.51s2.59-0.89,4.17-0.89s2.96,0.3,4.16,0.89c1.19,0.59,2.12,1.43,2.78,2.51
		c0.66,1.08,0.99,2.34,0.99,3.79c0,1.48-0.33,2.77-0.99,3.85c-0.66,1.08-1.58,1.91-2.78,2.48c-1.19,0.57-2.58,0.86-4.16,0.86
		S34.44,24.29,33.25,23.72z M40.51,20.56c0.77-0.82,1.16-1.87,1.16-3.17c0-1.37-0.38-2.45-1.14-3.23c-0.76-0.78-1.8-1.17-3.12-1.17
		c-1.32,0-2.35,0.39-3.12,1.17c-0.76,0.78-1.14,1.86-1.14,3.23c0,1.3,0.38,2.35,1.16,3.17c0.77,0.82,1.8,1.23,3.1,1.23
		S39.74,21.38,40.51,20.56z"/>
	<path class="st2" d="M49.79,23.34c-0.77-0.83-1.16-1.99-1.16-3.5v-6.51H46.6v-2.71h2.03V6.57h3.55v4.06h3.24v2.71h-3.24v6.06
		c0,0.87,0.16,1.48,0.48,1.85c0.32,0.37,0.9,0.55,1.75,0.55c0.58,0,1.16-0.13,1.72-0.39v2.71c-0.81,0.32-1.79,0.48-2.96,0.48
		C51.68,24.58,50.56,24.17,49.79,23.34z"/>
	<path class="st2" d="M61.72,23.72c-1.19-0.57-2.12-1.4-2.78-2.48c-0.66-1.08-0.99-2.36-0.99-3.85c0-1.45,0.32-2.71,0.97-3.79
		c0.65-1.08,1.57-1.92,2.78-2.51s2.59-0.89,4.17-0.89s2.96,0.3,4.16,0.89c1.19,0.59,2.12,1.43,2.78,2.51
		c0.66,1.08,0.99,2.34,0.99,3.79c0,1.48-0.33,2.77-0.99,3.85c-0.66,1.08-1.58,1.91-2.78,2.48c-1.19,0.57-2.58,0.86-4.16,0.86
		S62.92,24.29,61.72,23.72z M68.98,20.56c0.77-0.82,1.16-1.87,1.16-3.17c0-1.37-0.38-2.45-1.14-3.23C68.24,13.39,67.2,13,65.88,13
		c-1.32,0-2.35,0.39-3.12,1.17c-0.76,0.78-1.14,1.86-1.14,3.23c0,1.3,0.38,2.35,1.16,3.17c0.77,0.82,1.8,1.23,3.1,1.23
		S68.21,21.38,68.98,20.56z"/>
	<path class="st2" d="M79.4,23.74c-1.19-0.56-2.12-1.38-2.78-2.45c-0.66-1.07-0.99-2.36-0.99-3.86s0.33-2.8,1-3.88
		c0.67-1.08,1.6-1.91,2.79-2.48c1.19-0.57,2.59-0.86,4.19-0.86c2.1,0,3.79,0.41,5.05,1.24v2.85c-1.22-0.86-2.78-1.3-4.68-1.3
		c-1.45,0-2.6,0.36-3.45,1.09c-0.86,0.72-1.28,1.84-1.28,3.34c0,1.48,0.43,2.58,1.28,3.3c0.85,0.71,1.99,1.07,3.4,1.07
		c1.9,0,3.53-0.45,4.91-1.35v2.82c-0.68,0.45-1.44,0.79-2.3,1c-0.86,0.22-1.85,0.32-2.97,0.32C81.98,24.58,80.59,24.3,79.4,23.74z"
		/>
	<path class="st2" d="M94.43,23.72c-1.19-0.57-2.12-1.4-2.78-2.48c-0.66-1.08-0.99-2.36-0.99-3.85c0-1.45,0.32-2.71,0.97-3.79
		c0.65-1.08,1.57-1.92,2.78-2.51S97,10.2,98.58,10.2s2.96,0.3,4.16,0.89c1.19,0.59,2.12,1.43,2.78,2.51
		c0.66,1.08,0.99,2.34,0.99,3.79c0,1.48-0.33,2.77-0.99,3.85c-0.66,1.08-1.58,1.91-2.78,2.48c-1.19,0.57-2.58,0.86-4.16,0.86
		S95.62,24.29,94.43,23.72z M101.68,20.56c0.77-0.82,1.16-1.87,1.16-3.17c0-1.37-0.38-2.45-1.14-3.23c-0.76-0.78-1.8-1.17-3.12-1.17
		c-1.32,0-2.35,0.39-3.12,1.17c-0.76,0.78-1.14,1.86-1.14,3.23c0,1.3,0.38,2.35,1.16,3.17c0.77,0.82,1.8,1.23,3.1,1.23
		S100.91,21.38,101.68,20.56z"/>
	<path class="st2" d="M109.32,3.33h3.55v20.83h-3.55V3.33z"/>
</g>
<path class="st3" d="M78.39,80.66c-0.01-1.23-0.99-2.21-2.22-2.22l-39.7,0.01c-0.3,0-0.61,0.11-0.88,0.24
	c-0.84,0.44-1.22,1.18-1.22,2.11c0,5.05,0,10.1,0,15.15c0,10.78,0,21.56,0,32.34c0,1.62-0.01,3.25,0.01,4.87
	c0.01,1.3,1.14,2.21,2.24,2.21c1.36,0.01,2.71-0.02,4.07-0.03c1.06-0.01,2.13-0.01,3.19,0c0.51,0,1.03,0.04,1.54,0.04
	c1.38-0.01,2.76-0.03,4.14-0.04c1.08-0.01,2.16-0.01,3.24,0c0.5,0,1,0.04,1.49,0.04c1.35-0.01,2.69-0.03,4.04-0.04
	c1.07-0.01,2.15-0.01,3.22,0c0.52,0,1.05,0.04,1.57,0.04c1.24-0.01,2.49-0.03,3.73-0.04c1.31-0.01,2.63,0,3.94,0
	c0.49,0,0.98,0.03,1.47,0.03c0.56,0,1.12-0.02,1.67-0.03c0.81-0.01,1.61,0.01,2.42-0.02c0.25-0.01,0.52-0.08,0.74-0.19
	c0.86-0.44,1.29-1.16,1.29-2.12c0-8.7,0-17.4,0-26.1l0,0c0-7.51,0-15.01,0-22.52C78.39,83.15,78.4,81.91,78.39,80.66 M40.34,91
	c0-0.52,0.31-1,0.77-1.17c0.52-0.19,1.06-0.04,1.43,0.42c0.43,0.55,0.85,1.12,1.27,1.68c0.29,0.39,0.34,0.39,0.61,0.02
	c0.9-1.24,1.84-2.46,2.76-3.69c0.23-0.3,0.46-0.6,0.69-0.9c0.32-0.42,0.73-0.62,1.26-0.5c0.55,0.13,0.88,0.48,0.98,1.04
	c0.07,0.37-0.07,0.69-0.29,0.98c-0.79,1.04-1.57,2.08-2.36,3.13c-0.72,0.96-1.43,1.93-2.15,2.89c-0.31,0.41-0.65,0.76-1.23,0.71
	c-0.41-0.03-0.73-0.19-0.97-0.5c-0.85-1.11-1.69-2.23-2.51-3.36c-0.15-0.21-0.22-0.48-0.32-0.73C40.3,91.02,40.32,91.01,40.34,91
	 M49.89,120.39c-0.75,1.02-1.52,2.03-2.29,3.05c-0.81,1.07-1.61,2.14-2.43,3.2c-0.16,0.2-0.38,0.38-0.61,0.49
	c-0.51,0.24-1.01,0.11-1.36-0.33c-0.45-0.56-0.88-1.14-1.32-1.71c-0.43-0.56-0.86-1.11-1.27-1.69c-0.15-0.22-0.22-0.5-0.33-0.75
	c0.02-0.01,0.05-0.02,0.07-0.03c0-0.53,0.27-0.96,0.69-1.14c0.56-0.22,1.02-0.14,1.41,0.28c0.16,0.17,0.3,0.36,0.44,0.54
	c0.35,0.45,0.69,0.9,1.03,1.35c0.17,0.22,0.24,0.23,0.41,0.01c0.48-0.62,0.95-1.24,1.42-1.87c0.72-0.95,1.44-1.91,2.16-2.85
	c0.42-0.54,1.17-0.64,1.72-0.23C50.17,119.1,50.3,119.83,49.89,120.39 M49.9,109.9c-0.81,1.11-1.63,2.21-2.46,3.31
	c-0.7,0.94-1.4,1.89-2.13,2.81c-0.2,0.26-0.47,0.46-0.74,0.66c-0.11,0.09-0.29,0.09-0.43,0.13c-0.32-0.01-0.59-0.13-0.79-0.35
	c-0.33-0.37-0.65-0.75-0.95-1.15c-0.61-0.8-1.21-1.6-1.81-2.41c-0.32-0.43-0.35-1.06-0.08-1.44c0.34-0.48,0.87-0.7,1.42-0.5
	c0.24,0.08,0.46,0.27,0.63,0.46c0.4,0.49,0.77,1.01,1.15,1.52c0.04,0.05,0.07,0.1,0.11,0.15c0.28,0.36,0.3,0.37,0.58,0
	c1.15-1.52,2.31-3.03,3.44-4.56c0.37-0.49,0.86-0.6,1.39-0.49c0.47,0.1,0.75,0.45,0.87,0.92C50.18,109.31,50.1,109.63,49.9,109.9
	 M49.82,99.59c-1.56,2.06-3.12,4.12-4.68,6.18c-0.44,0.58-1.16,0.72-1.7,0.34c-0.16-0.12-0.31-0.28-0.43-0.44
	c-0.73-0.95-1.45-1.91-2.17-2.88c-0.26-0.34-0.48-0.69-0.5-1.16c-0.02-0.63,0.65-1.27,1.21-1.18c0.5-0.03,0.84,0.25,1.13,0.63
	c0.42,0.56,0.85,1.12,1.28,1.68c0.16,0.21,0.22,0.2,0.38-0.02c0.88-1.17,1.76-2.33,2.64-3.49c0.3-0.4,0.6-0.81,0.91-1.22
	c0.32-0.42,0.75-0.61,1.27-0.49c0.55,0.13,0.86,0.52,0.97,1.06C50.19,98.97,50.04,99.3,49.82,99.59 M52.29,92.01
	c0.07-0.87,0.59-1.45,1.41-1.72c0.18-0.06,0.39-0.04,0.59-0.04c2.73,0,5.46,0,8.19,0c2.72,0,5.45,0.03,8.17-0.02
	c0.96-0.01,1.84,0.73,2,1.72c0.12,0.77-0.49,1.77-1.28,2.03c-0.26,0.08-0.54,0.14-0.8,0.14c-5.37,0.01-10.74,0.01-16.11,0.01
	c-0.46,0-0.91-0.06-1.3-0.32C52.52,93.37,52.24,92.74,52.29,92.01 M53.51,101.04c0.24-0.08,0.5-0.13,0.75-0.13
	c2.75-0.01,5.5-0.01,8.24-0.01v0.01c2.75,0,5.5,0.01,8.24-0.01c1.16-0.01,1.95,1.11,1.91,2.02c-0.04,1-0.92,1.86-1.92,1.86
	c-5.13,0-10.27,0-15.41,0c-0.38,0-0.76-0.01-1.13,0.01c-0.82,0.03-1.79-0.66-1.92-1.74C52.19,102.26,52.69,101.33,53.51,101.04
	 M70.83,115.44c-1.78,0.03-3.56,0.01-5.33,0.01c-1.03,0-2.06,0-3.09,0l0,0c-2.71,0-5.41-0.02-8.12,0.01
	c-1.02,0.01-1.78-0.75-1.93-1.41c-0.24-0.98,0.14-1.83,1.04-2.29c0.19-0.1,0.41-0.17,0.61-0.17c0.94-0.02,1.89-0.01,2.83-0.02
	c0.44,0,0.87-0.03,1.31-0.03c1.32,0,2.64,0,3.97,0c0.81,0,1.61,0,2.42,0c1.42,0.01,2.85,0.03,4.27,0.04c0.57,0,1.15-0.05,1.72-0.03
	c0.83,0.02,1.49,0.35,1.9,1.11C73.08,113.85,72.19,115.42,70.83,115.44 M71.53,125.95c-0.44,0.17-0.93,0.19-1.4,0.28
	c0-0.03-0.01-0.07-0.01-0.1c-1.24,0-2.49,0-3.73,0c-0.66,0-1.32,0.04-1.98,0.04c-1.31,0-2.62-0.03-3.94-0.03
	c-0.49,0-0.98,0.03-1.47,0.04c-0.99,0.01-1.97,0.01-2.96,0c-0.63,0-1.27-0.05-1.9-0.03c-0.85,0.03-1.57-0.67-1.79-1.44
	c-0.32-1.12,0.47-2.26,1.61-2.43c0.19-0.03,0.38-0.05,0.56-0.05c1.19,0.01,2.38,0.03,3.58,0.04c0.45,0,0.91-0.04,1.36-0.04
	c1.22-0.01,2.44,0,3.65,0h2.57c1.12,0,2.23,0,3.35,0c0.59,0,1.18,0.02,1.78,0.04c0.89,0.04,1.66,0.75,1.83,1.68
	C72.78,124.68,72.28,125.66,71.53,125.95"/>
<circle class="st0" cx="250.42" cy="106.92" r="21.83"/>
<g class="st1">
	<path class="st2" d="M213.66,24.26c-1.14-0.22-2.07-0.5-2.81-0.86v-3.07c0.94,0.45,1.93,0.79,2.96,1.01
		c1.03,0.23,2.05,0.34,3.04,0.34c1.26,0,2.22-0.24,2.88-0.71c0.66-0.47,0.99-1.12,0.99-1.95c0-0.58-0.15-1.07-0.45-1.45
		c-0.3-0.38-0.74-0.72-1.33-1.01c-0.58-0.29-1.48-0.67-2.68-1.14c-1.84-0.75-3.18-1.59-4-2.51c-0.83-0.92-1.24-2.07-1.24-3.44
		c0-1.07,0.29-2.02,0.87-2.85c0.58-0.83,1.4-1.47,2.45-1.92c1.05-0.45,2.26-0.68,3.64-0.68c1.13,0,2.13,0.09,3,0.27
		s1.73,0.46,2.58,0.83v2.99c-1.64-0.79-3.29-1.18-4.96-1.18c-1.2,0-2.13,0.22-2.79,0.66c-0.66,0.44-0.99,1.07-0.99,1.88
		c0,0.58,0.15,1.06,0.45,1.42c0.3,0.37,0.7,0.68,1.2,0.93c0.5,0.25,1.4,0.65,2.69,1.2c1.32,0.55,2.35,1.08,3.12,1.61
		s1.33,1.14,1.72,1.85c0.38,0.7,0.58,1.56,0.58,2.58c0,1.75-0.63,3.11-1.89,4.07c-1.26,0.97-3.12,1.45-5.58,1.45
		C215.95,24.58,214.8,24.47,213.66,24.26z"/>
	<path class="st2" d="M228.47,23.34c-0.77-0.83-1.16-1.99-1.16-3.5v-6.51h-2.03v-2.71h2.03V6.57h3.55v4.06h3.24v2.71h-3.24v6.06
		c0,0.87,0.16,1.48,0.48,1.85c0.32,0.37,0.9,0.55,1.75,0.55c0.58,0,1.16-0.13,1.72-0.39v2.71c-0.81,0.32-1.79,0.48-2.96,0.48
		C230.37,24.58,229.24,24.17,228.47,23.34z"/>
	<path class="st2" d="M237.92,23.3c-1.03-0.86-1.55-2.01-1.55-3.45c0-1.5,0.49-2.68,1.47-3.52c0.98-0.85,2.35-1.27,4.12-1.27
		c1.71,0,3.19,0.35,4.43,1.04v-0.37c0-0.96-0.3-1.65-0.89-2.09c-0.59-0.43-1.55-0.65-2.86-0.65c-0.83,0-1.64,0.08-2.45,0.24
		c-0.81,0.16-1.52,0.38-2.14,0.66v-2.79c0.56-0.26,1.32-0.48,2.27-0.65c0.95-0.17,1.86-0.25,2.75-0.25c2.35,0,4.09,0.5,5.22,1.51
		c1.13,1.01,1.69,2.4,1.69,4.19v8.26h-3.36v-1.33c-0.58,0.56-1.25,1-1.99,1.3c-0.74,0.3-1.65,0.45-2.72,0.45
		C240.28,24.58,238.95,24.15,237.92,23.3z M244.91,21.52c0.64-0.31,1.13-0.74,1.47-1.28v-1.49c-1.03-0.73-2.22-1.1-3.55-1.1
		c-1.9,0-2.85,0.73-2.85,2.2c0,0.71,0.24,1.25,0.72,1.61c0.48,0.36,1.17,0.54,2.07,0.54C243.56,21.99,244.27,21.83,244.91,21.52z"/>
	<path class="st2" d="M254.55,23.34c-0.77-0.83-1.16-1.99-1.16-3.5v-6.51h-2.03v-2.71h2.03V6.57h3.55v4.06h3.24v2.71h-3.24v6.06
		c0,0.87,0.16,1.48,0.48,1.85c0.32,0.37,0.9,0.55,1.75,0.55c0.58,0,1.16-0.13,1.72-0.39v2.71c-0.81,0.32-1.79,0.48-2.96,0.48
		C256.45,24.58,255.32,24.17,254.55,23.34z"/>
	<path class="st2" d="M264.5,23.1c-0.9-0.99-1.35-2.3-1.35-3.93v-8.54h3.55v8.2c0,1.97,0.92,2.96,2.76,2.96
		c0.81,0,1.57-0.19,2.28-0.58c0.71-0.38,1.32-0.96,1.8-1.73v-8.85h3.55v13.53h-3.44v-1.83c-0.64,0.77-1.4,1.34-2.28,1.71
		c-0.88,0.37-1.81,0.55-2.79,0.55C266.77,24.58,265.4,24.09,264.5,23.1z"/>
	<path class="st2" d="M282.63,24.24c-1.11-0.23-1.97-0.54-2.59-0.93V20.3c0.73,0.45,1.61,0.81,2.62,1.09
		c1.01,0.27,1.97,0.41,2.88,0.41s1.56-0.08,1.97-0.24c0.41-0.16,0.62-0.46,0.62-0.89c0-0.34-0.11-0.62-0.32-0.83
		s-0.56-0.41-1.04-0.59s-1.22-0.4-2.21-0.66c-1.13-0.32-2.02-0.65-2.66-0.99c-0.65-0.34-1.14-0.77-1.47-1.28
		c-0.33-0.52-0.49-1.19-0.49-2.02c0-1.35,0.54-2.37,1.61-3.06c1.07-0.69,2.52-1.03,4.34-1.03c0.94,0,1.87,0.09,2.8,0.27
		s1.66,0.43,2.18,0.75v2.9c-0.56-0.34-1.25-0.61-2.06-0.82c-0.81-0.21-1.64-0.31-2.48-0.31c-0.92,0-1.62,0.09-2.09,0.27
		s-0.7,0.52-0.7,1.03c0,0.34,0.13,0.61,0.38,0.8s0.59,0.37,1,0.51c0.41,0.14,1.17,0.35,2.25,0.63c1.17,0.32,2.08,0.67,2.74,1.04
		c0.66,0.38,1.13,0.83,1.41,1.35s0.42,1.18,0.42,1.97c0,1.2-0.51,2.17-1.54,2.89c-1.02,0.72-2.5,1.08-4.44,1.08
		C284.78,24.58,283.74,24.47,282.63,24.24z"/>
</g>
<g>
	<g>
		<polygon points="236.8,104.66 240.91,108.61 249.13,100.63 251.3,102.89 240.99,113.2 234.62,106.92 		"/>
		<polygon points="255.43,100.63 259.85,105.05 264.27,100.63 266.21,102.5 261.86,106.87 266.21,111.34 264.27,113.2 
			259.85,108.78 255.43,113.2 253.64,111.27 257.99,106.92 253.64,102.64 		"/>
	</g>
</g>
<ellipse transform="matrix(0.1602 -0.9871 0.9871 0.1602 267.7186 528.5098)" class="st0" cx="444.45" cy="106.92" rx="21.83" ry="21.83"/>
<g class="st1">
	<path class="st2" d="M419.44,23.33c-1.6-0.84-2.84-2.03-3.72-3.58c-0.88-1.55-1.33-3.36-1.33-5.43s0.44-3.88,1.33-5.43
		c0.88-1.55,2.12-2.75,3.72-3.59c1.6-0.85,3.43-1.27,5.5-1.27c2.73,0,5,0.65,6.82,1.95v3.41c-1.63-1.39-3.81-2.09-6.51-2.09
		c-1.45,0-2.72,0.29-3.81,0.86s-1.94,1.39-2.54,2.44c-0.6,1.05-0.9,2.29-0.9,3.72c0,1.43,0.31,2.67,0.92,3.72s1.46,1.87,2.55,2.44
		c1.09,0.57,2.35,0.86,3.78,0.86c1.39,0,2.63-0.17,3.72-0.52c1.09-0.35,2.09-0.91,3.02-1.68v3.41c-1.73,1.35-4.08,2.03-7.05,2.03
		C422.87,24.58,421.04,24.16,419.44,23.33z"/>
	<path class="st2" d="M434.8,3.33h3.55v9.02c1.28-1.43,2.93-2.14,4.96-2.14c1.82,0,3.19,0.49,4.09,1.48c0.9,0.99,1.35,2.3,1.35,3.93
		v8.54h-3.55v-8.2c0-1.97-0.92-2.96-2.76-2.96c-0.81,0-1.57,0.19-2.28,0.58c-0.71,0.39-1.32,0.96-1.8,1.73v8.85h-3.55V3.33z"/>
	<path class="st2" d="M452.56,23.3c-1.03-0.86-1.55-2.01-1.55-3.45c0-1.5,0.49-2.68,1.47-3.52c0.98-0.85,2.35-1.27,4.12-1.27
		c1.71,0,3.19,0.35,4.43,1.04v-0.37c0-0.96-0.3-1.65-0.89-2.09c-0.59-0.43-1.55-0.65-2.86-0.65c-0.83,0-1.64,0.08-2.45,0.24
		c-0.81,0.16-1.52,0.38-2.14,0.66v-2.79c0.56-0.26,1.32-0.48,2.27-0.65c0.95-0.17,1.87-0.25,2.75-0.25c2.35,0,4.09,0.5,5.22,1.51
		c1.13,1.01,1.69,2.4,1.69,4.19v8.26h-3.36v-1.33c-0.58,0.56-1.25,1-1.99,1.3c-0.74,0.3-1.65,0.45-2.72,0.45
		C454.92,24.58,453.6,24.15,452.56,23.3z M459.55,21.52c0.64-0.31,1.13-0.74,1.47-1.28v-1.49c-1.03-0.73-2.22-1.1-3.55-1.1
		c-1.9,0-2.85,0.73-2.85,2.2c0,0.71,0.24,1.25,0.72,1.61c0.48,0.36,1.17,0.54,2.07,0.54C458.2,21.99,458.92,21.83,459.55,21.52z"/>
	<path class="st2" d="M469.2,23.34c-0.77-0.83-1.16-1.99-1.16-3.5v-6.51h-2.03v-2.71h2.03V6.57h3.55v4.06h3.24v2.71h-3.24v6.06
		c0,0.87,0.16,1.48,0.48,1.85c0.32,0.37,0.9,0.55,1.75,0.55c0.58,0,1.16-0.13,1.72-0.39v2.71c-0.81,0.32-1.79,0.48-2.96,0.48
		C471.09,24.58,469.97,24.17,469.2,23.34z"/>
</g>
<g>
	<g>
		<g>
			<path d="M452.86,112.99H453c1.05,0,2.1,0,3.16,0c0.12,0,0.24-0.01,0.35-0.03c0.95-0.19,1.64-1.03,1.64-2c0-1.88,0-3.76,0-5.64
				c0-0.54-0.2-1.01-0.57-1.4c-0.41-0.44-0.91-0.63-1.51-0.63c-1.19,0-2.38,0-3.56,0c-2.43,0-4.85,0-7.28,0
				c-0.6,0-1.11,0.19-1.52,0.63c-0.38,0.4-0.57,0.88-0.58,1.43c-0.01,1.87,0,3.73,0,5.6c0,0.12,0.02,0.25,0.04,0.37
				c0.18,0.97,1.02,1.69,1.99,1.68c1.71-0.01,3.42,0,5.13,0c0.07,0,0.12,0.02,0.17,0.08c0.38,0.46,0.77,0.91,1.15,1.37
				c0.31,0.37,0.63,0.74,0.94,1.11c0.05,0.06,0.11,0.1,0.2,0.07c0.08-0.03,0.12-0.09,0.12-0.18c0-0.03,0-0.05,0-0.07v-1.58v-0.81
				H452.86z"/>
			<path d="M430.76,100.77c0.04-0.17,0.06-0.34,0.11-0.51c0.32-1.05,1-1.74,2.08-2c0.2-0.05,0.41-0.06,0.61-0.06
				c4.19,0,8.38-0.01,12.57,0c1.22,0,2.05,0.61,2.56,1.69c0.16,0.34,0.23,0.69,0.24,1.07c0,0.42,0,0.85,0,1.29h-0.13
				c-1.54,0-3.08,0.01-4.62,0c-1.15-0.01-1.98,0.77-2.21,1.7c-0.05,0.18-0.08,0.37-0.08,0.56c-0.01,1.68,0,3.36,0,5.04
				c0,0.17,0.03,0.34,0.04,0.52h-0.11c-0.91,0-1.82,0-2.73,0c-0.08,0-0.13,0.02-0.18,0.08c-0.95,1.13-1.9,2.26-2.86,3.38
				c-0.07,0.08-0.13,0.17-0.26,0.14s-0.19-0.12-0.19-0.28c0-1.06,0-2.13,0-3.19v-0.14h-0.13c-0.64,0-1.28-0.01-1.92,0
				c-1.33,0.02-2.44-0.94-2.72-2.23c-0.03-0.12-0.04-0.24-0.07-0.36L430.76,100.77L430.76,100.77z"/>
			<path d="M452.86,112.99v0.79v1.58c0,0.02,0,0.05,0,0.07c0,0.09-0.04,0.15-0.12,0.18s-0.14-0.01-0.2-0.07
				c-0.31-0.37-0.63-0.74-0.94-1.11c-0.38-0.45-0.77-0.91-1.15-1.37c-0.05-0.06-0.1-0.08-0.17-0.08c-1.71,0-3.42-0.01-5.13,0
				c-0.97,0.01-1.81-0.72-1.99-1.68c-0.02-0.12-0.04-0.25-0.04-0.37c0-1.87-0.01-3.73,0-5.6c0-0.55,0.2-1.03,0.58-1.43
				c0.41-0.44,0.93-0.63,1.52-0.63c2.43,0,4.85,0,7.28,0c1.19,0,2.38,0,3.56,0c0.6,0,1.1,0.2,1.51,0.63
				c0.37,0.39,0.57,0.87,0.57,1.4c0.01,1.88,0,3.76,0,5.64c0,0.97-0.7,1.81-1.64,2c-0.11,0.02-0.23,0.03-0.35,0.03
				c-1.05,0-2.1,0-3.16,0h-0.13V112.99z"/>
		</g>
	</g>
</g>
</svg>
