<?xml version="1.0" encoding="utf-8"?>
<!-- Generator: Adobe Illustrator 23.0.1, SVG Export Plug-In . SVG Version: 6.00 Build 0)  -->
<svg version="1.1" id="Layer_1" xmlns="http://www.w3.org/2000/svg" xmlns:xlink="http://www.w3.org/1999/xlink" x="0px" y="0px"
	 viewBox="0 0 475.65 153.18" style="enable-background:new 0 0 475.65 153.18;" xml:space="preserve">
<style type="text/css">
	.st0{fill:#CCCCCC;}
	.st1{enable-background:new    ;}
	.st2{fill:#231F20;}
	.st3{fill:#EEFF00;}
</style>
<rect x="53.75" y="103.98" class="st0" width="390.3" height="5.86"/>
<circle cx="56.38" cy="106.92" r="46.26"/>
<g class="st1">
	<path class="st2" d="M1.83,4.45h7.58c2.12,0,3.8,0.53,5.03,1.59c1.23,1.06,1.85,2.57,1.85,4.52c0,1.99-0.61,3.5-1.83,4.52
		s-2.9,1.54-5.05,1.54H4.71v7.53H1.83V4.45z M9.11,14.24c1.31,0,2.36-0.27,3.13-0.82c0.77-0.54,1.16-1.49,1.16-2.85
		c0-1.35-0.39-2.31-1.16-2.86c-0.77-0.55-1.81-0.83-3.13-0.83h-4.4v7.36H9.11z"/>
	<path class="st2" d="M18.83,10.63h2.76v2.42c0.56-0.83,1.36-1.44,2.38-1.83c1.02-0.39,2.21-0.59,3.57-0.59v2.23
		c-1.45,0-2.69,0.24-3.72,0.71c-1.03,0.47-1.75,1.21-2.14,2.23v8.37h-2.85V10.63z"/>
	<path class="st2" d="M32.77,23.72c-1.16-0.57-2.06-1.4-2.71-2.48c-0.65-1.08-0.97-2.35-0.97-3.82c0-1.45,0.32-2.72,0.96-3.81
		c0.64-1.09,1.54-1.93,2.71-2.52c1.17-0.59,2.51-0.89,4.03-0.89s2.87,0.3,4.03,0.89c1.17,0.59,2.07,1.43,2.72,2.52
		c0.65,1.09,0.97,2.36,0.97,3.81c0,1.47-0.32,2.74-0.97,3.82c-0.65,1.08-1.56,1.91-2.72,2.48c-1.17,0.57-2.51,0.86-4.03,0.86
		S33.93,24.29,32.77,23.72z M40.28,20.97c0.86-0.9,1.3-2.09,1.3-3.55c0-1.52-0.43-2.73-1.3-3.61c-0.86-0.88-2.03-1.33-3.5-1.33
		s-2.63,0.44-3.5,1.33C32.43,14.7,32,15.9,32,17.42c0,1.47,0.43,2.65,1.3,3.55c0.86,0.9,2.03,1.35,3.5,1.35S39.42,21.88,40.28,20.97
		z"/>
	<path class="st2" d="M49.24,23.4c-0.74-0.79-1.11-1.91-1.11-3.36v-7.22h-2.06v-2.2h2.06V6.57H51v4.06h3.33v2.2H51v7.02
		c0,0.9,0.17,1.54,0.52,1.92s0.98,0.56,1.9,0.56c0.54,0,1.09-0.12,1.64-0.37v2.26c-0.71,0.24-1.6,0.37-2.65,0.37
		C51.03,24.58,49.98,24.19,49.24,23.4z"/>
	<path class="st2" d="M60.71,23.72c-1.16-0.57-2.06-1.4-2.71-2.48c-0.65-1.08-0.97-2.35-0.97-3.82c0-1.45,0.32-2.72,0.96-3.81
		c0.64-1.09,1.54-1.93,2.71-2.52c1.17-0.59,2.51-0.89,4.03-0.89s2.87,0.3,4.03,0.89c1.17,0.59,2.07,1.43,2.72,2.52
		c0.65,1.09,0.97,2.36,0.97,3.81c0,1.47-0.32,2.74-0.97,3.82c-0.65,1.08-1.56,1.91-2.72,2.48c-1.17,0.57-2.51,0.86-4.03,0.86
		S61.86,24.29,60.71,23.72z M68.22,20.97c0.86-0.9,1.3-2.09,1.3-3.55c0-1.52-0.43-2.73-1.3-3.61c-0.86-0.88-2.03-1.33-3.5-1.33
		s-2.63,0.44-3.5,1.33c-0.86,0.88-1.3,2.09-1.3,3.61c0,1.47,0.43,2.65,1.3,3.55c0.86,0.9,2.03,1.35,3.5,1.35
		S67.36,21.88,68.22,20.97z"/>
	<path class="st2" d="M78.26,23.74c-1.17-0.56-2.07-1.39-2.72-2.47c-0.65-1.08-0.97-2.36-0.97-3.85s0.32-2.77,0.97-3.85
		c0.65-1.08,1.56-1.91,2.73-2.5c1.17-0.58,2.52-0.87,4.05-0.87c2.07,0,3.72,0.41,4.96,1.21v2.34c-1.22-0.85-2.78-1.27-4.68-1.27
		c-1.54,0-2.79,0.42-3.74,1.25c-0.95,0.84-1.42,2.06-1.42,3.68s0.47,2.84,1.41,3.66c0.94,0.83,2.17,1.24,3.69,1.24
		c1.9,0,3.53-0.45,4.91-1.35v2.31c-0.66,0.45-1.41,0.78-2.24,0.99c-0.84,0.21-1.82,0.31-2.95,0.31
		C80.76,24.58,79.42,24.3,78.26,23.74z"/>
	<path class="st2" d="M93.24,23.72c-1.16-0.57-2.06-1.4-2.71-2.48c-0.65-1.08-0.97-2.35-0.97-3.82c0-1.45,0.32-2.72,0.96-3.81
		c0.64-1.09,1.54-1.93,2.71-2.52c1.17-0.59,2.51-0.89,4.03-0.89s2.87,0.3,4.03,0.89c1.17,0.59,2.07,1.43,2.72,2.52
		c0.65,1.09,0.97,2.36,0.97,3.81c0,1.47-0.32,2.74-0.97,3.82c-0.65,1.08-1.56,1.91-2.72,2.48c-1.17,0.57-2.51,0.86-4.03,0.86
		S94.4,24.29,93.24,23.72z M100.75,20.97c0.86-0.9,1.3-2.09,1.3-3.55c0-1.52-0.43-2.73-1.3-3.61c-0.86-0.88-2.03-1.33-3.5-1.33
		s-2.63,0.44-3.5,1.33c-0.86,0.88-1.3,2.09-1.3,3.61c0,1.47,0.43,2.65,1.3,3.55c0.86,0.9,2.03,1.35,3.5,1.35
		S99.89,21.88,100.75,20.97z"/>
	<path class="st2" d="M108.08,3.33h2.85v20.83h-2.85V3.33z"/>
</g>
<path class="st3" d="M78.39,80.66c-0.01-1.23-0.99-2.21-2.22-2.22l-39.7,0.01c-0.3,0-0.61,0.11-0.88,0.24
	c-0.84,0.44-1.22,1.18-1.22,2.11c0,5.05,0,10.1,0,15.15c0,10.78,0,21.56,0,32.34c0,1.62-0.01,3.25,0.01,4.87
	c0.01,1.3,1.14,2.21,2.24,2.21c1.36,0.01,2.71-0.02,4.07-0.03c1.06-0.01,2.13-0.01,3.19,0c0.51,0,1.03,0.04,1.54,0.04
	c1.38-0.01,2.76-0.03,4.14-0.04c1.08-0.01,2.16-0.01,3.24,0c0.5,0,1,0.04,1.49,0.04c1.35-0.01,2.69-0.03,4.04-0.04
	c1.07-0.01,2.15-0.01,3.22,0c0.52,0,1.05,0.04,1.57,0.04c1.24-0.01,2.49-0.03,3.73-0.04c1.31-0.01,2.63,0,3.94,0
	c0.49,0,0.98,0.03,1.47,0.03c0.56,0,1.12-0.02,1.67-0.03c0.81-0.01,1.61,0.01,2.42-0.02c0.25-0.01,0.52-0.08,0.74-0.19
	c0.86-0.44,1.29-1.16,1.29-2.12c0-8.7,0-17.4,0-26.1l0,0c0-7.51,0-15.01,0-22.52C78.39,83.15,78.4,81.91,78.39,80.66 M40.34,91
	c0-0.52,0.31-1,0.77-1.17c0.52-0.19,1.06-0.04,1.43,0.42c0.43,0.55,0.85,1.12,1.27,1.68c0.29,0.39,0.34,0.39,0.61,0.02
	c0.9-1.24,1.84-2.46,2.76-3.69c0.23-0.3,0.46-0.6,0.69-0.9c0.32-0.42,0.73-0.62,1.26-0.5c0.55,0.13,0.88,0.48,0.98,1.04
	c0.07,0.37-0.07,0.69-0.29,0.98c-0.79,1.04-1.57,2.08-2.36,3.13c-0.72,0.96-1.43,1.93-2.15,2.89c-0.31,0.41-0.65,0.76-1.23,0.71
	c-0.41-0.03-0.73-0.19-0.97-0.5c-0.85-1.11-1.69-2.23-2.51-3.36c-0.15-0.21-0.22-0.48-0.32-0.73C40.3,91.02,40.32,91.01,40.34,91
	 M49.89,120.39c-0.75,1.02-1.52,2.03-2.29,3.05c-0.81,1.07-1.61,2.14-2.43,3.2c-0.16,0.2-0.38,0.38-0.61,0.49
	c-0.51,0.24-1.01,0.11-1.36-0.33c-0.45-0.56-0.88-1.14-1.32-1.71c-0.43-0.56-0.86-1.11-1.27-1.69c-0.15-0.22-0.22-0.5-0.33-0.75
	c0.02-0.01,0.05-0.02,0.07-0.03c0-0.53,0.27-0.96,0.69-1.14c0.56-0.22,1.02-0.14,1.41,0.28c0.16,0.17,0.3,0.36,0.44,0.54
	c0.35,0.45,0.69,0.9,1.03,1.35c0.17,0.22,0.24,0.23,0.41,0.01c0.48-0.62,0.95-1.24,1.42-1.87c0.72-0.95,1.44-1.91,2.16-2.85
	c0.42-0.54,1.17-0.64,1.72-0.23C50.17,119.1,50.3,119.83,49.89,120.39 M49.9,109.9c-0.81,1.11-1.63,2.21-2.46,3.31
	c-0.7,0.94-1.4,1.89-2.13,2.81c-0.2,0.26-0.47,0.46-0.74,0.66c-0.11,0.09-0.29,0.09-0.43,0.13c-0.32-0.01-0.59-0.13-0.79-0.35
	c-0.33-0.37-0.65-0.75-0.95-1.15c-0.61-0.8-1.21-1.6-1.81-2.41c-0.32-0.43-0.35-1.06-0.08-1.44c0.34-0.48,0.87-0.7,1.42-0.5
	c0.24,0.08,0.46,0.27,0.63,0.46c0.4,0.49,0.77,1.01,1.15,1.52c0.04,0.05,0.07,0.1,0.11,0.15c0.28,0.36,0.3,0.37,0.58,0
	c1.15-1.52,2.31-3.03,3.44-4.56c0.37-0.49,0.86-0.6,1.39-0.49c0.47,0.1,0.75,0.45,0.87,0.92C50.18,109.31,50.1,109.63,49.9,109.9
	 M49.82,99.59c-1.56,2.06-3.12,4.12-4.68,6.18c-0.44,0.58-1.16,0.72-1.7,0.34c-0.16-0.12-0.31-0.28-0.43-0.44
	c-0.73-0.95-1.45-1.91-2.17-2.88c-0.26-0.34-0.48-0.69-0.5-1.16c-0.02-0.63,0.65-1.27,1.21-1.18c0.5-0.03,0.84,0.25,1.13,0.63
	c0.42,0.56,0.85,1.12,1.28,1.68c0.16,0.21,0.22,0.2,0.38-0.02c0.88-1.17,1.76-2.33,2.64-3.49c0.3-0.4,0.6-0.81,0.91-1.22
	c0.32-0.42,0.75-0.61,1.27-0.49c0.55,0.13,0.86,0.52,0.97,1.06C50.19,98.97,50.04,99.3,49.82,99.59 M52.29,92.01
	c0.07-0.87,0.59-1.45,1.41-1.72c0.18-0.06,0.39-0.04,0.59-0.04c2.73,0,5.46,0,8.19,0c2.72,0,5.45,0.03,8.17-0.02
	c0.96-0.01,1.84,0.73,2,1.72c0.12,0.77-0.49,1.77-1.28,2.03c-0.26,0.08-0.54,0.14-0.8,0.14c-5.37,0.01-10.74,0.01-16.11,0.01
	c-0.46,0-0.91-0.06-1.3-0.32C52.52,93.37,52.24,92.74,52.29,92.01 M53.51,101.04c0.24-0.08,0.5-0.13,0.75-0.13
	c2.75-0.01,5.5-0.01,8.24-0.01v0.01c2.75,0,5.5,0.01,8.24-0.01c1.16-0.01,1.95,1.11,1.91,2.02c-0.04,1-0.92,1.86-1.92,1.86
	c-5.13,0-10.27,0-15.41,0c-0.38,0-0.76-0.01-1.13,0.01c-0.82,0.03-1.79-0.66-1.92-1.74C52.19,102.26,52.69,101.33,53.51,101.04
	 M70.83,115.44c-1.78,0.03-3.56,0.01-5.33,0.01c-1.03,0-2.06,0-3.09,0l0,0c-2.71,0-5.41-0.02-8.12,0.01
	c-1.02,0.01-1.78-0.75-1.93-1.41c-0.24-0.98,0.14-1.83,1.04-2.29c0.19-0.1,0.41-0.17,0.61-0.17c0.94-0.02,1.89-0.01,2.83-0.02
	c0.44,0,0.87-0.03,1.31-0.03c1.32,0,2.64,0,3.97,0c0.81,0,1.61,0,2.42,0c1.42,0.01,2.85,0.03,4.27,0.04c0.57,0,1.15-0.05,1.72-0.03
	c0.83,0.02,1.49,0.35,1.9,1.11C73.08,113.85,72.19,115.42,70.83,115.44 M71.53,125.95c-0.44,0.17-0.93,0.19-1.4,0.28
	c0-0.03-0.01-0.07-0.01-0.1c-1.24,0-2.49,0-3.73,0c-0.66,0-1.32,0.04-1.98,0.04c-1.31,0-2.62-0.03-3.94-0.03
	c-0.49,0-0.98,0.03-1.47,0.04c-0.99,0.01-1.97,0.01-2.96,0c-0.63,0-1.27-0.05-1.9-0.03c-0.85,0.03-1.57-0.67-1.79-1.44
	c-0.32-1.12,0.47-2.26,1.61-2.43c0.19-0.03,0.38-0.05,0.56-0.05c1.19,0.01,2.38,0.03,3.58,0.04c0.45,0,0.91-0.04,1.36-0.04
	c1.22-0.01,2.44,0,3.65,0h2.57c1.12,0,2.23,0,3.35,0c0.59,0,1.18,0.02,1.78,0.04c0.89,0.04,1.66,0.75,1.83,1.68
	C72.78,124.68,72.28,125.66,71.53,125.95"/>
<circle class="st0" cx="250.42" cy="106.92" r="21.83"/>
<g class="st1">
	<path class="st2" d="M213.69,24.29c-1.1-0.2-2-0.46-2.69-0.8v-2.59c1.8,0.85,3.75,1.27,5.84,1.27c2.93,0,4.4-0.99,4.4-2.96
		c0-0.68-0.16-1.22-0.48-1.63c-0.32-0.41-0.78-0.78-1.38-1.08c-0.6-0.31-1.58-0.74-2.93-1.28c-1.86-0.75-3.2-1.58-4.03-2.48
		c-0.83-0.9-1.24-2.04-1.24-3.41c0-1.03,0.28-1.95,0.85-2.75c0.56-0.8,1.35-1.42,2.37-1.86c1.02-0.44,2.18-0.66,3.5-0.66
		c1.07,0,2.04,0.08,2.9,0.25c0.86,0.17,1.71,0.44,2.54,0.82v2.48c-1.63-0.73-3.29-1.1-4.96-1.1c-1.35,0-2.39,0.24-3.1,0.73
		c-0.71,0.49-1.07,1.18-1.07,2.09c0,0.62,0.16,1.14,0.47,1.56s0.77,0.8,1.38,1.13c0.61,0.33,1.52,0.74,2.72,1.23
		c1.33,0.55,2.39,1.06,3.16,1.55c0.77,0.49,1.36,1.08,1.76,1.79c0.4,0.71,0.61,1.58,0.61,2.64c0,1.71-0.61,3.04-1.83,3.98
		c-1.22,0.94-3.03,1.41-5.41,1.41C215.9,24.58,214.79,24.48,213.69,24.29z"/>
	<path class="st2" d="M228.43,23.4c-0.74-0.79-1.11-1.91-1.11-3.36v-7.22h-2.06v-2.2h2.06V6.57h2.88v4.06h3.33v2.2h-3.33v7.02
		c0,0.9,0.17,1.54,0.52,1.92s0.98,0.56,1.9,0.56c0.54,0,1.09-0.12,1.64-0.37v2.26c-0.71,0.24-1.6,0.37-2.65,0.37
		C230.23,24.58,229.17,24.19,228.43,23.4z"/>
	<path class="st2" d="M237.42,23.33c-0.99-0.84-1.48-1.97-1.48-3.4c0-1.5,0.47-2.66,1.42-3.48c0.95-0.82,2.3-1.23,4.05-1.23
		c1.86,0,3.44,0.38,4.74,1.13v-0.71c0-1.07-0.32-1.87-0.97-2.38c-0.65-0.52-1.67-0.78-3.06-0.78c-0.83,0-1.63,0.08-2.41,0.24
		c-0.78,0.16-1.48,0.38-2.1,0.66v-2.31c0.56-0.26,1.3-0.47,2.2-0.63c0.9-0.16,1.78-0.24,2.62-0.24c2.24,0,3.89,0.49,4.98,1.48
		c1.08,0.99,1.62,2.35,1.62,4.1v8.37h-2.68v-1.52c-0.58,0.64-1.27,1.12-2.07,1.45c-0.8,0.33-1.77,0.49-2.92,0.49
		C239.72,24.58,238.41,24.16,237.42,23.33z M244.51,21.88c0.73-0.36,1.28-0.86,1.63-1.49v-1.83c-1.22-0.79-2.58-1.18-4.09-1.18
		c-1.09,0-1.9,0.21-2.44,0.63s-0.8,1.07-0.8,1.93c0,1.65,1.08,2.48,3.24,2.48C242.96,22.41,243.78,22.23,244.51,21.88z"/>
	<path class="st2" d="M253.89,23.4c-0.74-0.79-1.11-1.91-1.11-3.36v-7.22h-2.06v-2.2h2.06V6.57h2.88v4.06h3.33v2.2h-3.33v7.02
		c0,0.9,0.17,1.54,0.52,1.92s0.98,0.56,1.9,0.56c0.54,0,1.09-0.12,1.64-0.37v2.26c-0.71,0.24-1.6,0.37-2.65,0.37
		C255.69,24.58,254.63,24.19,253.89,23.4z"/>
	<path class="st2" d="M263.5,23.12c-0.93-0.98-1.4-2.28-1.4-3.92v-8.57h2.85v8.46c0,2.16,1.08,3.24,3.24,3.24
		c1.9,0,3.38-0.86,4.45-2.57v-9.13h2.85v13.53h-2.76v-1.92c-0.64,0.81-1.4,1.4-2.27,1.78c-0.87,0.38-1.82,0.56-2.83,0.56
		C265.81,24.58,264.43,24.09,263.5,23.12z"/>
	<path class="st2" d="M281.16,24.23c-1.05-0.23-1.88-0.55-2.48-0.94v-2.42c0.73,0.43,1.58,0.79,2.54,1.06
		c0.96,0.27,1.89,0.41,2.79,0.41c1.02,0,1.76-0.12,2.23-0.37c0.47-0.24,0.71-0.64,0.71-1.18c0-0.41-0.11-0.75-0.32-1
		c-0.22-0.25-0.58-0.48-1.1-0.69c-0.52-0.21-1.29-0.45-2.33-0.73c-1.11-0.32-1.99-0.64-2.64-0.97c-0.65-0.33-1.14-0.75-1.47-1.25
		c-0.33-0.51-0.49-1.17-0.49-1.97c0-1.3,0.51-2.28,1.54-2.95c1.02-0.67,2.4-1,4.13-1c0.9,0,1.79,0.08,2.65,0.25
		c0.86,0.17,1.56,0.4,2.09,0.71v2.37c-0.54-0.32-1.22-0.57-2.02-0.76c-0.8-0.19-1.61-0.28-2.44-0.28c-1,0-1.76,0.12-2.28,0.37
		c-0.53,0.24-0.79,0.68-0.79,1.3c0,0.39,0.11,0.71,0.34,0.96c0.23,0.25,0.59,0.46,1.08,0.63s1.29,0.41,2.38,0.69
		c1.71,0.47,2.9,1.02,3.57,1.66c0.67,0.64,1,1.52,1,2.65c0,1.17-0.48,2.1-1.44,2.79c-0.96,0.7-2.38,1.04-4.26,1.04
		C283.21,24.58,282.21,24.46,281.16,24.23z"/>
</g>
<g>
	<g>
		<polygon points="236.8,104.66 240.91,108.61 249.13,100.63 251.3,102.89 240.99,113.2 234.62,106.92 		"/>
		<polygon points="255.43,100.63 259.85,105.05 264.27,100.63 266.21,102.5 261.86,106.87 266.21,111.34 264.27,113.2 
			259.85,108.78 255.43,113.2 253.64,111.27 257.99,106.92 253.64,102.64 		"/>
	</g>
</g>
<ellipse transform="matrix(0.1602 -0.9871 0.9871 0.1602 267.7186 528.5098)" class="st0" cx="444.45" cy="106.92" rx="21.83" ry="21.83"/>
<g class="st1">
	<path class="st2" d="M419.55,23.31c-1.58-0.85-2.81-2.04-3.69-3.59c-0.88-1.55-1.33-3.35-1.33-5.4c0-2.05,0.44-3.85,1.33-5.41
		c0.88-1.56,2.11-2.76,3.69-3.61c1.58-0.85,3.38-1.27,5.41-1.27c2.71,0,4.97,0.69,6.79,2.06v2.76c-1.63-1.45-3.82-2.17-6.54-2.17
		c-1.52,0-2.87,0.31-4.04,0.93c-1.17,0.62-2.09,1.51-2.75,2.66c-0.66,1.16-0.99,2.5-0.99,4.04s0.33,2.89,1,4.06
		c0.67,1.17,1.59,2.06,2.76,2.68c1.17,0.62,2.51,0.93,4.02,0.93c1.39,0,2.64-0.18,3.74-0.55c1.1-0.37,2.12-0.95,3.06-1.76v2.79
		c-1.69,1.41-4.04,2.11-7.05,2.11C422.94,24.58,421.13,24.16,419.55,23.31z"/>
	<path class="st2" d="M435.11,3.33h2.85v9.16c1.3-1.52,3.03-2.28,5.19-2.28c1.8,0,3.15,0.48,4.03,1.44
		c0.88,0.96,1.33,2.25,1.33,3.86v8.65h-2.85v-8.37c0-2.2-1.05-3.3-3.16-3.3c-0.9,0-1.74,0.21-2.52,0.63
		c-0.78,0.42-1.45,1.07-2.02,1.93v9.11h-2.85V3.33z"/>
	<path class="st2" d="M452.52,23.33c-0.99-0.84-1.48-1.97-1.48-3.4c0-1.5,0.47-2.66,1.42-3.48s2.3-1.23,4.05-1.23
		c1.86,0,3.44,0.38,4.74,1.13v-0.71c0-1.07-0.32-1.87-0.97-2.38c-0.65-0.52-1.67-0.78-3.06-0.78c-0.83,0-1.63,0.08-2.41,0.24
		c-0.78,0.16-1.48,0.38-2.1,0.66v-2.31c0.56-0.26,1.3-0.47,2.2-0.63c0.9-0.16,1.78-0.24,2.62-0.24c2.24,0,3.89,0.49,4.98,1.48
		c1.08,0.99,1.62,2.35,1.62,4.1v8.37h-2.68v-1.52c-0.58,0.64-1.27,1.12-2.07,1.45c-0.8,0.33-1.77,0.49-2.92,0.49
		C454.82,24.58,453.51,24.16,452.52,23.33z M459.61,21.88c0.73-0.36,1.28-0.86,1.63-1.49v-1.83c-1.22-0.79-2.58-1.18-4.09-1.18
		c-1.09,0-1.9,0.21-2.44,0.63c-0.54,0.42-0.8,1.07-0.8,1.93c0,1.65,1.08,2.48,3.24,2.48C458.06,22.41,458.88,22.23,459.61,21.88z"/>
	<path class="st2" d="M468.99,23.4c-0.74-0.79-1.11-1.91-1.11-3.36v-7.22h-2.06v-2.2h2.06V6.57h2.88v4.06h3.33v2.2h-3.33v7.02
		c0,0.9,0.17,1.54,0.52,1.92s0.98,0.56,1.9,0.56c0.54,0,1.09-0.12,1.64-0.37v2.26c-0.71,0.24-1.6,0.37-2.65,0.37
		C470.78,24.58,469.73,24.19,468.99,23.4z"/>
</g>
<g>
	<g>
		<g>
			<path d="M452.86,112.99H453c1.05,0,2.1,0,3.16,0c0.12,0,0.24-0.01,0.35-0.03c0.95-0.19,1.64-1.03,1.64-2c0-1.88,0-3.76,0-5.64
				c0-0.54-0.2-1.01-0.57-1.4c-0.41-0.44-0.91-0.63-1.51-0.63c-1.19,0-2.38,0-3.56,0c-2.43,0-4.85,0-7.28,0
				c-0.6,0-1.11,0.19-1.52,0.63c-0.38,0.4-0.57,0.88-0.58,1.43c-0.01,1.87,0,3.73,0,5.6c0,0.12,0.02,0.25,0.04,0.37
				c0.18,0.97,1.02,1.69,1.99,1.68c1.71-0.01,3.42,0,5.13,0c0.07,0,0.12,0.02,0.17,0.08c0.38,0.46,0.77,0.91,1.15,1.37
				c0.31,0.37,0.63,0.74,0.94,1.11c0.05,0.06,0.11,0.1,0.2,0.07c0.08-0.03,0.12-0.09,0.12-0.18c0-0.03,0-0.05,0-0.07v-1.58v-0.81
				H452.86z"/>
			<path d="M430.76,100.77c0.04-0.17,0.06-0.34,0.11-0.51c0.32-1.05,1-1.74,2.08-2c0.2-0.05,0.41-0.06,0.61-0.06
				c4.19,0,8.38-0.01,12.57,0c1.22,0,2.05,0.61,2.56,1.69c0.16,0.34,0.23,0.69,0.24,1.07c0,0.42,0,0.85,0,1.29h-0.13
				c-1.54,0-3.08,0.01-4.62,0c-1.15-0.01-1.98,0.77-2.21,1.7c-0.05,0.18-0.08,0.37-0.08,0.56c-0.01,1.68,0,3.36,0,5.04
				c0,0.17,0.03,0.34,0.04,0.52h-0.11c-0.91,0-1.82,0-2.73,0c-0.08,0-0.13,0.02-0.18,0.08c-0.95,1.13-1.9,2.26-2.86,3.38
				c-0.07,0.08-0.13,0.17-0.26,0.14s-0.19-0.12-0.19-0.28c0-1.06,0-2.13,0-3.19v-0.14h-0.13c-0.64,0-1.28-0.01-1.92,0
				c-1.33,0.02-2.44-0.94-2.72-2.23c-0.03-0.12-0.04-0.24-0.07-0.36L430.76,100.77L430.76,100.77z"/>
			<path d="M452.86,112.99v0.79v1.58c0,0.02,0,0.05,0,0.07c0,0.09-0.04,0.15-0.12,0.18s-0.14-0.01-0.2-0.07
				c-0.31-0.37-0.63-0.74-0.94-1.11c-0.38-0.45-0.77-0.91-1.15-1.37c-0.05-0.06-0.1-0.08-0.17-0.08c-1.71,0-3.42-0.01-5.13,0
				c-0.97,0.01-1.81-0.72-1.99-1.68c-0.02-0.12-0.04-0.25-0.04-0.37c0-1.87-0.01-3.73,0-5.6c0-0.55,0.2-1.03,0.58-1.43
				c0.41-0.44,0.93-0.63,1.52-0.63c2.43,0,4.85,0,7.28,0c1.19,0,2.38,0,3.56,0c0.6,0,1.1,0.2,1.51,0.63
				c0.37,0.39,0.57,0.87,0.57,1.4c0.01,1.88,0,3.76,0,5.64c0,0.97-0.7,1.81-1.64,2c-0.11,0.02-0.23,0.03-0.35,0.03
				c-1.05,0-2.1,0-3.16,0h-0.13V112.99z"/>
		</g>
	</g>
</g>
</svg>
