<?xml version="1.0" encoding="utf-8"?>
<!-- Generator: Adobe Illustrator 23.0.1, SVG Export Plug-In . SVG Version: 6.00 Build 0)  -->
<svg version="1.1" id="Layer_1" xmlns="http://www.w3.org/2000/svg" xmlns:xlink="http://www.w3.org/1999/xlink" x="0px" y="0px"
	 viewBox="0 0 121.9 80.8" style="enable-background:new 0 0 121.9 80.8;" xml:space="preserve">
<style type="text/css">
	.st0{fill:#00DD00;}
	.st1{fill:#231F20;}
</style>
<polygon class="st0" points="8.4,15.5 24.1,30.6 55.7,0 64.1,8.7 24.4,48.3 0,24.1 "/>
<polygon class="st1" points="79.9,0 96.9,17 113.9,0 121.3,7.2 104.6,24 121.3,41.1 113.9,48.3 96.9,31.3 79.9,48.3 73,40.8 
	89.7,24.1 73,7.7 "/>
<g>
	<path class="st1" d="M4.5,65.5H0.6v-1.9h10.2v1.9H6.9v11H4.5V65.5z"/>
	<path class="st1" d="M12.3,76.2c-0.8-0.4-1.4-0.9-1.8-1.6c-0.4-0.7-0.6-1.6-0.6-2.5c0-1,0.2-1.8,0.6-2.5s1-1.3,1.8-1.6
		c0.8-0.4,1.7-0.6,2.7-0.6s1.9,0.2,2.7,0.6c0.8,0.4,1.4,0.9,1.8,1.6c0.4,0.7,0.6,1.5,0.6,2.5c0,1-0.2,1.8-0.6,2.5
		c-0.4,0.7-1,1.3-1.8,1.6c-0.8,0.4-1.7,0.6-2.7,0.6S13,76.6,12.3,76.2z M17,74.2c0.5-0.5,0.8-1.2,0.8-2.1c0-0.9-0.3-1.6-0.7-2.1
		c-0.5-0.5-1.2-0.8-2-0.8s-1.5,0.3-2,0.8c-0.5,0.5-0.7,1.2-0.7,2.1c0,0.9,0.3,1.5,0.8,2.1c0.5,0.5,1.2,0.8,2,0.8
		C15.8,75,16.5,74.7,17,74.2z"/>
	<path class="st1" d="M25,80.6c-0.6-0.1-1.1-0.3-1.5-0.4v-1.9c1,0.4,2,0.6,3.3,0.6c1.1,0,1.9-0.2,2.3-0.7c0.5-0.5,0.7-1.1,0.7-2
		v-0.6c-0.4,0.4-0.9,0.7-1.5,0.9c-0.6,0.2-1.2,0.3-1.9,0.3c-0.9,0-1.7-0.2-2.4-0.6c-0.7-0.4-1.3-1-1.7-1.7s-0.6-1.5-0.6-2.5
		c0-0.9,0.2-1.8,0.6-2.5c0.4-0.7,1-1.3,1.7-1.6c0.7-0.4,1.5-0.6,2.4-0.6c0.8,0,1.4,0.1,1.9,0.3s1.1,0.5,1.6,1v-1h2.3V76
		c0,1.5-0.4,2.7-1.3,3.5c-0.9,0.8-2.2,1.2-4.1,1.2C26.1,80.8,25.6,80.7,25,80.6z M28.7,74.4c0.5-0.4,0.9-0.8,1.1-1.5v-1.8
		c-0.2-0.6-0.6-1.1-1.1-1.4c-0.5-0.4-1.1-0.5-1.8-0.5c-0.8,0-1.5,0.3-2.1,0.8c-0.5,0.5-0.8,1.2-0.8,2.1c0,0.9,0.3,1.5,0.8,2.1
		c0.5,0.5,1.2,0.8,2.1,0.8C27.6,75,28.2,74.8,28.7,74.4z"/>
	<path class="st1" d="M37.3,80.6c-0.6-0.1-1.1-0.3-1.5-0.4v-1.9c1,0.4,2,0.6,3.3,0.6c1.1,0,1.9-0.2,2.3-0.7c0.5-0.5,0.7-1.1,0.7-2
		v-0.6c-0.4,0.4-0.9,0.7-1.5,0.9c-0.6,0.2-1.2,0.3-1.9,0.3c-0.9,0-1.7-0.2-2.4-0.6c-0.7-0.4-1.3-1-1.7-1.7C34.2,73.8,34,73,34,72.1
		c0-0.9,0.2-1.8,0.6-2.5c0.4-0.7,1-1.3,1.7-1.6c0.7-0.4,1.5-0.6,2.4-0.6c0.8,0,1.4,0.1,1.9,0.3c0.5,0.2,1.1,0.5,1.6,1v-1h2.3V76
		c0,1.5-0.4,2.7-1.3,3.5s-2.2,1.2-4.1,1.2C38.5,80.8,37.9,80.7,37.3,80.6z M41,74.4c0.5-0.4,0.9-0.8,1.1-1.5v-1.8
		c-0.2-0.6-0.6-1.1-1.1-1.4c-0.5-0.4-1.1-0.5-1.8-0.5c-0.8,0-1.5,0.3-2.1,0.8c-0.5,0.5-0.8,1.2-0.8,2.1c0,0.9,0.3,1.5,0.8,2.1
		c0.5,0.5,1.2,0.8,2.1,0.8C39.9,75,40.5,74.8,41,74.4z"/>
	<path class="st1" d="M46.7,62.8H49v13.7h-2.3V62.8z"/>
	<path class="st1" d="M52.3,75.6c-1-0.8-1.4-2-1.4-3.5c0-1.5,0.4-2.6,1.3-3.5c0.9-0.9,2.1-1.3,3.6-1.3c1,0,1.9,0.2,2.7,0.6
		s1.3,0.9,1.7,1.6c0.4,0.7,0.6,1.5,0.6,2.3V73h-7.6c0.2,1.3,1.3,2,3.4,2c0.6,0,1.1,0,1.7-0.1c0.6-0.1,1.1-0.2,1.6-0.4v1.8
		c-0.4,0.2-1,0.3-1.6,0.4c-0.7,0.1-1.3,0.2-2,0.2C54.6,76.8,53.3,76.4,52.3,75.6z M58.4,71.4c0-0.7-0.3-1.2-0.7-1.6
		c-0.5-0.4-1.1-0.6-2-0.6c-0.8,0-1.5,0.2-1.9,0.6s-0.7,0.9-0.7,1.6H58.4z"/>
	<path class="st1" d="M70.6,76.6c-0.7-0.1-1.4-0.3-1.8-0.6v-2c0.6,0.3,1.3,0.5,1.9,0.7c0.7,0.1,1.3,0.2,2,0.2c0.8,0,1.5-0.2,1.9-0.5
		c0.4-0.3,0.6-0.7,0.6-1.3c0-0.4-0.1-0.7-0.3-1s-0.5-0.5-0.9-0.7c-0.4-0.2-1-0.4-1.8-0.7c-1.2-0.5-2.1-1-2.6-1.6
		c-0.5-0.6-0.8-1.4-0.8-2.3c0-0.7,0.2-1.3,0.6-1.9c0.4-0.5,0.9-1,1.6-1.3c0.7-0.3,1.5-0.4,2.4-0.4c0.7,0,1.4,0.1,2,0.2
		c0.6,0.1,1.1,0.3,1.7,0.5v2c-1.1-0.5-2.2-0.8-3.3-0.8c-0.8,0-1.4,0.1-1.8,0.4c-0.4,0.3-0.6,0.7-0.6,1.2c0,0.4,0.1,0.7,0.3,0.9
		c0.2,0.2,0.5,0.4,0.8,0.6c0.3,0.2,0.9,0.4,1.8,0.8c0.9,0.4,1.5,0.7,2,1.1c0.5,0.3,0.9,0.7,1.1,1.2c0.3,0.5,0.4,1,0.4,1.7
		c0,1.1-0.4,2-1.2,2.7c-0.8,0.6-2,1-3.7,1C72.1,76.8,71.4,76.7,70.6,76.6z"/>
	<path class="st1" d="M80.4,76c-0.5-0.5-0.8-1.3-0.8-2.3v-4.3h-1.3v-1.8h1.3V65H82v2.7h2.1v1.8H82v4c0,0.6,0.1,1,0.3,1.2
		c0.2,0.2,0.6,0.4,1.1,0.4c0.4,0,0.8-0.1,1.1-0.3v1.8c-0.5,0.2-1.2,0.3-1.9,0.3C81.6,76.8,80.9,76.5,80.4,76z"/>
	<path class="st1" d="M86.6,76c-0.7-0.6-1-1.3-1-2.3c0-1,0.3-1.8,1-2.3c0.6-0.6,1.5-0.8,2.7-0.8c1.1,0,2.1,0.2,2.9,0.7V71
		c0-0.6-0.2-1.1-0.6-1.4c-0.4-0.3-1-0.4-1.9-0.4c-0.5,0-1.1,0.1-1.6,0.2c-0.5,0.1-1,0.3-1.4,0.4v-1.8c0.4-0.2,0.9-0.3,1.5-0.4
		c0.6-0.1,1.2-0.2,1.8-0.2c1.5,0,2.7,0.3,3.4,1c0.7,0.7,1.1,1.6,1.1,2.8v5.4h-2.2v-0.9c-0.4,0.4-0.8,0.7-1.3,0.9
		c-0.5,0.2-1.1,0.3-1.8,0.3C88.1,76.8,87.3,76.5,86.6,76z M91.2,74.8c0.4-0.2,0.7-0.5,1-0.8v-1c-0.7-0.5-1.5-0.7-2.3-0.7
		c-1.2,0-1.9,0.5-1.9,1.4c0,0.5,0.2,0.8,0.5,1.1c0.3,0.2,0.8,0.4,1.4,0.4C90.3,75.1,90.8,75,91.2,74.8z"/>
	<path class="st1" d="M97.5,76c-0.5-0.5-0.8-1.3-0.8-2.3v-4.3h-1.3v-1.8h1.3V65h2.3v2.7h2.1v1.8h-2.1v4c0,0.6,0.1,1,0.3,1.2
		c0.2,0.2,0.6,0.4,1.1,0.4c0.4,0,0.8-0.1,1.1-0.3v1.8c-0.5,0.2-1.2,0.3-1.9,0.3C98.8,76.8,98,76.5,97.5,76z"/>
	<path class="st1" d="M104,75.8c-0.6-0.6-0.9-1.5-0.9-2.6v-5.6h2.3V73c0,1.3,0.6,1.9,1.8,1.9c0.5,0,1-0.1,1.5-0.4
		c0.5-0.3,0.9-0.6,1.2-1.1v-5.8h2.3v8.9h-2.3v-1.2c-0.4,0.5-0.9,0.9-1.5,1.1c-0.6,0.2-1.2,0.4-1.8,0.4
		C105.5,76.8,104.6,76.5,104,75.8z"/>
	<path class="st1" d="M116,76.6c-0.7-0.1-1.3-0.4-1.7-0.6v-2c0.5,0.3,1.1,0.5,1.7,0.7c0.7,0.2,1.3,0.3,1.9,0.3c0.6,0,1-0.1,1.3-0.2
		c0.3-0.1,0.4-0.3,0.4-0.6c0-0.2-0.1-0.4-0.2-0.5c-0.1-0.1-0.4-0.3-0.7-0.4s-0.8-0.3-1.5-0.4c-0.7-0.2-1.3-0.4-1.8-0.6
		c-0.4-0.2-0.7-0.5-1-0.8c-0.2-0.3-0.3-0.8-0.3-1.3c0-0.9,0.4-1.6,1.1-2c0.7-0.5,1.7-0.7,2.9-0.7c0.6,0,1.2,0.1,1.8,0.2
		c0.6,0.1,1.1,0.3,1.4,0.5v1.9c-0.4-0.2-0.8-0.4-1.4-0.5c-0.5-0.1-1.1-0.2-1.6-0.2c-0.6,0-1.1,0.1-1.4,0.2c-0.3,0.1-0.5,0.3-0.5,0.7
		c0,0.2,0.1,0.4,0.3,0.5c0.2,0.1,0.4,0.2,0.7,0.3c0.3,0.1,0.8,0.2,1.5,0.4c0.8,0.2,1.4,0.4,1.8,0.7c0.4,0.2,0.7,0.5,0.9,0.9
		c0.2,0.3,0.3,0.8,0.3,1.3c0,0.8-0.3,1.4-1,1.9s-1.6,0.7-2.9,0.7C117.4,76.8,116.7,76.7,116,76.6z"/>
</g>
</svg>
