<?xml version="1.0" encoding="utf-8"?>
<!-- Generator: Adobe Illustrator 23.0.1, SVG Export Plug-In . SVG Version: 6.00 Build 0)  -->
<svg version="1.1" id="Layer_1" xmlns="http://www.w3.org/2000/svg" xmlns:xlink="http://www.w3.org/1999/xlink" x="0px" y="0px"
	 viewBox="0 0 595.28 841.89" style="enable-background:new 0 0 595.28 841.89;" xml:space="preserve">
<style type="text/css">
	.st0{fill:#AAAAAA;}
</style>
<g>
	<path class="st0" d="M321.85,357.25c2.23,0,4.41-0.01,6.55-0.01C326.26,357.24,324.09,357.25,321.85,357.25z"/>
	<path class="st0" d="M321.86,348c0,3-0.01,6.04-0.01,9.25C321.85,354.04,321.87,351,321.86,348z"/>
	<path class="st0" d="M357.1,497.21c-0.11,0.3-0.21,0.6-0.34,0.89C356.89,497.8,356.99,497.5,357.1,497.21z"/>
	<path class="st0" d="M236.94,388.97c0.01-0.37,0.05-0.74,0.08-1.25C236.99,388.23,236.94,388.6,236.94,388.97z"/>
	<path class="st0" d="M241.13,502.51c0.74,0.88,1.57,1.69,2.46,2.41C242.7,504.2,241.88,503.39,241.13,502.51z"/>
	<path class="st0" d="M255.13,508.98c28.22,0.04,56.44,0.02,84.67-0.02C311.58,509,283.36,509.01,255.13,508.98z"/>
	<path class="st0" d="M344.57,508.37c5.6-1.42,9.88-5.1,12.08-10.03C354.45,503.27,350.16,506.95,344.57,508.37z"/>
	<path class="st0" d="M239.18,499.66c-0.84-1.52-1.46-3.18-1.83-4.93C237.71,496.48,238.34,498.14,239.18,499.66z"/>
	<path class="st0" d="M249.74,508.18c-1.14-0.35-2.22-0.8-3.25-1.35C247.52,507.38,248.61,507.83,249.74,508.18z"/>
	<path class="st0" d="M359.65,381.4c1.61,0,2.69,0.05,3.4-0.05C362.33,381.45,361.25,381.4,359.65,381.4z"/>
	<path class="st0" d="M363.43,381.28c-0.12,0.03-0.24,0.06-0.39,0.08C363.19,381.33,363.32,381.31,363.43,381.28z"/>
	<path class="st0" d="M230.88,377.9c0.02-10.13,5.78-17.83,15.15-20.07c1.76-0.42,3.63-0.53,5.45-0.55
		c7.08-0.07,14.17-0.04,21.26-0.05c0.12,0,0.24-0.05,0.68-0.15c0-1.41-0.02-2.9,0-4.38c0.06-3.22-0.16-6.49,0.3-9.65
		c0.87-5.9,5.61-9.97,11.54-10.06c4.14-0.06,8.29-0.09,12.43-0.1c-4.15,0-8.3,0.04-12.44,0.1c-5.93,0.09-10.68,4.16-11.54,10.06
		c-0.46,3.16-0.24,6.43-0.3,9.65c-0.03,1.49,0,2.97,0,4.38c-0.44,0.1-0.56,0.15-0.68,0.15c-7.09,0.01-14.17-0.02-21.26,0.05
		c-1.82,0.02-3.69,0.13-5.45,0.55C236.65,360.07,230.89,367.77,230.88,377.9c-0.02,3.28-0.02,3.49,2.81,3.5
		C230.88,381.39,230.88,381.18,230.88,377.9z"/>
	<path class="st0" d="M358.11,493.05c-0.03,0.2-0.04,0.41-0.07,0.61C358.07,493.46,358.08,493.26,358.11,493.05z"/>
	<path class="st0" d="M357.8,494.86c-0.03,0.11-0.04,0.23-0.07,0.34C357.75,495.08,357.77,494.97,357.8,494.86z"/>
	<path class="st0" d="M357.48,496.07c-0.06,0.2-0.11,0.41-0.17,0.6C357.37,496.48,357.42,496.27,357.48,496.07z"/>
	<path class="st0" d="M345.57,357.4c-3.57-0.27-7.21-0.1-10.8-0.14c0,0,0.01,0,0.01,0C338.38,357.3,342.01,357.13,345.57,357.4z"/>
	<path class="st0" d="M357.3,496.68c-0.06,0.18-0.14,0.35-0.2,0.53C357.17,497.03,357.24,496.86,357.3,496.68z"/>
	<path class="st0" d="M358.04,493.66c-0.06,0.4-0.15,0.8-0.24,1.19C357.88,494.46,357.97,494.07,358.04,493.66z"/>
	<path class="st0" d="M357.73,495.2c-0.07,0.3-0.17,0.58-0.25,0.88C357.56,495.78,357.65,495.49,357.73,495.2z"/>
	<path class="st0" d="M356.76,498.09c-0.04,0.08-0.08,0.16-0.12,0.24C356.68,498.25,356.73,498.18,356.76,498.09z"/>
	<path class="st0" d="M358.21,387.72c-10.1,0-20.19,0-30.28,0C338.02,387.72,348.11,387.72,358.21,387.72
		c0.03,0.7,0.09,1.32,0.09,1.93c0,16.8,0.01,33.6,0.01,50.4c0-16.8-0.01-33.6-0.01-50.4C358.3,389.04,358.24,388.42,358.21,387.72z"
		/>
	<path class="st0" d="M339.8,508.96C339.8,508.96,339.8,508.96,339.8,508.96C339.8,508.96,339.8,508.96,339.8,508.96
		c1.57,0,3.17-0.19,4.69-0.57c0.03-0.01,0.05-0.02,0.08-0.02c-0.03,0.01-0.05,0.02-0.08,0.02
		C342.97,508.76,341.36,508.96,339.8,508.96z"/>
	<path class="st0" d="M358.11,493.05c0.11-0.85,0.18-1.71,0.18-2.6c0.02-16.8,0.02-33.6,0.02-50.4c0,16.8,0,33.6-0.02,50.4
		C358.29,491.34,358.22,492.2,358.11,493.05z"/>
	<path class="st0" d="M358.21,387.72c-10.1,0-20.19,0-30.28,0c-30.27,0-60.53,0-90.91,0c-0.03,0.51-0.07,0.88-0.08,1.25
		c0,34.04-0.05,68.09,0.03,102.13c0,1.24,0.13,2.46,0.38,3.63c0.37,1.75,0.99,3.41,1.83,4.93c0.56,1.01,1.22,1.97,1.96,2.85
		c0.74,0.88,1.57,1.69,2.46,2.41s1.87,1.37,2.89,1.91c1.03,0.55,2.12,1,3.25,1.35c1.7,0.52,3.51,0.8,5.39,0.8
		c28.23,0.03,56.45,0.02,84.67-0.02c0,0,0,0,0,0c1.56,0,3.17-0.2,4.69-0.57c0.03-0.01,0.05-0.02,0.08-0.02
		c5.6-1.42,9.88-5.09,12.08-10.03c0.04-0.08,0.08-0.16,0.12-0.24c0.12-0.29,0.23-0.59,0.34-0.89c0.07-0.18,0.14-0.35,0.2-0.53
		c0.07-0.2,0.11-0.4,0.17-0.6c0.09-0.29,0.18-0.58,0.25-0.88c0.03-0.11,0.04-0.23,0.07-0.34c0.09-0.39,0.18-0.79,0.24-1.19
		c0.03-0.2,0.05-0.41,0.07-0.61c0.11-0.85,0.18-1.71,0.18-2.6c0.02-16.8,0.02-33.6,0.02-50.4c0-16.8-0.01-33.6-0.01-50.4
		C358.3,389.04,358.24,388.42,358.21,387.72z M273.4,448.32c-0.01,11.96,0,23.92-0.01,35.88c-0.01,3.98-2.51,6.73-6.12,6.73
		c-3.66,0-6.19-2.71-6.19-6.66c0-24.04,0-48.08,0.01-72.12c0-3.21,1.85-5.64,4.69-6.32c2.79-0.67,5.77,0.66,6.95,3.33
		c0.47,1.05,0.64,2.31,0.64,3.48C273.42,424.53,273.4,436.43,273.4,448.32z M303.78,448.33c0,11.96,0,23.92-0.01,35.87
		c0,3.97-2.52,6.73-6.13,6.72c-3.65-0.01-6.18-2.71-6.18-6.67c0-24.04,0-48.08,0.01-72.12c0-3.19,1.87-5.64,4.7-6.31
		c2.8-0.66,5.77,0.67,6.95,3.34c0.47,1.06,0.63,2.32,0.63,3.49C303.8,424.54,303.78,436.44,303.78,448.33z M334.16,448.51
		c0,11.89,0,23.79-0.02,35.69c0,3.98-2.5,6.73-6.11,6.73c-3.65,0-6.19-2.71-6.19-6.66c0-24.04,0-48.08,0.01-72.12
		c0.01-3.2,1.86-5.64,4.69-6.32c2.79-0.66,5.76,0.66,6.95,3.33c0.47,1.05,0.64,2.31,0.64,3.48
		C334.18,424.59,334.16,436.55,334.16,448.51z"/>
	<path class="st0" d="M234.28,381.4c-0.21,0-0.41,0-0.59,0C233.87,381.4,234.08,381.4,234.28,381.4c41.76,0,83.52,0,125.27,0
		c0.03,0,0.06,0,0.1,0c-0.04,0-0.07,0-0.11,0C317.79,381.41,276.03,381.4,234.28,381.4z"/>
	<path class="st0" d="M363.05,381.35C363.05,381.35,363.05,381.35,363.05,381.35C363.05,381.35,363.05,381.35,363.05,381.35z"/>
	<path class="st0" d="M334.77,357.26c-2.11-0.02-4.22-0.03-6.37-0.02C330.55,357.23,332.66,357.23,334.77,357.26
		C334.77,357.26,334.77,357.26,334.77,357.26z"/>
	<path class="st0" d="M364.36,376.46c0.06,3.41,0.24,4.49-0.93,4.82C364.61,380.95,364.43,379.87,364.36,376.46
		c-0.17-9.64-7.09-17.61-16.71-18.86c-0.69-0.09-1.38-0.15-2.08-0.2c0.69,0.05,1.38,0.11,2.07,0.2
		C357.27,358.86,364.18,366.82,364.36,376.46z"/>
	<path class="st0" d="M321.84,345.01c0.01,0.99,0.02,1.99,0.02,2.99C321.86,347,321.86,346.01,321.84,345.01
		c-0.07-6.57-5.18-11.93-11.72-12.03c-4.14-0.07-8.29-0.09-12.43-0.09c4.14,0,8.28,0.02,12.42,0.09
		C316.65,333.08,321.76,338.44,321.84,345.01z"/>
	<path class="st0" d="M363.43,381.28c1.17-0.33,0.99-1.41,0.93-4.82c-0.18-9.64-7.09-17.6-16.72-18.86
		c-0.69-0.09-1.38-0.15-2.07-0.2c-3.57-0.26-7.19-0.09-10.79-0.14c0,0-0.01,0-0.01,0c0,0,0,0,0,0c-2.11-0.02-4.22-0.03-6.37-0.02
		c-2.14,0-4.32,0.01-6.55,0.01c0-3.21,0.02-6.25,0.01-9.25c0-1-0.01-1.99-0.02-2.99c-0.08-6.57-5.19-11.93-11.73-12.03
		c-4.14-0.06-8.28-0.09-12.42-0.09c-4.14,0-8.29,0.04-12.43,0.1c-5.93,0.09-10.67,4.16-11.54,10.06c-0.46,3.16-0.24,6.43-0.3,9.65
		c-0.02,1.48,0,2.97,0,4.38c-0.44,0.1-0.56,0.15-0.68,0.15c-7.09,0.01-14.18-0.02-21.26,0.05c-1.82,0.02-3.69,0.13-5.45,0.55
		c-9.37,2.24-15.13,9.94-15.15,20.07c0,3.28,0,3.49,2.81,3.5c0.19,0,0.38,0,0.59,0c41.75,0,83.51,0.01,125.26,0
		c0.04,0,0.07,0,0.11,0c1.6,0,2.68,0.05,3.4-0.05c0,0,0,0,0,0C363.19,381.33,363.32,381.31,363.43,381.28z M309.85,357.14
		c-8.24,0-16.24,0-24.44-0.01c0-3.49-0.05-6.89,0.03-10.28c0.03-1.24,0.91-1.91,2.16-1.91c6.7-0.01,13.4-0.02,20.1,0.01
		c1.35,0.01,2.13,0.8,2.14,2.15C309.87,350.38,309.85,353.66,309.85,357.14z"/>
</g>
</svg>
