<?xml version="1.0" encoding="utf-8"?>
<!-- Generator: Adobe Illustrator 23.0.1, SVG Export Plug-In . SVG Version: 6.00 Build 0)  -->
<svg version="1.1" id="Layer_1" xmlns="http://www.w3.org/2000/svg" xmlns:xlink="http://www.w3.org/1999/xlink" x="0px" y="0px"
	 viewBox="0 0 595.28 841.89" style="enable-background:new 0 0 595.28 841.89;" xml:space="preserve">
<style type="text/css">
	.st0{fill:#FFFFFF;}
</style>
<g id="f31nDI.tif">
	<g>
		<path class="st0" d="M237.02,387.72c-0.03,0.51-0.08,0.88-0.08,1.25c0,34.04-0.05,68.09,0.03,102.13
			c0.02,9.96,8.16,17.87,18.16,17.88c28.22,0.04,56.44,0.02,84.67-0.02c1.56,0,3.17-0.2,4.69-0.57c8.34-2.08,13.79-9.14,13.8-17.94
			c0.03-33.6,0.01-67.2,0.01-100.8c0-0.61-0.06-1.23-0.09-1.93C317.81,387.72,277.52,387.72,237.02,387.72z M321.85,357.25
			c0-4.28,0.04-8.26-0.01-12.24c-0.08-6.57-5.19-11.93-11.73-12.03c-8.29-0.13-16.58-0.11-24.86,0.01
			c-5.93,0.09-10.68,4.16-11.54,10.06c-0.46,3.16-0.24,6.43-0.3,9.65c-0.03,1.49,0,2.97,0,4.38c-0.44,0.1-0.56,0.15-0.68,0.15
			c-7.09,0.01-14.17-0.02-21.26,0.05c-1.82,0.02-3.69,0.13-5.45,0.55c-9.37,2.24-15.13,9.94-15.15,20.07
			c-0.01,3.5-0.01,3.5,3.41,3.5c41.75,0,83.51,0.01,125.26,0c5.32,0,4.92,0.52,4.82-4.94c-0.18-9.64-7.09-17.6-16.72-18.86
			c-4.23-0.55-8.58-0.3-12.87-0.34C330.55,357.21,326.32,357.25,321.85,357.25z"/>
		<path d="M237.02,387.72c40.5,0,80.78,0,121.19,0c0.03,0.7,0.09,1.32,0.09,1.93c0,33.6,0.02,67.2-0.01,100.8
			c-0.01,8.81-5.47,15.86-13.8,17.94c-1.52,0.38-3.12,0.57-4.69,0.57c-28.22,0.04-56.44,0.05-84.67,0.02
			c-10-0.01-18.14-7.92-18.16-17.88c-0.08-34.04-0.03-68.09-0.03-102.13C236.95,388.6,236.99,388.23,237.02,387.72z M273.4,448.32
			c0-11.89,0.02-23.79-0.03-35.68c0-1.17-0.17-2.43-0.64-3.48c-1.18-2.67-4.16-4-6.95-3.33c-2.84,0.68-4.69,3.11-4.69,6.32
			c-0.01,24.04-0.01,48.08-0.01,72.12c0,3.95,2.53,6.66,6.19,6.66c3.61,0,6.11-2.75,6.12-6.73
			C273.4,472.24,273.39,460.28,273.4,448.32z M303.78,448.33c0-11.89,0.02-23.79-0.03-35.68c0-1.17-0.16-2.43-0.63-3.49
			c-1.18-2.67-4.15-4-6.95-3.34c-2.83,0.67-4.7,3.12-4.7,6.31c-0.01,24.04-0.01,48.08-0.01,72.12c0,3.96,2.53,6.66,6.18,6.67
			c3.61,0.01,6.13-2.75,6.13-6.72C303.78,472.25,303.78,460.29,303.78,448.33z M334.16,448.51c0-11.96,0.02-23.92-0.03-35.87
			c0-1.17-0.17-2.43-0.64-3.48c-1.19-2.67-4.16-3.99-6.95-3.33c-2.83,0.68-4.68,3.12-4.69,6.32c-0.01,24.04-0.01,48.08-0.01,72.12
			c0,3.95,2.54,6.66,6.19,6.66c3.61,0,6.11-2.75,6.11-6.73C334.16,472.3,334.16,460.4,334.16,448.51z"/>
		<path d="M321.85,357.25c4.47,0,8.7-0.04,12.93,0.01c4.3,0.05,8.64-0.21,12.87,0.34c9.62,1.25,16.54,9.22,16.72,18.86
			c0.1,5.45,0.5,4.94-4.82,4.94c-41.75,0-83.51,0-125.26,0c-3.41,0-3.41,0-3.41-3.5c0.02-10.13,5.78-17.83,15.15-20.07
			c1.76-0.42,3.63-0.53,5.45-0.55c7.08-0.07,14.17-0.04,21.26-0.05c0.12,0,0.24-0.05,0.68-0.15c0-1.41-0.02-2.9,0-4.38
			c0.06-3.22-0.16-6.49,0.3-9.65c0.87-5.9,5.61-9.97,11.54-10.06c8.29-0.12,16.58-0.14,24.86-0.01c6.54,0.1,11.65,5.46,11.73,12.03
			C321.88,348.99,321.85,352.97,321.85,357.25z M309.85,357.14c0-3.48,0.02-6.76-0.01-10.04c-0.01-1.35-0.79-2.14-2.14-2.15
			c-6.7-0.03-13.4-0.02-20.1-0.01c-1.25,0-2.13,0.67-2.16,1.91c-0.08,3.39-0.03,6.79-0.03,10.28
			C293.61,357.14,301.61,357.14,309.85,357.14z"/>
	</g>
</g>
</svg>
