<?xml version="1.0" encoding="utf-8"?>
<!-- Generator: Adobe Illustrator 23.0.1, SVG Export Plug-In . SVG Version: 6.00 Build 0)  -->
<svg version="1.1" id="Layer_1" xmlns="http://www.w3.org/2000/svg" xmlns:xlink="http://www.w3.org/1999/xlink" x="0px" y="0px"
	 viewBox="0 0 170.26 170.26" style="enable-background:new 0 0 170.26 170.26;" xml:space="preserve">
<style type="text/css">
	.st0{fill:#EEFF00;}
</style>
<path class="st0" d="M85.13,0C38.19,0,0,38.19,0,85.13s38.19,85.13,85.13,85.13s85.13-38.19,85.13-85.13S132.07,0,85.13,0z
	 M116.88,73.3c-0.21-0.3-0.24-0.55-0.16-0.9c0.7-3.09,1.49-6.17,2.04-9.29c0.71-4.08,0.95-8.2,0.66-12.35
	c-0.24-3.48-0.86-6.87-2.23-10.1c-2.69-6.34-7.42-10.27-14.13-11.81c-0.28-0.07-0.62-0.18-0.8-0.38c-2.54-2.87-5.85-4.33-9.48-5.17
	c-3.54-0.82-7.14-0.96-10.76-0.72c-4.22,0.28-8.34,0.97-12.31,2.45c-4.7,1.75-8.76,4.44-11.9,8.4c-2.79,3.53-4.51,7.55-5.46,11.92
	c-0.93,4.28-1.09,8.6-0.84,12.96c0.27,4.75,1.09,9.41,2.13,14.05c0.05,0.23,0,0.54-0.13,0.73c-1.77,2.54-2.25,5.36-1.88,8.37
	c0.31,2.56,0.89,5.04,2.1,7.34c0.91,1.74,2.14,3.2,3.83,4.25c0.2,0.12,0.39,0.38,0.45,0.61c1.39,5.18,3.92,9.76,7.32,13.89
	c0.02,0.03,0.05,0.06,0.08,0.09c1.15,0.83,1.38,1.98,1.31,3.34c-0.13,2.95-0.15,5.91-0.22,8.86c-0.02,1-0.6,1.73-1.21,2.44
	c-1.47,1.72-3.38,2.85-5.38,3.84c-3.29,1.65-6.77,2.83-10.23,4.06c-4.93,1.75-9.88,3.47-14.51,5.94c-1.42,0.76-2.79,1.63-4.15,2.49
	C17.42,124.85,9,105.96,9,85.13C9,43.15,43.15,9,85.13,9c41.98,0,76.13,34.15,76.13,76.13c0,20.8-8.39,39.68-21.97,53.43
	c-5.26-3.52-11.07-5.72-16.93-7.8c-3.95-1.41-7.95-2.68-11.73-4.53c-2.23-1.09-4.36-2.32-5.94-4.3c-0.57-0.72-0.93-1.5-0.94-2.42
	c-0.05-3.42-0.1-6.84-0.12-10.26c0-0.18,0.13-0.4,0.26-0.54c4-4.32,6.8-9.32,8.39-15c0.08-0.27,0.31-0.56,0.55-0.72
	c2.19-1.43,3.58-3.47,4.5-5.86c0.89-2.3,1.37-4.7,1.46-7.15C118.86,77.57,118.28,75.3,116.88,73.3z"/>
</svg>
