<?xml version="1.0" encoding="utf-8"?>
<!-- Generator: Adobe Illustrator 23.0.1, SVG Export Plug-In . SVG Version: 6.00 Build 0)  -->
<svg version="1.1" id="Layer_1" xmlns="http://www.w3.org/2000/svg" xmlns:xlink="http://www.w3.org/1999/xlink" x="0px" y="0px"
	 viewBox="0 0 581 379.4" style="enable-background:new 0 0 581 379.4;" xml:space="preserve">
<style type="text/css">
	.st0{fill:#EEFF00;}
</style>
<title>yes-slider</title>
<rect y="0" class="st0" width="581" height="379.4"/>
<path d="M236.2,197.2l-25.1-42.8h13.4l17.8,30.8l18.3-30.8h13.2l-25.6,42.8v26.3h-12L236.2,197.2L236.2,197.2z"/>
<path d="M276,218.4c-5.1-4.4-7.7-10.6-7.7-18.5c0-7.8,2.3-13.9,6.8-18.5c4.5-4.5,11.1-6.8,19.5-6.8c4.9-0.1,9.8,0.9,14.2,3.2
	c3.7,1.9,6.8,4.9,8.9,8.6c2,3.9,3.1,8.2,3,12.5v5.7h-40.5c0.9,7,7,10.6,18.4,10.6c3.1,0,6.2-0.3,9.3-0.8c2.8-0.4,5.6-1.2,8.3-2.2
	v9.6c-2.8,1.1-5.7,1.8-8.6,2.3c-3.5,0.6-7,0.9-10.5,0.9C288.2,225,281.2,222.8,276,218.4z M308.9,196.1c0.1-3.4-1.4-6.6-4-8.7
	c-2.5-2-6-3.1-10.4-3.1s-7.8,1.1-10.3,3.2c-2.5,2.1-4,5.3-4,8.6H308.9z"/>
<path d="M338,223.8c-3.2-0.5-6.3-1.6-9.1-3.3V210c2.9,1.7,6,3,9.2,3.8c3.3,0.9,6.7,1.4,10.1,1.4c2.3,0.1,4.7-0.2,6.9-0.8
	c1.4-0.4,2.3-1.7,2.2-3.1c0-1.1-0.4-2.1-1.1-2.9c-1.1-0.9-2.3-1.6-3.7-2.1c-1.7-0.6-4.3-1.4-7.8-2.3c-3.2-0.8-6.3-2-9.3-3.5
	c-4.5-2-7.2-6.7-6.9-11.6c0-4.7,1.9-8.3,5.6-10.7s8.8-3.6,15.2-3.6c3.3,0,6.6,0.3,9.8,0.9c2.7,0.4,5.3,1.3,7.7,2.6v10.2
	c-2.3-1.3-4.7-2.3-7.2-2.9c-2.8-0.7-5.8-1.1-8.7-1.1c-2.5-0.1-5,0.2-7.3,0.9c-1.6,0.5-2.6,2-2.5,3.6c0,1.1,0.5,2.2,1.3,2.8
	c1.1,0.8,2.3,1.4,3.5,1.8c1.5,0.5,4.1,1.2,7.9,2.2c3.3,0.8,6.6,2.1,9.6,3.7c2.1,1.1,3.8,2.7,4.9,4.8c1.1,2.1,1.6,4.5,1.5,6.9
	c0.1,4.1-2,7.9-5.4,10.1c-3.6,2.6-8.8,3.8-15.5,3.8C345.3,225,341.6,224.6,338,223.8z"/>
</svg>
