<svg id="Layer_1" data-name="Layer 1" xmlns="http://www.w3.org/2000/svg" viewBox="0 0 581.02 379.44"><defs><style>.cls-1{fill:#ef0;}</style></defs><title>yes-slider</title><rect width="581.02" height="379.44"/><path class="cls-1" d="M244.51,359.18l-25.12-42.81h13.35l17.8,30.75,18.29-30.75h13.25l-25.61,42.81v26.3h-12v-26.3Z" transform="translate(-8.33 -161.95)"/><path class="cls-1" d="M284.36,380.34q-7.71-6.63-7.71-18.49,0-11.67,6.82-18.49T303,336.54a29.57,29.57,0,0,1,14.19,3.17,21.17,21.17,0,0,1,8.85,8.65,25.87,25.87,0,0,1,3,12.51v5.73H288.52q1.29,10.57,18.39,10.58a56.12,56.12,0,0,0,9.29-.79,41.86,41.86,0,0,0,8.31-2.18v9.59a41.12,41.12,0,0,1-8.65,2.27,63.79,63.79,0,0,1-10.53.89Q292.07,387,284.36,380.34Zm32.83-22.25a11.07,11.07,0,0,0-4-8.7q-3.81-3.06-10.43-3.06t-10.28,3.16a11.24,11.24,0,0,0-4,8.6Z" transform="translate(-8.33 -161.95)"/><path class="cls-1" d="M346.35,385.78a27.4,27.4,0,0,1-9.1-3.26V371.94a34.82,34.82,0,0,0,9.2,3.81,38.76,38.76,0,0,0,10.09,1.43,20.71,20.71,0,0,0,6.92-.84,3.1,3.1,0,0,0,2.18-3.12,4,4,0,0,0-1.14-2.92,10.34,10.34,0,0,0-3.66-2.08q-2.52-.95-7.76-2.32a50.09,50.09,0,0,1-9.34-3.46,11.72,11.72,0,0,1-6.87-11.57q0-7.12,5.64-10.73t15.23-3.61a51.74,51.74,0,0,1,9.84.94,23.56,23.56,0,0,1,7.66,2.62v10.18A27.18,27.18,0,0,0,368,347.4a34.74,34.74,0,0,0-8.7-1.09,21.64,21.64,0,0,0-7.32.94,3.55,3.55,0,0,0-2.47,3.61,3.37,3.37,0,0,0,1.33,2.82,12,12,0,0,0,3.51,1.78c1.45.49,4.09,1.24,7.91,2.23a42.33,42.33,0,0,1,9.59,3.66,12.2,12.2,0,0,1,4.94,4.75,14.53,14.53,0,0,1,1.48,6.92,11.85,11.85,0,0,1-5.39,10.14Q367.52,387,357.33,387A55.32,55.32,0,0,1,346.35,385.78Z" transform="translate(-8.33 -161.95)"/></svg>