<?xml version="1.0" encoding="utf-8"?>
<!-- Generator: Adobe Illustrator 23.0.1, SVG Export Plug-In . SVG Version: 6.00 Build 0)  -->
<svg version="1.1" id="Layer_1" xmlns="http://www.w3.org/2000/svg" xmlns:xlink="http://www.w3.org/1999/xlink" x="0px" y="0px"
	 viewBox="0 0 595.28 841.89" style="enable-background:new 0 0 595.28 841.89;" xml:space="preserve">
<style type="text/css">
	.st0{fill:#EEFF00;}
</style>
<rect x="8.33" y="161.95" class="st0" width="581.02" height="379.44"/>
<g>
	<path d="M244.51,359.18l-25.12-42.81h13.35l17.8,30.75l18.29-30.75h13.25l-25.61,42.81v26.3h-11.96V359.18z"/>
	<path d="M284.36,380.34c-5.14-4.42-7.71-10.58-7.71-18.49c0-7.78,2.27-13.94,6.82-18.49c4.55-4.55,11.04-6.82,19.48-6.82
		c5.54,0,10.27,1.06,14.19,3.17c3.92,2.11,6.87,4.99,8.85,8.65c1.98,3.66,2.97,7.83,2.97,12.51v5.73h-40.44
		c0.86,7.05,6.99,10.58,18.39,10.58c3.03,0,6.13-0.26,9.29-0.79c3.17-0.53,5.93-1.25,8.31-2.18v9.59c-2.24,0.92-5.13,1.68-8.65,2.27
		c-3.53,0.59-7.04,0.89-10.53,0.89C296.49,386.97,289.5,384.76,284.36,380.34z M317.19,358.09c-0.13-3.76-1.47-6.66-4-8.7
		c-2.54-2.04-6.02-3.06-10.43-3.06c-4.35,0-7.78,1.06-10.28,3.16c-2.51,2.11-3.82,4.98-3.96,8.6H317.19z"/>
	<path d="M346.35,385.78c-3.89-0.79-6.92-1.88-9.1-3.26v-10.58c2.57,1.58,5.64,2.85,9.2,3.81c3.56,0.96,6.92,1.43,10.09,1.43
		s5.47-0.28,6.92-0.84c1.45-0.56,2.18-1.6,2.18-3.12c0-1.19-0.38-2.16-1.14-2.92c-0.76-0.76-1.98-1.45-3.66-2.08
		c-1.68-0.63-4.27-1.4-7.76-2.32c-3.96-1.12-7.07-2.27-9.34-3.46c-2.27-1.19-3.99-2.69-5.14-4.5c-1.15-1.81-1.73-4.17-1.73-7.07
		c0-4.75,1.88-8.32,5.64-10.73c3.76-2.41,8.83-3.61,15.23-3.61c3.3,0,6.58,0.31,9.84,0.94c3.26,0.63,5.82,1.5,7.66,2.62v10.18
		c-1.98-1.19-4.39-2.14-7.22-2.87c-2.84-0.73-5.73-1.09-8.7-1.09c-3.23,0-5.67,0.31-7.32,0.94c-1.65,0.63-2.47,1.83-2.47,3.61
		c0,1.19,0.44,2.13,1.33,2.82c0.89,0.69,2.06,1.29,3.51,1.78c1.45,0.49,4.09,1.24,7.91,2.23c4.09,1.12,7.28,2.34,9.59,3.66
		c2.31,1.32,3.96,2.9,4.94,4.75c0.99,1.85,1.48,4.15,1.48,6.92c0,4.22-1.8,7.6-5.39,10.14c-3.59,2.54-8.79,3.81-15.57,3.81
		C353.9,386.97,350.24,386.57,346.35,385.78z"/>
</g>
</svg>
